{"glyphs":{"\u0000":{"ha":0,"x_min":0,"x_max":0,"o":""},"\u001d":{"ha":0,"x_min":0,"x_max":0,"o":""}," ":{"ha":345,"x_min":0,"x_max":0,"o":""}," ":{"ha":345,"x_min":0,"x_max":0,"o":""},"@":{"ha":692,"x_min":-729,"x_max":50,"o":"m -438 498 q -420 503 -429 503 q -332 418 -381 503 l -329 414 q -289 241 -299 362 l -286 237 l -294 233 l -297 237 q -342 417 -306 355 q -420 492 -386 492 q -437 487 -429 492 q -453 440 -453 463 q -442 403 -453 421 l -440 399 q -360 298 -368 313 l -366 290 q -389 284 -375 284 q -401 285 -395 284 q -411 274 -407 276 q -425 271 -421 273 q -425 267 -425 269 q -431 252 -425 261 l -439 247 l -456 248 q -455 244 -455 246 q -468 203 -455 235 l -484 193 l -488 201 l -489 212 l -493 210 l -503 188 l -507 185 q -502 240 -502 211 q -514 339 -502 286 l -510 341 l -501 336 l -479 212 l -475 215 l -454 281 q -450 279 -452 279 q -447 280 -448 279 l -446 269 l -441 261 l -431 290 l -422 294 l -418 286 l -400 302 q -392 297 -396 297 q -387 298 -390 297 l -379 303 l -382 307 q -450 398 -431 365 l -453 402 q -463 451 -463 430 q -438 498 -463 484 m -273 534 l -269 526 q -248 434 -254 444 q -200 408 -237 414 l -115 457 q -18 497 -53 477 l 6 511 l 14 499 l 9 496 q -130 437 -25 477 l -199 397 q -201 396 -200 396 q -256 418 -212 396 q -251 400 -251 411 q -267 353 -251 381 l -271 350 q -276 348 -273 348 q -283 353 -281 348 l -288 361 q -289 364 -289 363 q -278 400 -289 373 l -274 403 l -267 391 q -277 374 -277 382 q -276 369 -277 372 l -273 365 q -262 398 -262 371 q -283 512 -262 435 l -273 534 m -568 346 q -555 347 -560 347 q -538 342 -543 347 l -533 334 q -565 277 -535 294 l -572 289 q -545 326 -545 304 l -545 326 l -547 330 q -564 336 -550 336 l -567 336 q -635 154 -629 300 l -623 123 q -581 106 -602 106 q -557 113 -569 106 q -508 179 -551 116 q -507 176 -507 178 q -552 104 -507 157 q -587 96 -571 96 q -635 127 -618 96 l -638 131 q -649 174 -649 149 q -584 336 -649 235 l -568 346 m -395 378 l -391 368 l -391 302 q -400 292 -391 292 l -406 302 l -406 368 q -395 378 -404 378 m -92 378 l -87 368 l -87 302 q -97 292 -87 292 l -102 302 l -102 368 q -92 378 -100 378 m -709 372 l -678 372 q -669 362 -669 371 q -673 357 -673 362 l -699 362 q -714 357 -709 357 l -714 342 q -663 322 -663 336 l -663 312 q -684 292 -663 304 l -714 292 q -729 307 -721 292 q -724 312 -724 307 q -694 302 -707 302 q -678 307 -684 307 l -678 322 q -729 342 -729 330 l -729 352 q -709 372 -729 360 m -294 372 l -279 372 q -264 357 -272 372 q -269 352 -269 357 q -299 362 -286 362 q -319 342 -307 362 l -319 322 q -299 302 -319 314 q -269 312 -286 302 l -264 302 l -279 292 l -309 292 q -335 332 -335 304 q -294 372 -335 372 m -628 352 l -608 352 q -587 332 -600 352 l -587 312 q -608 292 -587 304 l -628 292 q -648 312 -636 292 l -648 332 q -628 352 -648 340 m -557 352 l -537 352 q -527 342 -527 351 q -532 337 -532 342 l -542 342 l -547 342 q -562 327 -554 342 l -562 307 l -537 302 q -532 307 -537 307 l -527 296 l -537 292 l -557 292 q -577 312 -565 292 l -577 332 q -557 352 -577 340 m -502 352 l -496 342 l -496 302 q -507 292 -496 292 l -511 302 l -511 342 q -502 352 -510 352 m -471 352 l -441 352 q -426 337 -433 352 l -426 302 q -436 292 -426 292 q -441 296 -441 292 l -451 292 l -466 292 q -481 307 -473 292 l -481 317 q -441 332 -481 332 q -471 342 -441 342 l -471 352 m -239 352 l -233 342 l -233 302 q -243 292 -233 292 l -249 302 l -249 342 q -239 352 -247 352 m -203 352 q -198 347 -198 352 l -188 352 l -178 352 l -178 342 q -198 307 -198 342 q -208 292 -198 292 l -214 302 l -214 342 q -203 352 -212 352 m -148 352 l -127 352 q -117 342 -117 351 q -122 337 -122 342 q -138 342 -132 342 q -153 337 -147 337 l -153 307 l -127 302 q -122 307 -127 307 l -117 296 l -127 292 l -148 292 q -168 312 -155 292 l -168 332 q -148 352 -168 340 m -52 352 l -31 352 q -11 332 -24 352 l -11 327 q -21 317 -11 317 l -57 317 l -57 307 l -31 302 q -16 307 -22 307 l -11 296 l -21 292 l -52 292 q -72 312 -60 292 l -72 332 q -52 352 -72 340 m 14 352 l 39 352 q 50 342 50 351 l 39 337 q 19 342 31 342 l 14 332 q 50 312 50 323 l 50 307 q 35 292 50 300 l 9 292 q -1 302 -1 292 l 9 307 q 29 302 18 302 l 35 312 q -1 332 -1 324 l -1 337 q 14 352 -1 345 m -633 327 l -633 317 q -618 302 -633 310 q -603 317 -610 302 l -603 327 q -618 342 -603 334 q -633 327 -625 342 m -57 327 l -26 327 l -26 332 q -37 342 -26 342 l -41 342 q -57 327 -49 342 m -466 317 l -466 312 q -456 302 -465 302 l -451 302 q -441 312 -441 302 l -441 322 l -466 317 z "},"A":{"ha":975,"x_min":54,"x_max":1010,"o":"m 264 746 q 154 482 154 637 q 264 219 154 328 q 532 109 375 109 q 800 219 688 109 q 910 482 910 328 q 800 746 910 637 q 532 855 688 855 q 264 746 375 855 m 532 9 q 194 147 334 9 q 54 482 54 286 q 194 817 54 679 q 532 956 334 956 q 870 817 730 956 q 1010 482 1010 679 q 870 147 1010 286 q 532 9 730 9 m 518 553 q 438 674 462 645 q 321 526 344 627 q 518 553 433 527 m 553 482 q 532 517 532 513 l 531 517 q 317 488 431 488 l 317 484 q 372 339 317 397 q 553 482 439 446 m 614 286 q 567 446 595 382 q 399 314 454 406 q 517 258 453 258 q 614 286 563 258 m 560 564 q 671 642 636 594 q 538 697 613 697 q 481 690 511 697 q 560 564 534 611 m 650 304 q 741 447 724 354 q 659 460 702 460 q 609 456 635 460 q 650 304 639 365 m 744 484 q 695 616 742 562 q 576 533 650 562 q 586 512 579 526 q 595 490 593 498 q 646 494 619 494 q 744 484 692 494 m 781 466 q 707 304 772 370 q 545 231 642 239 l 515 231 q 280 466 307 258 l 280 496 q 353 659 287 592 q 515 732 419 724 l 545 732 q 707 659 640 724 q 781 496 772 594 l 781 466 z "},"B":{"ha":983,"x_min":-74,"x_max":878,"o":"m 136 744 q 26 482 26 635 q 136 220 26 328 q 402 111 246 111 q 668 220 558 111 q 779 482 779 328 q 668 744 779 635 q 402 853 558 853 q 136 744 246 853 m 402 11 q 66 149 205 11 q -74 482 -74 287 q 66 815 -74 677 q 402 953 205 953 q 739 815 599 953 q 878 482 878 677 q 739 149 878 287 q 402 11 599 11 m 441 561 q 443 566 443 564 q 441 572 443 569 l 440 575 q 439 577 440 576 q 431 588 435 586 q 428 590 429 590 q 426 591 427 591 l 425 591 q 415 594 422 594 q 371 595 393 595 q 327 594 349 595 l 324 594 q 306 584 313 593 l 306 583 q 300 570 302 579 q 300 566 300 568 q 301 559 300 563 q 302 554 301 558 q 303 553 303 554 q 309 546 304 549 q 315 541 312 542 q 325 538 323 538 q 371 537 348 537 q 417 538 394 537 q 420 538 420 538 l 422 539 q 438 553 433 542 q 440 557 439 553 l 441 561 m 525 394 q 526 397 526 395 q 525 402 526 399 q 522 410 525 407 q 517 418 521 415 q 511 422 514 422 q 507 427 508 427 l 507 425 l 505 425 q 501 426 503 425 q 413 427 457 427 q 325 426 369 427 q 321 425 322 425 l 319 425 l 319 427 q 315 422 317 427 q 305 414 309 420 q 303 410 304 413 q 300 402 300 407 l 300 394 q 315 372 302 380 q 324 370 318 370 l 327 370 q 413 369 370 369 q 498 370 456 369 l 501 370 q 514 375 510 370 q 519 381 518 376 q 525 394 524 385 m 637 400 l 635 384 q 627 352 632 365 q 625 347 625 348 q 621 337 623 342 q 617 330 617 332 q 616 328 616 330 q 610 320 613 325 q 570 281 593 298 l 569 281 l 550 271 q 507 259 529 262 q 493 258 495 259 l 332 258 q 319 259 331 258 q 291 264 304 262 q 281 269 287 267 l 281 269 q 271 273 273 272 q 269 274 271 273 q 267 275 268 275 q 251 282 251 281 q 256 281 252 282 q 205 336 225 302 q 202 344 204 336 q 195 360 199 349 l 195 361 q 195 363 195 362 q 190 387 191 378 l 189 400 l 189 564 l 190 576 q 199 612 193 595 q 195 610 195 610 q 202 620 195 611 l 202 619 q 203 624 203 619 q 212 638 210 636 q 212 640 212 638 q 256 683 231 666 q 264 688 261 684 q 269 690 267 688 q 271 691 271 690 q 279 694 276 692 q 281 695 280 694 q 283 696 282 696 l 283 696 q 291 699 290 699 l 294 700 l 295 700 q 296 701 296 700 q 304 703 301 701 q 319 705 317 705 q 332 706 331 705 l 410 706 l 408 707 q 410 707 408 707 q 428 704 413 707 q 439 703 436 703 q 449 700 441 701 q 452 699 450 699 l 453 699 q 460 696 454 699 q 479 688 465 694 l 480 688 l 477 690 l 477 690 q 486 684 478 690 q 495 678 492 679 q 500 675 496 675 q 524 650 521 654 q 528 646 524 648 q 534 636 530 641 q 540 625 536 629 q 543 616 542 618 l 544 613 l 547 605 q 552 578 548 600 l 552 573 q 553 566 553 568 l 553 564 q 555 557 553 560 q 558 551 555 554 q 565 544 560 546 q 574 538 567 541 q 579 538 576 538 q 621 532 612 532 q 635 512 631 527 q 637 506 635 507 l 637 400 z "},"C":{"ha":975,"x_min":-14,"x_max":951,"o":"m 199 755 q 87 490 87 645 q 199 224 87 334 q 469 113 311 113 q 739 224 627 113 q 850 490 850 334 q 739 755 850 645 q 469 865 627 865 q 199 755 311 865 m 469 12 q 128 152 269 12 q -14 490 -14 292 q 128 827 -14 688 q 469 966 269 966 q 809 827 668 966 q 951 490 951 688 q 809 152 951 292 q 469 12 668 12 m 536 467 q 543 456 541 463 q 536 467 538 460 m 732 333 q 732 329 732 332 q 733 319 732 326 q 734 313 734 316 q 732 307 734 309 l 686 307 q 639 309 642 307 l 639 319 l 640 319 l 640 309 l 732 309 q 730 339 730 321 l 730 352 l 732 349 q 733 338 733 341 q 732 336 733 336 l 732 333 m 577 648 q 590 636 582 646 l 577 648 m 658 557 l 652 565 l 658 557 m 404 409 q 411 396 408 406 q 404 409 408 399 m 325 755 q 305 757 311 757 l 302 757 l 302 756 l 308 756 q 322 755 318 755 q 325 755 325 755 m 618 609 q 617 610 618 609 q 618 609 615 612 q 618 609 622 606 m 637 340 l 637 345 q 638 340 638 345 l 638 320 q 639 321 639 320 q 637 340 639 326 m 639 309 l 638 309 l 638 328 l 639 328 l 639 309 m 555 433 q 556 435 556 434 q 547 444 556 439 q 548 445 547 445 l 549 446 q 555 433 553 441 m 500 701 q 508 696 507 700 q 500 701 501 699 m 295 512 l 283 513 l 283 583 l 283 559 l 283 514 q 286 515 283 515 q 295 513 288 515 l 295 512 m 458 618 q 466 614 465 616 q 458 618 459 616 m 624 601 q 630 594 629 596 l 624 601 m 432 567 q 440 562 439 565 q 432 567 433 564 m 583 328 q 583 311 583 316 l 583 307 l 535 307 q 488 307 494 307 l 488 315 l 490 315 l 490 309 q 558 307 498 307 l 582 307 q 584 313 584 309 q 583 317 584 315 q 583 324 583 321 q 583 328 583 327 m 529 684 q 540 675 535 682 q 524 688 528 680 q 533 685 533 686 q 529 684 533 684 m 378 591 q 403 582 391 589 q 378 591 391 585 m 315 661 l 313 661 q 304 661 309 661 q 294 662 298 662 l 294 663 l 302 663 q 315 661 312 663 m 342 309 l 362 309 q 350 307 356 307 q 342 307 346 307 l 342 309 m 488 323 q 489 323 489 323 q 487 334 489 326 l 487 334 q 488 328 487 333 l 488 323 m 498 703 q 496 702 496 703 l 498 701 q 484 707 493 702 q 469 714 473 713 l 469 718 l 469 717 q 472 715 471 717 q 495 704 483 709 q 498 703 497 704 m 529 684 q 533 685 533 684 q 524 688 533 686 q 520 690 521 688 q 529 684 526 688 m 677 524 l 673 532 l 677 524 m 364 437 q 375 433 371 437 q 349 437 363 437 q 327 435 339 437 q 334 437 328 437 l 364 437 m 437 629 q 450 622 446 627 q 437 629 438 629 l 437 629 m 732 333 q 730 311 730 317 q 731 306 730 306 q 732 307 732 306 l 685 307 q 638 309 642 307 l 639 309 q 686 307 642 307 l 732 307 q 734 313 734 309 q 733 319 734 316 q 732 329 732 326 q 732 333 732 332 m 414 381 q 418 374 418 378 q 414 366 418 370 l 414 381 m 507 505 l 507 506 l 508 503 q 479 532 493 517 l 478 532 l 481 531 q 507 505 494 517 m 414 366 q 414 357 414 359 l 412 357 q 414 380 414 376 q 414 382 414 382 l 414 381 l 414 376 l 414 366 m 285 606 l 285 514 l 290 514 q 312 511 302 514 l 315 511 q 307 512 315 512 l 295 512 l 295 513 q 286 515 288 515 q 283 514 283 515 l 283 559 l 283 583 l 282 588 q 283 607 282 605 q 288 608 285 608 q 294 607 290 608 q 300 606 298 606 q 302 607 302 606 q 326 604 318 607 l 285 606 m 341 438 q 349 441 345 441 q 357 438 353 441 l 341 438 m 432 730 q 434 732 434 732 q 421 734 434 734 l 416 734 q 432 730 416 734 m 285 756 l 285 759 q 286 753 286 759 q 283 664 286 737 q 284 665 283 665 q 294 663 287 665 l 294 662 l 283 663 l 283 711 q 283 758 283 757 q 287 758 284 758 q 305 756 292 758 l 285 756 m 513 499 q 511 501 511 499 q 508 503 509 503 l 507 506 l 507 505 q 506 508 507 508 l 506 507 q 513 499 513 502 m 596 479 q 595 476 595 478 q 602 467 595 473 q 596 479 598 473 m 472 715 q 495 704 486 711 q 472 715 483 709 m 557 536 q 549 546 551 541 l 549 545 q 548 548 549 545 q 545 551 547 549 q 543 554 544 553 q 557 536 555 545 m 484 530 q 481 531 481 530 l 481 531 l 478 532 l 479 532 q 475 536 478 534 l 475 536 q 484 530 478 536 m 414 376 l 414 381 l 414 382 q 414 380 414 382 q 412 357 414 376 l 412 355 q 410 349 412 351 q 406 339 407 345 q 362 309 393 315 l 342 309 q 335 310 340 309 q 328 311 331 311 q 312 319 316 315 q 294 336 307 328 q 285 357 286 347 q 283 378 283 374 q 283 380 283 380 l 283 382 q 327 435 290 420 q 349 437 339 437 q 375 433 363 437 q 385 427 383 427 l 385 428 q 389 418 388 418 l 389 419 q 388 425 389 420 q 401 412 393 417 q 410 408 410 409 l 410 408 q 404 409 408 408 q 411 396 408 399 q 407 399 408 399 l 407 399 q 414 381 407 396 l 414 376 m 334 437 q 335 437 334 437 q 341 438 336 437 l 357 438 q 363 437 361 437 q 364 437 364 437 l 334 437 m 283 363 q 281 373 281 368 q 283 382 281 378 l 283 363 m 325 755 q 336 753 333 753 q 336 754 336 753 q 285 755 302 754 l 285 664 q 302 662 298 662 q 302 663 302 662 l 294 663 q 284 665 287 665 q 283 664 283 665 q 286 753 286 737 q 285 759 286 759 l 285 756 l 302 756 l 302 757 l 305 757 q 325 755 311 757 m 410 349 q 406 339 410 342 q 410 349 407 345 m 404 409 q 410 408 408 408 l 410 408 q 401 412 410 409 q 388 425 395 418 q 389 419 389 420 l 389 418 q 385 428 388 418 q 404 409 397 422 m 486 528 q 505 510 496 519 q 486 528 494 518 m 294 336 q 312 319 307 328 q 294 336 301 324 m 572 387 q 576 375 574 385 q 572 387 573 378 m 666 544 l 660 553 l 666 544 m 715 433 q 720 418 718 430 q 715 433 716 422 m 342 307 q 328 311 333 307 q 335 310 331 311 q 342 309 340 309 l 342 307 m 410 578 q 432 567 420 575 q 436 566 435 566 l 437 566 q 409 576 437 567 l 410 579 l 410 578 m 543 554 q 545 551 544 553 q 548 548 547 549 q 524 573 535 559 q 526 570 525 572 q 529 568 528 568 q 543 554 536 560 m 505 510 q 506 507 505 507 l 506 507 q 484 530 494 517 q 487 528 487 529 l 486 528 q 505 510 494 518 m 581 347 q 578 363 578 353 q 581 349 581 359 l 581 347 m 548 548 q 549 545 549 545 l 549 546 q 553 543 552 543 q 513 581 553 544 q 510 582 511 582 q 524 573 510 581 q 548 548 535 559 m 543 554 q 529 568 536 560 l 530 568 q 543 555 536 561 l 543 554 m 490 309 q 489 320 489 317 q 490 321 489 321 q 488 327 488 326 l 488 328 q 487 334 487 333 l 487 334 q 450 437 481 392 q 418 470 437 461 q 312 511 371 505 q 290 514 302 514 l 285 514 l 285 606 l 326 604 q 378 591 359 600 q 403 582 391 585 q 413 574 412 574 l 414 574 q 410 578 414 574 l 410 579 l 409 576 q 437 566 437 567 l 436 566 q 432 567 435 566 q 440 562 433 564 q 475 536 460 551 l 475 536 q 479 532 478 534 q 508 503 493 517 q 511 501 509 503 q 513 499 511 499 q 536 467 526 487 q 543 456 538 460 q 549 446 547 454 l 548 445 q 547 444 547 445 q 556 435 556 439 q 555 433 556 434 q 572 387 566 412 q 576 375 573 378 q 578 363 578 368 q 581 347 578 353 l 582 309 l 490 309 m 285 357 l 285 358 q 283 363 285 359 l 283 380 q 283 378 283 380 q 285 357 283 374 m 639 328 q 640 332 640 332 l 640 319 l 639 319 l 639 328 m 490 315 l 488 315 l 488 327 q 490 321 488 326 l 490 315 m 693 493 l 679 522 l 686 508 l 693 493 m 388 425 q 401 412 395 418 q 388 425 393 417 m 581 349 q 583 328 583 342 q 583 324 583 327 q 583 317 583 321 q 584 313 584 315 q 582 307 584 309 l 558 307 q 490 309 498 307 l 490 321 q 489 320 489 321 q 490 309 489 317 l 582 309 l 581 347 l 581 349 m 418 470 q 450 437 437 461 q 418 470 435 454 m 611 616 l 612 614 l 590 636 l 611 616 m 530 568 q 543 555 538 562 q 530 568 536 561 m 611 616 m 302 607 q 300 606 302 606 q 294 607 298 606 q 288 608 290 608 q 283 607 285 608 q 282 588 282 605 l 282 597 q 283 607 282 606 l 302 607 m 506 507 l 506 508 q 507 505 507 508 q 481 531 494 517 l 481 531 q 484 530 481 530 q 506 507 494 517 m 640 309 l 640 332 q 639 328 640 332 l 638 328 l 638 340 q 637 345 638 345 l 637 340 q 602 467 630 407 q 595 476 595 473 q 596 479 595 478 q 557 536 585 499 q 543 554 555 545 l 543 555 q 530 568 538 562 l 529 568 q 526 570 528 568 q 524 573 525 572 q 510 582 510 581 q 513 581 511 582 q 466 614 475 608 q 458 618 465 616 l 449 622 l 450 622 q 437 629 446 627 q 315 661 376 656 q 302 663 312 663 q 302 662 302 662 q 285 664 298 662 l 285 755 q 336 754 302 754 q 469 717 408 746 l 469 718 l 469 714 q 484 707 473 713 q 498 701 493 702 l 496 702 q 498 703 496 703 q 500 701 500 703 q 508 696 501 699 q 520 690 515 694 q 524 688 521 688 q 540 675 528 680 q 577 648 555 669 l 624 601 l 630 594 q 652 565 643 581 l 658 557 q 660 553 660 555 l 660 553 l 666 544 q 673 532 671 539 l 677 524 l 679 522 l 693 493 q 715 433 708 463 q 720 418 716 422 q 730 352 730 368 l 730 339 q 732 309 730 321 l 640 309 m 732 349 q 731 347 731 349 q 732 336 731 344 q 733 338 733 336 q 732 349 733 341 z "},"D":{"ha":1029,"x_min":35,"x_max":1006,"o":"m 249 753 q 136 485 136 642 q 249 217 136 328 q 520 106 361 106 q 792 217 680 106 q 904 485 904 328 q 792 753 904 642 q 520 864 680 864 q 249 753 361 864 m 520 4 q 177 144 319 4 q 35 485 35 286 q 177 825 35 684 q 520 966 319 966 q 863 825 722 966 q 1006 485 1006 684 q 863 144 1006 286 q 520 4 722 4 m 743 429 q 741 522 743 448 l 706 522 l 706 421 q 740 424 732 424 l 743 424 l 743 429 m 796 566 l 796 309 l 652 309 l 652 352 l 741 352 l 741 373 l 736 373 q 652 376 718 373 l 652 566 l 796 566 m 573 421 l 573 522 l 539 522 l 539 421 l 573 421 m 629 566 l 629 309 l 484 309 l 484 352 l 573 352 l 575 373 l 568 373 q 484 376 551 373 l 484 566 l 629 566 m 460 566 l 460 376 l 404 376 l 404 566 l 460 566 m 460 644 l 460 588 l 460 588 q 456 587 460 587 q 404 590 446 587 l 404 644 l 460 644 m 327 421 l 327 522 l 292 522 q 290 427 290 447 l 290 419 l 290 421 l 327 421 m 380 644 l 380 376 l 237 376 l 237 566 l 327 566 l 329 644 l 380 644 z "},"E":{"ha":975,"x_min":-103,"x_max":857,"o":"m 109 749 q -3 484 -3 639 q 109 220 -3 330 q 377 110 220 110 q 646 220 534 110 q 757 484 757 330 q 646 749 757 639 q 377 859 534 859 q 109 749 220 859 m 377 9 q 38 148 178 9 q -103 484 -103 287 q 38 821 -103 681 q 377 959 178 959 q 716 821 576 959 q 857 484 857 681 q 716 148 857 287 q 377 9 576 9 m 386 420 q 463 468 401 431 q 539 518 512 497 q 386 614 414 595 q 227 515 313 572 q 306 467 250 503 q 386 420 355 436 m 597 473 q 650 428 642 437 q 496 327 581 385 q 386 418 481 337 q 330 373 364 402 q 275 327 292 340 q 196 377 248 342 q 117 428 144 412 q 225 515 130 439 q 171 559 211 529 q 119 606 136 587 q 270 707 261 700 l 277 707 q 386 616 336 653 q 439 661 401 631 q 491 707 473 690 l 496 707 q 650 606 576 652 q 572 538 621 577 q 544 518 546 518 q 597 473 544 515 m 542 302 q 463 256 513 286 q 386 209 408 222 q 306 255 355 224 q 227 302 249 290 l 227 337 q 250 323 236 333 q 273 309 265 313 q 332 355 293 321 q 389 397 368 388 q 441 352 406 380 q 494 307 478 321 l 542 337 l 542 302 z "},"F":{"ha":983,"x_min":-119,"x_max":861,"o":"m 482 701 l 482 616 q 481 616 482 616 l 454 616 q 438 616 444 616 q 423 616 429 616 q 411 612 416 614 q 406 601 408 608 q 405 587 405 595 q 406 572 405 582 q 406 558 406 563 q 406 549 406 553 q 434 547 416 547 q 452 548 439 547 l 481 548 q 482 547 482 548 q 479 505 481 525 q 475 467 477 485 l 408 466 q 406 374 406 429 l 406 230 q 405 229 406 229 l 303 229 l 303 466 l 252 466 l 252 548 l 301 548 q 303 610 302 555 q 313 660 304 644 q 361 695 327 686 q 435 702 386 702 l 455 702 l 482 701 m 96 747 q -17 477 -17 635 q 96 208 -17 319 q 370 96 210 96 q 644 208 531 96 q 758 477 758 319 q 644 747 758 635 q 370 860 531 860 q 96 747 210 860 m 370 -7 q 24 135 168 -7 q -119 477 -119 277 q 24 821 -119 679 q 370 962 168 962 q 717 821 573 962 q 861 477 861 679 q 717 135 861 277 q 370 -7 573 -7 z "},"G":{"ha":1003,"x_min":5,"x_max":972,"o":"m 218 751 q 106 485 106 641 q 218 218 106 329 q 489 107 330 107 q 760 218 647 107 q 871 485 871 329 q 760 751 871 641 q 489 863 647 863 q 218 751 330 863 m 489 6 q 146 146 288 6 q 5 485 5 286 q 146 824 5 684 q 489 964 288 964 q 831 824 689 964 q 972 485 972 684 q 831 146 972 286 q 489 6 689 6 m 791 468 l 746 465 q 741 418 746 454 l 692 418 l 688 463 q 642 468 677 463 l 642 517 l 686 522 q 692 567 686 532 l 741 567 l 745 522 q 791 517 755 522 l 791 468 m 579 517 q 580 494 580 506 q 534 359 580 408 q 418 313 491 313 q 384 315 402 313 q 285 366 328 323 q 235 468 241 410 q 233 494 233 481 q 324 644 233 592 q 414 671 370 671 q 526 627 471 671 q 479 581 509 597 q 420 607 452 605 q 408 608 414 608 q 302 506 312 608 q 300 484 300 494 q 384 378 300 396 q 421 374 404 374 q 513 454 496 374 l 507 453 q 414 458 488 453 l 414 517 l 579 517 z "},"H":{"ha":975,"x_min":11,"x_max":968,"o":"m 222 754 q 111 490 111 644 q 222 227 111 336 q 490 117 332 117 q 757 227 646 117 q 868 490 868 336 q 757 754 868 644 q 490 863 646 863 q 222 754 332 863 m 490 16 q 151 155 292 16 q 11 490 11 294 q 151 825 11 686 q 490 964 292 964 q 827 825 688 964 q 968 490 968 686 q 827 155 968 294 q 490 16 688 16 m 601 405 q 606 433 606 420 q 589 477 606 458 q 512 511 570 497 q 468 522 471 521 q 439 548 439 531 l 439 549 q 468 576 439 569 q 490 580 480 580 q 515 574 504 580 q 537 553 528 569 q 558 530 550 532 q 570 528 564 528 q 591 548 587 528 q 592 557 592 552 q 562 601 592 581 q 494 618 536 618 l 488 618 q 385 545 385 616 q 454 473 385 494 q 546 431 543 446 q 547 422 547 427 q 510 390 547 397 q 488 387 498 387 q 449 401 463 387 q 433 427 444 406 q 414 448 423 444 q 396 450 404 450 q 377 432 377 450 q 382 408 377 422 q 468 348 399 355 q 498 347 484 347 q 601 405 580 347 m 718 375 q 600 257 703 271 l 581 257 q 536 269 551 262 l 528 275 q 495 274 528 274 q 343 335 405 274 q 283 486 283 396 l 284 519 l 273 541 q 267 571 269 552 l 267 591 q 384 708 281 693 l 404 708 q 448 696 433 703 l 458 690 q 488 692 458 691 l 492 692 q 635 636 574 692 q 701 483 701 575 l 701 471 q 710 425 701 454 q 718 394 714 413 l 718 375 z "},"I":{"ha":982,"x_min":-231,"x_max":730,"o":"m -20 768 q -131 503 -130 659 q -20 239 -130 349 q 250 128 92 128 q 519 239 408 128 q 630 503 630 349 q 519 768 630 659 q 250 879 408 879 q -20 768 92 879 m 250 7 q -90 146 51 7 q -231 483 -231 286 q -90 820 -231 681 q 250 959 51 959 q 589 820 449 959 q 730 483 730 681 q 589 146 730 286 q 250 7 449 7 m 172 229 q 75 233 86 229 q 7 314 12 254 q 6 432 6 326 q 7 550 6 530 q 76 551 40 551 q 151 550 112 551 q 129 473 129 508 q 131 451 129 461 q 201 363 143 391 q 258 348 230 348 q 318 364 288 348 q 382 452 372 393 q 384 472 384 462 q 362 550 384 508 l 385 549 q 506 550 421 549 q 505 510 505 534 q 507 431 505 477 q 507 372 507 397 q 506 316 507 337 q 425 229 500 239 l 172 229 m 456 606 q 460 644 460 611 q 456 683 460 679 q 422 687 452 687 l 413 687 q 381 684 383 686 q 377 646 377 681 q 380 607 377 610 q 417 602 384 602 q 456 606 452 602 m 350 566 q 329 582 350 568 q 256 606 292 606 q 180 578 218 606 q 163 566 163 566 l 6 566 q 5 594 5 581 q 48 711 5 688 l 48 607 q 50 608 48 608 q 68 606 54 608 q 70 720 70 699 l 70 724 q 75 725 71 724 q 81 726 79 726 l 81 718 q 83 607 81 691 q 85 608 83 608 q 104 606 90 608 l 104 728 q 104 730 104 730 l 117 730 l 119 608 q 138 606 123 608 l 138 730 q 184 731 158 731 q 245 730 212 731 q 353 729 330 729 l 423 729 q 503 654 491 721 l 503 648 q 507 566 503 630 l 350 566 m 205 425 q 253 404 227 404 q 286 411 269 404 q 329 476 329 430 l 329 481 q 304 532 327 512 q 258 549 284 549 q 244 547 252 549 q 184 479 187 538 l 184 474 q 205 425 184 445 m 338 532 q 355 476 355 506 q 354 466 355 471 q 267 378 347 385 q 256 378 261 378 q 189 404 217 378 q 157 477 157 432 l 157 482 q 172 526 159 504 q 244 574 197 568 q 259 574 252 574 q 338 532 309 574 z "},"J":{"ha":978,"x_min":-260,"x_max":709,"o":"m -46 753 q -158 486 -158 643 q -46 219 -158 330 q 224 109 66 109 q 496 219 383 109 q 608 486 608 330 q 496 753 608 643 q 224 864 383 864 q -46 753 66 864 m 224 7 q -117 147 24 7 q -260 486 -260 288 q -117 825 -260 685 q 224 966 24 966 q 567 825 425 966 q 709 486 709 685 q 567 147 709 288 q 224 7 425 7 m 212 572 l 212 568 q 181 488 212 522 q 94 446 145 446 q 71 448 83 446 q -31 566 -31 464 l -31 572 q 23 669 -29 635 q 81 689 47 686 q 94 690 87 690 q 201 619 168 690 q 212 572 211 597 m 473 573 l 473 566 q 420 468 473 505 q 353 446 388 446 q 296 461 325 446 q 232 557 237 493 q 231 568 231 563 q 260 646 231 612 q 343 689 292 684 q 356 690 350 690 q 455 634 418 690 q 473 573 472 609 m 267 315 q 269 290 269 309 q 239 283 253 283 q 196 304 214 283 q 182 339 182 321 q 194 372 182 355 q 235 395 212 395 q 268 386 250 395 q 265 361 265 359 q 248 366 256 366 q 232 361 239 366 q 218 338 218 353 q 219 332 218 335 q 241 307 223 307 q 267 315 252 307 m 100 434 l 100 287 l 66 287 q 68 423 68 391 l 67 434 l 100 434 m 469 376 q 469 361 469 366 q 463 362 465 362 q 433 290 433 362 l 433 287 l 399 287 q 398 338 398 313 q 399 389 398 364 l 429 389 l 429 372 q 458 392 441 392 q 470 390 464 392 l 469 376 m 382 389 q 366 366 376 380 q 349 343 354 350 l 385 288 l 382 288 q 345 287 373 288 q 331 312 340 295 q 317 337 322 329 l 318 333 q 317 287 318 322 l 283 287 l 283 434 l 317 434 l 317 347 l 346 389 l 382 389 m 163 389 q 163 290 163 309 l 163 287 l 130 287 q 131 382 131 359 l 130 389 l 163 389 m 163 432 l 161 408 q 130 406 153 408 l 130 432 l 163 432 m 47 387 q 49 365 47 382 q 24 364 26 364 l 24 287 l -9 287 l -9 364 q -15 365 -12 365 l -29 365 l -29 389 l -10 389 l -10 397 q 27 437 -10 437 q 50 435 37 437 q 48 422 49 431 q 47 410 47 413 q 35 413 39 413 q 23 399 23 413 q 24 389 23 395 l 47 387 z "},"K":{"ha":971,"x_min":-118,"x_max":848,"o":"m 95 749 q -17 483 -17 639 q 95 217 -17 328 q 365 106 207 106 q 635 217 524 106 q 747 483 747 328 q 635 749 747 639 q 365 860 524 860 q 95 749 207 860 m 365 5 q 24 145 165 5 q -118 483 -118 285 q 24 821 -118 682 q 365 961 165 961 q 706 821 565 961 q 848 483 848 682 q 706 145 848 285 q 365 5 565 5 m 283 697 q 285 699 283 699 q 288 697 288 699 l 283 697 m 412 462 q 410 463 410 462 l 410 463 q 412 465 410 464 l 412 462 m 488 315 q 477 305 484 309 q 488 315 481 311 m 596 479 q 599 477 599 479 l 599 477 q 596 479 596 477 m 599 474 q 602 472 602 474 q 599 473 599 472 l 599 474 m 566 502 q 568 500 568 502 l 568 500 q 566 501 566 500 l 566 502 m 574 500 q 576 497 576 499 q 574 499 574 497 l 574 500 m 578 497 q 581 495 581 497 l 581 494 q 578 496 578 495 l 578 497 m 513 441 q 515 439 515 441 l 515 439 q 513 441 513 439 m 515 437 q 518 434 518 436 q 515 436 515 434 l 515 437 m 523 427 q 526 425 526 426 l 526 424 q 523 426 523 424 l 523 427 m 465 576 q 467 574 467 575 l 467 573 q 465 576 465 573 m 470 568 q 473 566 473 568 q 470 567 470 566 l 470 568 m 447 586 q 450 584 450 585 l 450 583 q 447 586 447 583 m 321 677 q 323 674 323 676 q 321 676 321 674 l 321 677 m 303 694 q 306 692 306 694 q 303 694 303 692 l 303 694 m 298 697 q 300 695 300 696 l 300 694 q 298 697 298 694 m 602 444 q 599 439 600 444 q 584 421 594 428 l 583 421 q 581 418 581 421 q 570 417 570 418 l 574 416 q 571 414 571 416 l 543 414 l 543 414 q 541 416 543 416 l 541 416 q 526 424 541 417 l 526 425 q 523 427 526 426 q 521 430 523 428 q 518 434 518 432 q 515 437 518 436 l 515 439 q 513 441 515 441 l 513 449 q 511 454 513 454 l 511 462 q 513 467 511 462 l 513 472 l 513 472 q 515 474 515 472 l 515 477 l 516 477 q 518 479 517 477 l 518 482 q 523 487 521 482 q 525 490 524 490 l 526 490 q 530 494 528 490 l 533 494 q 536 497 535 494 l 539 497 q 541 500 541 497 l 543 500 q 548 502 548 501 l 566 502 l 566 501 q 568 500 566 500 l 574 500 l 574 499 q 576 497 574 497 l 578 497 l 578 496 q 581 494 578 495 l 584 494 q 596 482 589 487 l 596 479 q 599 477 596 477 l 599 473 q 602 472 599 472 l 602 444 m 432 302 q 435 300 435 302 q 432 302 432 300 l 432 302 m 268 302 q 270 300 270 302 l 270 300 q 268 302 268 300 l 268 302 m 250 320 q 252 318 252 320 l 252 317 q 250 320 250 318 m 541 416 q 543 414 543 416 l 543 414 q 541 416 541 414 m 477 538 q 475 532 476 532 q 477 538 476 538 m 513 467 q 511 462 511 462 q 513 467 512 467 m 602 444 q 599 439 600 439 q 602 444 600 444 m 326 330 q 323 325 324 325 q 326 330 325 330 m 439 300 q 445 297 445 298 q 439 300 439 299 m 273 300 q 277 297 277 298 q 273 300 273 299 m 495 335 q 492 328 494 328 q 495 335 494 335 m 450 502 q 417 469 435 484 q 450 502 431 488 m 417 315 q 427 305 423 311 q 417 315 420 309 m 495 335 q 492 328 494 335 l 492 325 l 493 325 q 494 324 494 325 q 488 317 494 323 l 488 315 q 477 305 481 311 l 475 305 q 473 302 473 305 l 469 302 q 467 300 468 302 l 463 300 q 460 297 460 300 l 445 297 q 439 300 445 298 l 435 300 q 432 302 435 302 q 434 303 434 302 l 427 305 q 417 315 423 311 q 414 319 416 317 q 412 323 412 321 q 407 328 411 326 l 407 326 q 404 333 406 326 q 397 340 402 338 q 396 338 397 338 l 394 345 q 389 351 393 348 q 387 354 389 352 q 384 358 385 357 q 379 363 383 361 l 379 361 q 376 368 378 361 q 369 376 374 374 q 368 374 369 374 l 366 380 q 361 386 366 384 q 359 390 361 388 q 356 393 357 392 q 351 399 355 396 q 351 397 351 397 l 349 404 q 343 408 348 406 l 345 408 q 338 406 345 408 q 334 401 336 406 l 336 401 q 328 399 336 400 q 326 396 326 399 l 326 330 q 323 325 325 330 l 323 320 l 323 320 q 321 317 321 320 l 321 315 q 308 302 313 311 l 305 302 q 303 300 303 302 l 299 300 q 296 297 296 300 l 277 297 q 273 300 277 298 l 270 300 l 270 300 q 268 302 270 302 l 265 302 q 260 307 264 305 q 258 309 258 308 l 258 310 q 252 315 257 313 l 252 318 q 250 320 252 320 l 250 324 q 248 328 250 327 l 248 669 l 248 669 q 250 671 250 669 l 250 674 l 250 674 q 252 677 252 674 l 252 679 q 255 682 255 679 q 262 689 257 687 q 265 692 264 689 l 269 692 q 270 694 270 692 l 273 694 q 275 697 275 694 l 298 697 q 300 694 298 694 l 303 694 l 303 694 q 306 692 303 692 l 308 692 q 321 679 313 684 l 321 676 q 323 674 321 674 l 323 667 q 326 664 323 665 q 328 638 328 655 q 324 583 328 617 q 321 539 321 557 q 326 507 321 517 q 334 510 326 510 q 349 525 342 515 q 355 530 351 526 q 361 535 358 534 q 376 550 370 541 q 382 555 379 551 q 389 560 386 559 q 401 573 397 565 q 406 575 404 573 q 409 578 408 578 q 412 581 412 578 l 415 581 q 417 583 416 581 l 420 583 q 422 586 422 583 l 447 586 q 450 583 447 583 l 455 583 q 460 578 455 581 l 458 578 q 465 576 458 577 q 467 573 465 573 l 467 575 q 470 568 468 575 l 470 567 q 473 566 470 566 q 474 554 473 554 l 475 557 l 475 556 q 477 553 475 553 l 477 538 q 475 532 476 538 l 475 530 l 474 530 q 473 528 473 530 l 473 525 l 472 525 q 470 522 470 525 q 450 502 461 511 q 417 469 431 488 q 412 465 414 469 q 410 463 410 464 l 410 463 q 412 462 410 462 l 412 464 q 414 456 412 464 q 419 452 415 454 q 422 448 420 450 q 425 444 424 446 q 429 439 425 441 q 430 441 429 441 l 432 434 q 437 429 433 431 q 437 431 437 431 q 439 424 438 431 q 445 418 440 421 q 447 415 445 417 q 450 411 449 413 q 455 406 450 408 l 455 408 q 457 401 456 408 q 463 396 458 398 l 463 398 q 465 391 463 398 q 470 386 465 388 q 472 382 470 384 q 475 378 475 380 q 480 373 475 376 q 481 375 480 375 l 483 368 q 488 363 483 366 l 488 361 q 492 353 490 355 l 492 351 q 495 345 492 347 l 495 335 m 308 692 q 321 679 316 687 q 308 692 313 684 m 584 494 q 596 482 591 490 q 584 494 589 487 m 530 494 q 526 490 528 490 q 530 494 528 494 m 523 487 q 518 482 521 482 q 523 487 520 486 m 338 406 q 334 401 336 401 q 338 406 336 406 m 511 454 q 513 449 513 454 l 513 446 q 511 452 511 447 l 511 454 m 401 573 q 389 560 397 565 q 401 573 394 568 m 321 315 q 308 302 316 307 q 321 315 313 311 m 566 414 q 557 410 566 410 q 548 414 549 410 l 566 414 m 376 550 q 361 535 370 541 q 376 550 367 544 m 349 525 q 334 510 342 515 q 349 525 339 519 m 602 467 q 604 458 604 467 q 602 449 604 450 l 602 467 m 455 583 q 460 578 459 581 q 455 583 455 581 m 432 434 q 437 429 437 431 q 432 434 433 431 m 425 444 q 429 439 429 441 q 425 444 425 441 m 414 456 q 419 452 419 454 q 414 456 415 454 m 543 500 q 547 502 544 502 l 548 502 q 543 500 548 501 m 296 297 q 299 300 296 300 l 300 300 q 296 297 300 297 m 460 297 q 463 300 460 300 l 465 300 q 460 297 464 297 m 439 424 q 445 418 444 422 q 439 424 440 421 m 450 411 q 455 406 454 409 q 450 411 450 408 m 343 408 q 349 404 348 406 q 343 408 344 406 m 457 401 q 463 396 462 399 q 457 401 458 398 m 351 399 q 356 393 355 396 q 351 399 351 395 m 465 391 q 470 386 469 389 q 465 391 465 388 m 361 386 q 366 380 366 384 q 361 386 361 383 m 475 378 q 480 373 479 376 q 475 378 475 376 m 483 368 q 488 363 487 366 q 483 368 483 366 m 379 363 q 384 358 383 361 q 379 363 379 360 m 389 351 q 394 345 393 348 q 389 351 389 348 m 407 328 q 412 323 411 326 q 407 328 407 325 m 252 315 q 258 310 257 313 q 252 315 253 312 m 260 307 q 265 302 264 305 q 260 307 260 304 m 429 586 q 435 581 432 581 q 439 586 437 581 l 429 586 m 492 325 l 492 323 q 488 317 492 319 q 494 324 494 323 q 493 325 494 325 l 492 325 m 488 361 q 492 354 492 359 l 492 353 q 488 361 490 355 m 248 328 q 250 324 250 327 l 250 323 q 248 326 248 323 l 248 328 m 492 351 q 495 347 495 349 l 495 345 q 492 351 492 347 m 475 557 q 477 554 477 557 l 477 553 q 475 556 475 553 l 475 557 m 323 669 q 326 665 326 668 l 326 664 q 323 667 323 665 l 323 669 m 581 418 q 583 421 581 421 l 584 421 q 581 418 583 418 m 571 414 q 574 416 571 416 q 572 414 573 414 l 571 414 m 326 396 q 328 399 326 399 q 326 396 328 396 l 326 396 m 397 340 q 404 333 402 338 q 397 340 399 335 m 321 317 q 323 320 321 320 l 323 320 q 321 317 323 317 m 467 300 q 469 302 468 302 l 470 302 q 468 300 469 300 l 467 300 m 303 300 q 305 302 303 302 l 306 302 q 304 300 305 300 l 303 300 m 473 302 q 475 305 473 305 q 473 302 475 302 l 473 302 m 369 376 q 376 368 374 374 q 369 376 371 370 m 252 679 q 254 682 253 682 l 255 682 q 252 679 255 679 m 250 674 q 252 677 250 677 q 250 674 252 674 l 250 674 m 248 669 q 249 671 248 671 l 250 671 q 248 669 250 669 l 248 669 m 275 697 q 273 694 275 694 q 275 697 273 697 m 268 692 q 269 694 268 694 l 270 694 q 269 692 270 692 l 268 692 m 262 689 q 264 692 262 692 l 265 692 q 262 689 264 689 m 419 583 q 422 586 420 586 q 420 583 422 583 l 419 583 m 409 578 q 411 581 410 581 l 412 581 q 409 578 412 578 m 414 581 q 416 583 414 583 l 417 583 q 415 581 416 581 l 414 581 m 473 528 q 474 530 473 530 l 475 530 q 473 528 475 528 l 473 528 m 470 522 q 472 525 470 525 l 473 525 q 470 522 472 522 m 513 472 q 515 474 513 474 l 515 474 q 513 472 515 472 l 513 472 m 515 477 q 517 479 515 479 l 518 479 q 516 477 517 477 l 515 477 m 533 494 q 535 497 533 497 l 536 497 q 533 494 535 494 m 538 497 q 541 500 538 500 q 539 497 541 497 l 538 497 z "},"L":{"ha":977,"x_min":-92,"x_max":871,"o":"m 121 749 q 9 484 9 639 q 121 218 9 328 q 390 108 232 108 q 659 218 547 108 q 770 484 770 328 q 659 749 770 639 q 390 859 547 859 q 121 749 232 859 m 390 7 q 50 146 191 7 q -92 484 -92 286 q 50 821 -92 681 q 390 960 191 960 q 730 821 589 960 q 871 484 871 681 q 730 146 871 286 q 390 7 589 7 m 283 444 q 281 294 283 351 l 189 294 l 189 593 q 189 595 189 595 q 276 593 256 593 l 283 594 l 283 444 m 229 743 q 237 744 233 744 q 273 730 258 744 q 290 689 290 713 l 290 682 q 242 635 286 640 q 231 635 236 635 q 181 689 182 635 l 181 690 q 229 743 181 737 m 606 571 q 635 448 634 537 l 635 372 q 634 292 635 292 q 633 294 633 292 q 586 294 610 294 q 538 294 562 294 l 538 393 q 513 515 538 504 q 484 523 496 523 q 443 494 458 523 q 435 458 436 481 q 434 425 434 446 q 435 375 434 405 q 435 334 435 352 q 434 294 435 309 q 347 295 368 295 l 340 294 l 340 594 l 347 593 q 431 595 366 593 l 431 553 q 515 602 463 600 l 526 602 q 606 571 578 602 z "},"M":{"ha":983,"x_min":7,"x_max":972,"o":"m 220 752 q 109 486 109 642 q 220 220 109 331 q 490 110 332 110 q 760 220 648 110 q 871 486 871 331 q 760 752 871 642 q 490 863 648 863 q 220 752 332 863 m 490 9 q 149 149 290 9 q 7 486 7 288 q 149 824 7 684 q 488 963 290 963 l 492 963 q 830 824 690 963 q 972 486 972 684 q 830 149 972 288 q 490 9 689 9 m 560 715 q 576 716 568 716 q 644 640 644 716 l 644 635 q 583 565 642 565 q 551 569 568 565 q 496 631 496 582 q 498 648 496 640 q 560 715 507 710 m 276 629 q 317 675 276 675 l 323 675 q 369 630 369 671 l 369 627 q 332 584 366 584 q 308 588 321 584 q 276 629 276 597 m 414 687 q 438 690 427 690 q 485 633 483 690 l 485 628 q 444 578 485 578 q 416 582 431 578 q 378 634 380 591 l 378 641 q 414 687 378 678 m 547 550 q 574 553 562 553 q 669 469 649 553 q 675 311 675 437 l 675 266 l 666 267 q 468 262 625 267 l 468 355 l 359 355 l 359 356 q 356 403 359 363 l 260 403 l 260 524 q 312 573 262 564 q 330 574 321 574 q 375 543 365 574 q 429 567 394 567 q 444 566 436 567 q 500 524 491 560 q 547 550 544 549 z "},"N":{"ha":981,"x_min":32,"x_max":1003,"o":"m 245 751 q 134 484 134 640 q 245 216 134 327 q 517 104 358 104 q 789 216 677 104 q 901 484 901 327 q 789 751 901 640 q 517 863 677 863 q 245 751 358 863 m 517 3 q 174 144 317 3 q 32 484 32 284 q 174 823 32 683 q 517 964 317 964 q 861 823 719 964 q 1003 484 1003 683 q 861 144 1003 284 q 517 3 719 3 m 507 463 q 507 452 507 460 q 508 442 508 446 l 508 441 q 507 463 507 448 m 431 562 l 430 562 l 430 567 l 431 567 l 431 562 m 292 509 l 285 509 l 285 512 q 286 524 286 516 l 286 526 q 286 527 286 526 q 289 528 288 528 q 291 524 291 528 q 292 514 291 518 l 292 509 m 374 582 q 373 580 374 580 q 376 585 373 585 q 380 583 378 585 l 380 583 q 377 583 378 583 q 374 582 374 583 m 395 555 l 395 550 l 394 550 l 394 555 l 395 555 m 439 431 q 439 437 439 432 l 439 435 l 439 431 m 695 568 l 693 568 q 692 568 692 568 q 694 570 692 569 q 694 571 694 571 l 694 570 l 695 568 m 526 560 l 526 574 q 527 560 526 572 l 526 560 m 765 529 q 771 525 770 526 q 765 529 766 528 m 387 476 q 387 477 387 476 q 387 481 387 479 l 387 476 m 307 526 l 307 524 q 307 515 307 521 l 306 515 l 307 526 m 502 416 q 500 405 502 407 q 501 409 500 406 l 501 413 l 502 416 m 507 473 q 507 489 507 486 l 507 490 l 507 473 m 456 460 q 455 445 456 456 q 454 429 454 435 q 453 427 453 428 q 454 423 453 425 l 454 422 q 452 420 452 421 q 454 416 452 418 l 454 415 q 452 413 452 414 q 453 410 452 412 q 452 404 453 406 l 452 403 l 451 403 q 447 401 449 401 q 444 403 446 401 l 442 403 l 442 404 q 444 401 444 401 q 441 409 444 402 l 441 411 q 442 414 442 413 q 440 416 442 416 l 440 418 q 441 422 441 420 q 439 425 441 423 l 439 427 q 441 430 441 429 q 439 432 441 431 l 439 435 q 441 437 441 436 q 439 439 441 439 l 439 437 l 438 460 q 456 460 459 460 m 304 502 q 305 506 305 505 l 305 507 l 304 502 m 487 591 l 486 591 l 486 598 l 487 598 l 487 591 m 501 574 q 502 576 502 574 q 501 585 502 579 l 501 574 m 418 578 l 418 578 q 418 570 418 572 l 418 578 m 410 474 l 410 467 l 410 474 l 410 474 m 528 460 q 526 426 528 437 l 526 427 q 527 444 526 433 q 528 460 528 456 m 776 418 q 773 416 774 416 l 776 418 m 370 500 l 371 500 q 370 492 370 494 l 370 500 m 252 475 l 252 473 l 251 475 l 252 475 m 526 581 l 526 595 q 526 581 526 592 l 526 581 m 305 508 l 306 508 l 305 503 l 305 508 m 509 418 q 509 423 509 418 l 509 420 l 509 418 m 362 507 l 362 510 q 361 513 362 512 q 361 532 361 520 q 360 551 360 545 l 360 555 q 362 507 361 541 m 488 609 l 488 601 l 487 601 l 487 609 l 488 609 m 415 471 l 414 471 q 415 483 415 481 l 415 471 m 478 565 l 478 559 l 477 559 l 477 565 l 478 565 m 405 591 q 401 593 404 593 l 400 593 q 396 590 397 593 q 399 597 397 597 q 406 592 402 597 l 405 591 m 724 538 q 730 538 727 538 q 736 538 733 538 l 724 538 m 503 498 q 503 509 503 500 l 503 512 l 503 512 l 503 498 m 521 627 q 518 628 519 628 q 515 627 517 628 q 517 628 516 628 q 521 627 519 628 m 528 471 l 528 463 l 528 471 l 528 471 m 441 592 l 441 592 q 441 585 441 586 l 441 592 m 484 471 l 485 471 q 484 467 484 468 l 484 471 m 252 473 q 248 437 252 472 l 248 434 q 252 461 248 436 q 240 460 252 460 q 239 464 240 463 l 239 471 q 241 481 240 474 q 242 491 241 488 q 243 495 243 491 q 245 498 244 498 q 247 496 246 498 q 249 488 249 492 q 250 483 250 486 l 251 475 l 252 473 m 463 578 q 464 585 464 584 l 464 586 l 463 578 m 430 567 l 430 577 q 431 567 430 575 l 430 567 m 439 549 l 440 549 q 439 536 439 534 l 439 549 m 433 464 l 433 464 l 433 470 l 433 470 l 433 464 m 431 553 l 431 562 q 431 553 431 560 l 431 553 m 485 513 q 486 528 486 523 q 485 530 486 530 l 485 513 m 364 467 q 363 471 364 468 l 364 467 m 478 548 l 477 559 l 478 559 l 478 548 m 456 500 q 455 509 456 502 l 456 509 l 456 500 m 370 488 l 370 488 q 370 480 370 481 l 370 488 m 663 612 q 662 614 663 613 q 661 615 661 614 q 664 612 661 615 l 663 612 m 437 462 q 437 467 437 465 q 437 473 437 471 l 437 462 m 326 477 q 324 465 326 473 q 325 477 324 469 l 326 477 m 371 500 l 370 500 l 370 505 l 371 505 l 371 500 m 373 570 l 372 570 q 373 578 373 577 l 373 570 m 283 506 q 282 496 283 496 q 283 506 282 500 m 508 442 q 510 439 510 441 q 509 437 510 438 q 508 439 508 438 l 508 442 m 431 547 l 431 543 l 431 543 l 431 547 l 431 547 m 465 589 q 465 576 465 588 l 464 576 l 464 586 l 465 589 l 465 589 m 364 473 q 365 467 365 470 q 364 460 365 464 l 364 473 m 281 475 q 281 484 281 481 l 281 475 m 486 536 l 486 527 l 485 527 l 485 536 l 486 536 m 797 486 q 798 482 798 484 l 797 486 m 698 559 q 700 554 699 558 q 698 559 699 555 m 503 511 q 503 512 503 511 q 503 518 503 514 l 503 511 m 502 416 l 501 413 q 500 417 500 416 q 502 419 500 418 l 502 416 m 602 642 q 591 644 596 642 l 595 644 q 598 643 596 644 q 602 642 601 643 m 526 568 l 510 568 l 510 621 q 513 627 511 625 q 515 627 514 627 l 515 627 q 518 628 517 628 q 521 627 519 628 l 522 627 q 524 621 524 625 q 525 614 525 615 l 525 595 q 526 588 526 589 l 526 568 m 528 490 q 527 505 528 493 l 528 505 l 528 490 m 705 534 l 702 541 l 703 541 q 703 534 703 536 l 705 534 m 369 463 q 368 467 368 465 q 369 470 368 469 l 369 463 m 439 481 l 438 481 l 438 488 l 439 488 l 439 481 m 394 420 q 395 418 395 420 l 395 416 q 394 420 395 416 m 370 468 l 369 468 l 369 473 l 370 473 l 370 468 m 486 583 q 487 597 487 593 q 486 601 487 601 l 486 583 m 418 583 q 418 591 418 589 q 418 593 418 593 l 418 583 m 430 576 l 429 576 l 429 585 l 430 585 l 430 576 m 456 491 l 456 502 q 456 491 456 500 l 456 491 m 394 422 q 392 460 393 432 l 394 419 l 394 422 m 498 614 q 498 612 498 613 l 500 612 q 496 614 497 614 l 496 614 l 498 614 m 501 591 l 501 605 q 502 591 501 602 l 501 591 m 691 576 q 684 588 685 587 l 684 589 q 692 576 686 587 l 691 576 m 456 515 l 456 509 l 455 509 l 455 515 l 456 515 m 478 539 l 478 550 q 479 539 478 548 l 478 539 m 457 460 l 456 460 l 456 470 l 457 470 l 457 460 m 395 565 l 395 565 q 395 555 395 557 l 395 565 m 341 464 q 342 463 342 464 q 341 459 342 462 l 340 460 q 326 458 330 458 q 325 459 325 458 q 324 464 324 463 q 326 477 326 473 l 326 488 q 326 488 326 488 l 326 489 q 327 493 326 490 q 328 503 327 496 l 328 507 q 328 509 328 508 q 328 510 328 509 l 329 510 q 337 509 331 510 q 338 506 337 507 q 338 503 338 504 q 339 506 338 506 l 339 494 q 340 484 339 484 q 340 485 340 484 l 340 481 q 341 464 341 481 m 462 511 q 463 522 463 519 q 462 525 463 525 l 462 511 m 372 562 l 373 562 q 372 554 372 555 l 372 562 m 510 591 l 509 591 l 509 598 l 510 598 l 510 591 m 477 587 q 474 591 476 587 l 473 591 q 477 587 477 589 m 753 535 q 758 533 757 534 q 753 535 753 534 m 452 593 q 453 590 453 591 l 453 589 q 452 591 453 591 q 452 593 452 589 l 451 593 l 452 593 m 406 591 q 406 589 406 589 l 406 588 q 406 585 406 587 q 405 588 405 585 l 406 591 m 267 414 q 265 412 266 412 q 264 415 264 412 q 267 414 266 414 l 267 414 m 454 412 q 452 404 454 405 q 453 410 453 406 q 454 412 454 411 m 418 588 l 418 588 l 418 593 q 418 594 418 594 l 418 588 m 432 496 l 432 507 l 433 496 l 432 496 m 292 514 q 291 524 291 518 l 290 526 q 292 514 290 525 l 292 514 m 451 403 q 447 400 449 400 q 444 403 446 400 q 447 401 446 401 q 451 403 449 401 m 422 401 q 418 410 418 402 l 418 410 q 422 401 418 403 m 385 524 l 385 532 q 385 524 385 530 l 385 524 m 454 560 l 454 555 l 454 555 l 454 560 l 454 560 m 370 473 l 369 473 q 370 481 370 480 l 370 473 m 487 601 l 488 601 q 487 594 487 595 l 487 601 m 526 614 l 525 614 l 525 620 l 526 620 l 526 614 m 477 574 q 477 575 477 574 q 477 581 477 577 l 477 574 m 417 551 l 416 551 q 417 562 417 560 l 417 551 m 408 509 l 394 509 l 394 540 q 395 550 394 538 l 395 555 q 395 565 395 557 l 395 570 q 397 570 395 570 q 406 568 399 570 q 407 564 407 566 q 406 563 407 563 l 406 559 q 407 551 407 552 l 407 546 q 408 537 408 538 l 408 533 q 408 524 408 527 q 408 522 408 522 l 408 509 m 431 518 l 431 514 q 432 515 432 514 q 431 518 432 516 m 364 475 q 363 488 363 479 q 362 501 363 496 l 362 505 q 364 475 363 498 m 484 465 q 485 448 484 448 l 485 449 q 484 470 484 460 q 484 484 484 477 l 484 465 m 384 549 l 383 549 l 383 564 q 384 562 384 564 q 383 560 384 562 q 384 556 383 557 l 384 549 m 431 524 l 431 534 q 432 524 431 532 l 431 524 m 454 426 q 455 425 455 426 q 454 423 455 425 q 453 427 453 425 q 454 429 453 428 l 454 426 m 430 568 l 418 568 l 418 570 q 418 578 418 572 l 418 589 q 419 594 418 590 l 419 593 l 422 598 q 424 600 423 600 q 426 598 425 600 q 429 595 429 595 q 429 587 429 588 l 429 576 l 430 569 l 430 568 m 371 509 l 370 509 q 371 518 371 519 l 371 509 m 371 516 l 372 516 q 371 512 371 513 l 371 516 m 525 620 q 524 621 525 621 q 522 627 524 625 q 526 620 525 625 l 525 620 m 359 551 l 359 559 l 360 559 l 359 551 m 480 460 q 478 425 479 435 l 478 426 q 479 444 478 433 q 480 460 479 456 m 509 425 q 509 426 509 425 q 509 431 509 427 l 509 425 m 281 475 l 281 456 q 280 465 280 460 q 281 475 280 470 m 479 533 l 479 527 l 478 527 l 478 533 l 479 533 m 478 565 l 477 565 l 477 570 l 478 570 l 478 565 m 487 413 q 488 410 488 412 q 487 408 488 409 l 487 413 m 478 415 l 477 413 q 476 416 476 415 q 478 418 476 418 l 478 415 m 509 523 l 508 523 l 508 531 l 509 531 l 509 523 m 370 497 l 370 497 q 370 505 370 504 l 370 497 m 395 561 l 395 555 l 394 555 l 394 561 l 395 561 m 796 450 q 795 447 796 448 q 796 450 795 449 m 456 485 l 456 485 l 456 491 l 456 491 l 456 485 m 416 519 q 416 531 416 528 l 416 532 l 416 519 m 295 486 q 292 514 295 486 q 290 526 290 525 l 291 524 q 289 528 291 528 q 286 527 288 528 q 288 528 287 528 q 290 528 289 528 q 295 486 290 527 m 526 614 l 526 608 l 525 608 l 525 614 l 526 614 m 386 497 q 385 503 385 499 q 385 509 385 508 q 384 529 385 515 q 383 549 384 542 l 384 549 l 384 542 q 385 535 385 537 q 385 532 385 533 q 385 530 385 530 l 385 524 q 385 520 385 521 l 385 513 l 386 509 l 386 497 m 347 475 l 347 471 q 347 467 347 468 l 347 475 l 347 475 m 394 547 q 395 555 395 553 q 394 557 395 557 l 394 547 m 264 514 q 265 512 265 513 q 264 509 265 511 l 263 511 l 263 506 l 262 506 l 264 514 m 477 570 l 477 581 q 478 570 477 579 l 477 570 m 528 460 l 508 460 q 507 463 508 463 l 507 486 q 508 500 507 489 l 508 507 l 509 509 l 527 509 l 527 505 q 528 490 528 493 l 528 471 l 528 463 l 528 460 m 479 533 l 478 533 l 478 539 l 479 539 l 479 533 m 510 598 l 509 598 l 509 606 l 510 606 l 510 598 m 526 573 l 526 566 l 526 566 l 526 573 l 526 573 m 372 412 q 373 414 373 412 q 372 417 373 415 l 372 412 m 416 503 l 415 503 q 416 515 416 512 l 416 503 m 454 575 l 454 570 l 453 570 l 453 575 l 454 575 m 535 403 q 537 401 536 402 q 535 402 536 402 l 535 403 m 387 488 l 386 488 l 386 492 l 387 492 l 387 488 m 328 503 q 327 493 327 496 l 326 493 q 327 503 326 498 l 328 503 m 452 593 l 451 593 l 452 593 q 446 599 448 599 q 441 592 443 599 l 441 592 q 446 595 441 595 l 448 595 q 452 593 451 595 m 406 576 l 406 576 l 406 585 q 406 588 406 587 l 406 576 m 454 423 q 455 425 455 425 q 454 426 455 426 l 454 423 m 406 563 q 407 564 407 563 q 406 568 407 566 l 406 563 m 504 498 l 504 490 l 503 490 l 503 498 l 504 498 m 509 523 l 509 509 l 508 507 l 508 523 l 509 523 m 395 408 q 395 414 395 408 l 395 411 l 395 408 m 370 488 l 370 488 l 370 492 l 370 492 l 370 488 m 486 543 l 486 526 l 486 526 l 486 543 l 486 543 m 380 401 q 378 400 378 400 q 375 402 376 400 q 380 401 376 401 m 463 515 l 462 515 l 462 522 l 463 522 l 463 515 m 393 532 q 394 543 394 541 l 393 532 m 339 494 q 340 485 340 491 q 340 484 340 484 q 339 494 339 484 m 509 539 l 509 531 l 508 531 l 508 539 l 509 539 m 416 428 q 414 463 416 439 l 415 463 q 416 446 415 458 q 416 429 416 436 l 416 428 m 503 424 l 502 422 q 500 425 500 424 q 503 427 500 427 l 503 424 m 430 585 l 429 585 l 429 594 q 430 591 429 593 l 430 585 m 504 476 q 503 490 504 474 l 504 490 l 504 476 m 371 509 l 371 512 q 372 516 371 513 q 372 533 372 522 l 372 554 q 373 562 372 555 l 373 568 l 382 568 q 383 564 383 563 l 383 549 q 384 529 384 542 q 385 509 385 515 l 371 509 m 478 420 l 479 422 q 478 422 479 422 l 478 420 m 439 439 q 441 437 441 439 q 439 435 441 436 l 439 437 l 439 439 m 798 479 q 799 467 799 470 l 799 465 q 798 465 798 465 q 798 460 798 463 q 665 460 747 460 l 532 460 l 532 463 l 532 511 q 546 509 533 509 l 785 509 l 784 509 q 783 513 783 509 q 784 512 782 513 q 787 508 785 510 l 790 503 q 791 500 791 503 q 793 496 793 498 q 797 486 796 492 l 798 482 q 798 479 798 481 m 454 545 q 454 555 454 547 l 454 555 l 454 545 m 480 460 q 479 444 479 456 q 478 426 478 433 q 477 424 477 425 q 478 420 477 422 l 478 418 q 476 416 476 418 q 477 413 476 415 q 476 404 476 405 q 475 406 476 406 l 475 402 l 474 402 l 467 403 l 465 405 l 464 406 q 465 410 465 409 q 463 414 465 413 l 463 416 q 465 419 465 418 q 463 422 465 421 l 463 424 q 465 427 465 426 q 463 430 465 429 l 463 433 q 464 435 464 434 q 462 439 464 437 l 462 435 l 461 460 l 462 460 l 479 460 q 480 460 479 460 m 387 463 q 382 404 382 403 q 387 463 382 404 l 387 463 m 433 476 l 433 470 l 433 470 l 433 476 l 433 476 m 251 475 l 250 483 q 252 475 251 480 l 251 475 m 526 416 q 526 416 526 416 l 526 414 q 524 418 524 416 q 526 420 524 419 l 526 416 m 526 414 l 526 416 q 526 416 526 416 q 524 406 526 408 q 525 410 525 408 l 526 414 m 463 429 q 462 435 463 430 l 463 433 l 463 429 m 433 477 q 432 485 433 478 l 433 485 l 433 477 m 372 418 q 369 462 371 431 l 370 462 q 371 441 370 456 q 372 420 372 428 l 372 418 m 416 507 q 416 496 416 498 l 416 496 l 416 507 m 385 520 q 385 524 385 521 l 385 524 l 385 520 m 510 606 l 509 606 l 510 621 l 510 606 m 416 491 l 415 491 l 415 497 l 416 497 l 416 491 m 527 553 l 527 545 l 526 545 l 526 553 l 527 553 m 441 572 l 441 566 l 440 566 l 440 572 l 441 572 m 643 627 q 640 629 641 627 q 643 627 642 629 m 262 497 q 261 493 262 493 l 261 497 l 262 497 m 604 642 q 612 640 608 642 q 604 642 608 641 m 361 513 q 362 510 362 512 l 362 501 q 361 512 361 507 l 361 513 m 432 504 q 431 509 432 505 l 431 514 l 432 514 l 432 504 m 551 640 q 556 641 553 641 q 551 640 554 640 m 324 459 l 324 464 q 325 459 324 463 l 324 459 m 528 491 l 528 484 l 528 484 l 528 491 l 528 491 m 362 501 q 363 488 363 496 q 363 475 363 479 l 363 471 q 362 501 363 478 m 364 460 q 363 449 364 456 l 363 449 q 363 459 363 458 q 364 464 364 463 l 364 460 m 781 516 q 780 517 780 516 l 779 517 q 775 521 779 519 q 773 524 775 523 q 781 516 779 520 m 371 509 l 371 505 l 370 505 l 370 509 l 371 509 m 438 470 l 439 470 q 438 463 438 464 l 438 470 m 393 490 l 393 484 l 392 484 l 392 490 l 393 490 m 460 463 q 460 467 460 465 q 460 471 460 469 l 460 463 m 480 463 q 479 469 480 465 l 480 463 m 382 568 l 373 568 l 373 573 l 374 580 q 377 583 374 583 q 380 583 378 583 q 381 582 381 583 q 382 580 382 581 l 382 574 q 382 569 382 570 l 382 568 m 407 551 q 406 559 407 552 l 407 559 l 407 551 m 351 553 q 349 514 350 538 q 347 475 348 488 l 347 475 q 351 555 349 536 l 351 553 m 432 519 l 432 514 l 431 514 l 431 519 l 432 519 m 393 507 l 393 507 q 393 497 393 496 l 393 507 m 502 583 l 502 576 l 501 576 l 501 583 l 502 583 m 439 515 l 439 515 l 439 521 l 439 521 l 439 515 m 393 518 l 393 518 q 393 528 393 526 l 393 518 m 486 550 l 486 543 l 486 543 l 486 551 l 486 550 m 351 404 q 347 459 351 409 l 347 459 q 349 431 348 450 q 351 404 351 414 m 528 511 l 527 511 l 527 519 l 528 519 l 528 511 m 477 568 l 465 568 l 465 576 q 465 589 465 588 q 467 589 466 589 q 468 591 467 590 l 474 591 q 477 587 476 587 l 477 581 q 477 575 477 577 q 477 574 477 574 l 477 568 m 382 580 q 382 574 382 581 l 382 580 m 509 427 q 511 424 511 426 q 509 420 511 422 l 509 423 l 509 427 m 463 515 l 463 509 q 462 504 462 505 l 462 515 l 463 515 m 433 491 l 432 491 l 432 496 l 433 496 l 433 491 m 755 406 q 748 404 752 404 q 755 406 752 405 m 408 517 l 408 526 q 409 517 408 524 l 408 517 m 461 475 l 460 475 q 461 488 461 486 l 461 475 m 454 566 l 454 576 q 454 566 454 574 l 454 566 m 462 439 q 464 435 464 437 q 463 433 464 434 l 462 435 l 462 439 m 327 429 q 330 403 329 408 q 328 418 329 404 q 324 459 326 444 l 325 459 q 326 444 326 454 q 327 429 327 433 m 441 409 q 444 401 444 402 q 442 404 444 401 q 441 406 441 404 l 441 409 m 508 517 l 508 509 l 507 509 l 507 517 l 508 517 m 304 502 q 303 481 304 489 q 304 502 304 494 m 341 460 q 336 404 338 417 q 338 431 337 412 q 341 459 340 449 q 342 463 342 462 q 341 464 342 464 l 341 460 m 395 405 q 401 401 397 401 l 403 401 q 399 401 401 401 q 395 405 396 401 m 486 536 l 485 536 q 486 553 486 550 l 486 536 m 418 567 l 418 561 l 417 561 l 417 567 l 418 567 m 326 486 l 326 477 l 325 477 q 326 486 325 484 m 672 604 q 680 595 673 603 q 676 600 678 596 q 672 604 673 603 m 409 499 q 408 507 409 501 l 409 507 l 409 499 m 454 527 q 455 530 455 527 q 454 541 455 533 l 454 527 m 326 493 l 327 493 q 326 489 326 490 l 326 493 m 783 513 q 784 509 783 509 l 785 509 l 546 509 q 532 511 533 509 l 532 574 q 532 568 532 575 l 694 568 q 691 578 692 578 l 691 576 l 692 576 q 694 570 694 572 q 692 568 692 569 q 693 568 692 568 l 695 568 l 696 566 q 696 562 696 564 q 698 559 698 560 q 700 554 699 555 q 701 550 701 551 q 702 541 701 547 l 705 534 l 706 534 q 724 538 719 538 l 732 538 l 749 536 q 753 535 750 536 q 758 533 753 534 q 765 529 761 532 q 771 525 766 528 q 773 524 772 525 q 775 521 775 523 q 780 515 778 518 l 783 513 m 513 627 q 510 621 511 625 q 513 627 510 625 m 329 521 l 328 510 q 328 509 328 509 q 328 507 328 508 l 328 503 l 327 503 q 329 523 328 519 l 329 521 m 410 474 l 410 474 l 410 479 l 410 479 l 410 474 m 526 573 l 526 573 l 526 581 l 526 581 l 526 573 m 373 566 l 373 562 l 372 562 l 372 566 l 373 566 m 453 568 q 454 570 454 568 q 453 576 454 572 l 453 568 m 431 509 l 416 509 l 416 526 q 417 540 416 529 l 417 545 q 418 556 417 547 l 418 568 l 430 568 q 431 563 431 565 q 430 562 431 562 l 430 557 q 431 547 431 549 l 431 543 l 431 530 l 431 518 q 432 515 432 516 q 431 514 432 514 l 431 509 m 461 460 l 462 435 l 462 437 q 460 460 461 442 l 461 460 m 318 474 q 317 486 318 477 q 317 497 317 492 q 319 474 317 492 l 318 474 m 790 503 q 793 496 792 501 q 791 500 793 498 q 790 503 791 503 m 463 412 q 464 413 464 412 q 463 418 464 415 l 463 412 m 495 401 q 492 401 493 401 q 487 406 488 401 l 487 407 q 494 401 489 401 l 495 401 m 415 488 q 416 498 416 494 q 415 500 416 500 l 415 488 m 373 409 l 373 404 q 372 411 372 406 l 373 409 m 485 439 q 486 441 486 439 q 485 446 486 442 l 485 439 m 371 534 l 372 534 q 371 529 371 530 l 371 534 m 503 528 l 503 543 q 503 528 503 540 l 503 528 m 410 476 q 411 469 411 473 q 410 460 411 465 l 410 476 m 419 594 q 418 589 418 590 l 419 594 m 337 509 q 329 510 331 510 l 328 510 q 329 519 329 516 l 329 523 q 332 526 329 525 q 336 524 334 526 l 336 515 l 337 509 m 696 562 q 698 559 698 560 q 696 562 698 560 m 528 511 l 528 505 l 527 505 l 527 511 l 528 511 m 503 509 l 486 509 l 486 521 q 486 526 486 522 l 486 576 l 487 576 l 487 568 l 501 568 q 502 563 502 564 l 502 555 l 503 539 l 503 518 q 503 512 503 514 q 503 511 503 511 l 503 509 m 665 612 q 671 606 669 609 q 665 612 668 608 m 486 432 q 487 429 487 431 q 486 425 487 427 q 486 428 486 427 l 486 432 m 526 588 q 525 595 526 589 l 526 595 l 526 588 m 487 598 l 486 598 l 486 600 q 487 608 487 607 l 487 598 m 407 564 l 407 564 q 408 555 407 562 l 407 564 m 509 434 q 511 432 511 433 q 509 429 511 431 l 509 434 m 463 534 l 463 534 l 463 540 l 463 540 l 463 534 m 479 511 q 478 515 479 512 l 479 515 l 479 511 m 329 521 l 329 519 q 328 510 329 516 l 328 510 l 329 521 m 372 534 l 371 534 q 372 542 372 541 l 372 534 m 393 477 l 392 477 l 392 484 l 393 484 l 393 477 m 440 416 q 442 414 442 416 q 441 411 442 413 l 440 413 l 440 416 m 430 569 l 429 576 l 430 576 l 430 569 m 502 585 l 502 585 q 503 570 502 582 l 502 585 m 372 414 q 375 412 375 414 q 373 409 375 411 l 372 411 l 372 414 m 395 570 l 395 570 l 395 574 l 395 574 l 395 570 m 441 568 l 441 585 q 441 592 441 586 q 446 599 443 599 q 452 593 448 599 l 452 591 q 453 587 453 587 l 453 576 q 454 570 454 572 q 453 568 454 568 l 441 568 m 527 509 l 509 509 l 509 553 q 509 568 509 556 l 509 576 l 510 576 l 510 568 l 526 568 l 526 566 q 526 553 526 555 l 526 545 q 527 529 527 532 l 527 509 m 439 515 l 439 509 q 439 504 439 505 l 439 515 l 439 515 m 467 402 l 474 402 q 471 400 473 400 q 467 401 469 400 l 467 402 m 486 519 l 485 519 l 485 527 l 486 527 l 486 519 m 528 474 q 529 468 529 471 q 528 462 529 465 l 528 474 m 462 469 q 461 463 461 465 l 462 469 m 441 578 l 440 578 q 441 589 441 587 l 441 578 m 454 509 l 439 509 l 439 536 q 440 549 439 534 l 440 555 q 441 566 440 557 l 441 568 l 453 568 q 454 561 454 562 l 454 555 q 454 545 454 547 l 454 541 q 455 530 455 533 q 454 527 455 527 l 454 509 m 431 562 l 431 557 l 430 557 l 430 562 l 431 562 m 370 497 l 370 492 l 370 492 l 370 497 l 370 497 m 492 614 l 492 614 q 494 615 493 615 q 496 614 495 615 l 492 614 m 416 429 q 418 427 418 429 q 417 425 418 426 q 416 426 417 426 l 416 429 m 372 546 l 372 546 q 372 555 372 556 l 372 546 m 430 562 q 431 563 431 562 q 430 568 431 565 l 430 562 m 259 473 q 260 480 259 478 l 259 473 m 268 517 q 269 515 268 516 l 269 509 l 264 509 q 265 512 265 511 q 264 514 265 513 q 267 517 264 517 l 268 517 l 268 517 m 326 488 q 326 488 326 488 q 326 491 326 490 l 326 488 m 337 515 q 338 506 338 509 q 337 509 337 507 l 337 515 m 433 476 l 433 476 l 433 482 l 433 482 l 433 476 m 415 471 l 415 463 l 414 463 l 414 471 l 415 471 m 416 426 q 417 425 417 426 l 417 421 q 416 426 417 422 m 431 530 l 431 543 l 431 543 l 431 530 m 340 480 q 342 465 342 471 q 341 460 342 462 l 341 464 q 340 481 341 481 l 340 480 m 456 485 l 456 479 l 456 479 l 456 485 l 456 485 m 456 471 q 456 479 456 473 l 456 479 l 456 471 m 306 513 l 306 508 l 305 508 q 306 513 305 510 m 433 482 l 433 492 q 433 482 433 490 l 433 482 m 454 560 l 454 560 l 454 566 l 454 566 l 454 560 m 454 561 q 453 568 454 562 l 453 570 l 454 570 l 454 561 m 440 416 q 439 421 440 416 l 440 418 l 440 416 m 438 477 l 438 470 l 437 470 l 437 477 l 438 477 m 439 511 q 439 521 439 518 q 439 523 439 523 l 439 511 m 479 515 l 478 515 l 478 527 l 479 527 l 479 515 m 486 519 l 486 509 l 485 502 l 485 519 l 486 519 m 392 469 l 393 469 q 392 463 392 465 l 392 469 m 387 466 q 386 483 387 470 l 387 483 l 387 481 q 387 477 387 479 q 387 476 387 476 l 387 466 m 502 422 l 503 424 q 502 418 502 419 l 502 422 m 268 517 l 267 517 q 264 514 264 517 l 262 506 q 263 505 263 506 l 262 505 q 268 518 265 518 l 268 517 m 439 528 l 439 528 q 439 540 439 537 l 439 528 m 500 404 q 496 401 499 401 q 500 404 499 404 m 452 591 q 453 589 453 591 l 453 587 q 452 591 453 587 m 528 500 l 528 514 q 528 500 528 511 l 528 500 m 438 460 l 437 460 l 437 470 l 438 470 l 438 460 m 418 415 q 420 414 420 415 q 418 410 420 412 l 418 415 m 313 528 q 314 521 314 528 l 314 518 q 313 524 313 519 l 313 528 m 288 405 q 283 429 285 405 q 281 456 281 448 l 281 458 q 285 416 282 446 q 288 405 286 406 q 292 417 291 406 q 294 439 293 424 q 296 462 296 454 q 297 469 297 467 q 292 418 297 464 q 288 405 291 405 m 503 507 l 503 522 q 504 507 503 519 l 503 507 m 528 460 q 527 444 528 456 q 526 427 526 433 q 524 425 524 426 q 526 422 524 423 l 526 420 q 524 418 524 419 q 526 414 524 416 l 525 410 q 524 406 525 408 q 522 403 524 403 q 515 401 518 401 q 510 410 510 401 l 510 412 q 511 416 511 414 q 509 418 511 418 l 509 420 q 511 424 511 422 q 509 427 511 426 l 509 429 q 511 432 511 431 q 509 434 511 433 l 509 437 q 510 439 510 438 q 508 442 510 441 q 507 452 508 446 l 507 463 q 508 460 508 463 l 528 460 m 527 553 l 526 553 l 526 560 l 527 560 l 527 553 m 431 547 l 431 547 l 431 553 l 431 553 l 431 547 m 485 471 l 484 471 l 484 480 l 485 480 l 485 471 m 372 546 l 372 546 q 372 541 372 543 l 372 546 m 410 458 q 406 412 408 421 l 406 410 l 410 458 l 410 458 m 507 463 q 507 462 507 462 l 507 463 q 507 473 507 466 l 507 463 m 509 583 q 509 600 509 596 l 509 600 l 509 583 m 463 529 l 462 529 q 463 541 463 539 l 463 529 m 302 463 q 301 465 301 464 q 302 469 301 467 l 302 463 m 454 412 q 453 410 454 411 q 452 413 452 412 q 454 415 452 414 l 454 412 m 385 530 q 385 532 385 530 q 385 535 385 533 l 385 530 m 526 424 q 526 422 526 423 q 524 425 524 423 q 526 427 524 426 l 526 424 m 473 591 l 468 591 q 467 589 467 590 q 465 589 466 589 q 469 593 467 593 q 473 591 471 593 m 501 574 q 502 575 501 575 l 502 574 q 501 568 502 573 l 487 568 l 487 594 q 488 601 487 595 l 488 609 q 492 614 490 614 l 496 614 l 496 614 q 500 612 497 614 l 500 608 q 500 610 500 608 q 501 602 501 603 l 501 585 q 502 576 502 579 q 501 574 502 574 m 485 490 l 485 480 l 484 480 l 484 490 l 485 490 m 395 574 l 395 574 q 395 585 395 583 l 395 574 m 407 563 l 406 563 l 406 568 l 407 568 l 407 563 m 485 490 l 484 490 q 485 506 485 503 l 485 490 m 341 459 q 338 431 340 449 q 336 404 337 412 q 334 399 336 399 q 330 403 333 399 q 327 429 329 408 q 326 444 327 433 q 325 459 326 454 q 326 458 325 458 q 340 460 330 458 l 341 459 m 338 503 q 338 506 338 504 q 337 515 338 509 l 337 517 q 338 503 338 512 l 338 503 m 454 416 l 454 418 q 454 414 454 415 l 454 416 m 406 408 q 405 404 406 405 l 406 409 l 406 408 m 504 481 q 505 470 505 475 q 504 459 505 465 l 504 481 m 671 606 q 672 604 671 606 q 664 612 667 608 l 665 612 q 671 606 668 608 m 479 509 l 463 509 l 463 516 q 463 521 463 517 l 463 558 q 464 570 463 560 l 464 576 l 465 576 l 465 568 l 477 568 q 477 565 477 566 l 477 559 l 478 548 l 478 543 q 479 532 479 536 q 478 530 479 530 l 478 515 q 479 511 479 512 l 479 509 m 467 403 l 467 401 q 465 405 465 403 l 467 403 m 415 491 l 416 491 q 415 481 415 483 l 415 491 m 416 503 l 416 497 l 415 497 l 415 503 l 416 503 m 409 501 l 409 500 q 410 492 409 499 l 409 501 m 454 575 l 453 575 l 453 581 l 454 581 l 454 575 m 406 568 q 397 570 399 570 q 395 570 395 570 l 395 578 q 396 585 395 578 l 396 590 q 400 593 397 593 l 401 593 q 405 591 404 593 l 405 588 q 406 585 405 585 l 406 576 q 406 570 406 571 l 406 568 m 383 574 l 383 564 q 382 568 383 563 l 382 574 l 383 574 m 735 401 q 741 402 737 401 q 747 403 745 403 q 733 401 741 401 l 735 401 m 422 598 l 419 593 l 419 594 l 418 594 q 422 598 419 597 m 407 563 l 407 559 l 406 559 l 406 563 l 407 563 m 314 509 l 307 509 l 307 515 q 307 524 307 521 l 307 526 q 307 528 307 527 q 309 530 307 530 l 309 530 q 312 532 311 532 q 313 528 313 532 l 313 524 q 314 518 313 519 q 315 515 315 516 q 314 513 315 513 l 314 509 m 464 570 q 463 558 463 560 l 463 557 l 464 570 m 252 461 q 248 434 248 436 l 248 437 q 245 432 247 432 q 241 444 243 432 l 240 460 l 240 460 q 252 461 252 460 m 258 463 q 257 465 257 464 q 258 468 257 467 l 258 463 m 503 519 l 503 512 l 503 512 l 503 519 l 503 519 m 394 550 l 395 550 q 394 540 394 538 l 394 550 m 440 561 l 440 555 l 439 555 l 439 561 l 440 561 m 532 509 q 532 611 532 581 q 532 633 532 633 l 532 509 m 284 509 l 284 512 l 285 512 l 285 509 l 292 509 l 292 514 l 292 514 q 295 486 295 486 q 297 469 296 478 q 296 462 297 467 q 297 457 297 458 q 296 460 296 457 l 281 460 l 281 475 l 281 484 l 281 486 l 282 486 l 282 496 q 283 506 283 496 l 284 509 m 439 422 q 440 424 440 422 q 439 429 440 425 l 439 422 m 258 468 q 259 473 258 471 l 259 459 l 258 463 l 258 468 m 336 515 l 336 522 l 337 522 q 336 520 337 521 q 337 519 336 519 l 336 515 m 416 540 l 417 540 q 416 526 416 529 l 416 540 m 457 460 q 454 427 456 435 l 454 429 q 455 445 454 435 q 456 460 456 456 l 457 460 m 793 442 q 790 436 792 439 q 793 442 791 439 m 461 494 q 462 506 462 504 l 462 507 l 461 494 m 479 507 l 479 519 l 479 507 l 479 507 m 433 464 q 430 414 431 425 l 430 412 l 433 464 m 781 423 q 777 418 779 421 l 776 419 q 781 424 779 421 l 781 423 m 430 411 q 428 414 428 413 q 430 416 428 416 l 430 411 m 574 644 q 563 642 570 643 q 566 643 564 643 q 570 644 569 644 l 574 644 m 783 513 q 787 508 784 513 q 784 512 785 510 q 783 513 784 511 m 394 423 q 397 422 397 422 q 395 418 397 420 q 394 420 395 420 l 394 423 m 541 401 q 638 402 589 402 q 735 401 687 402 l 541 401 m 486 559 l 486 559 q 486 576 486 574 l 486 559 m 503 519 l 503 519 l 503 528 l 503 528 l 503 519 m 347 465 q 347 459 347 463 l 347 459 l 347 465 m 454 418 l 454 416 q 452 420 452 418 q 454 422 452 421 l 454 418 m 406 409 q 404 412 404 412 q 406 414 404 414 l 406 409 m 438 460 l 439 437 l 439 438 q 437 460 438 444 l 438 460 m 418 414 l 417 419 q 418 417 417 418 l 418 414 m 524 621 q 525 620 525 621 l 525 614 q 524 621 525 615 m 395 585 q 396 589 396 588 q 395 590 396 590 l 395 585 m 479 500 q 479 502 479 500 q 479 509 479 504 l 479 500 m 417 556 l 418 556 q 417 545 417 547 l 417 556 m 509 568 q 509 553 509 556 l 509 553 l 509 568 m 532 409 l 533 405 q 531 434 531 408 l 531 575 q 532 631 531 624 l 532 633 q 532 611 532 633 q 532 509 532 581 l 532 409 m 433 491 l 433 485 l 432 485 l 432 491 l 433 491 m 361 512 l 361 512 q 360 531 361 519 q 359 551 359 545 q 361 532 360 545 q 361 513 361 520 l 361 512 m 315 515 q 314 518 315 516 l 314 521 q 315 516 314 522 l 315 515 m 373 570 l 373 566 l 372 566 l 372 570 l 373 570 m 478 530 q 479 532 479 530 q 478 543 479 536 l 478 530 m 486 559 l 486 551 l 486 551 l 486 559 l 486 559 m 485 441 q 487 438 487 439 q 486 435 487 437 l 485 437 l 485 441 m 456 484 q 456 486 456 484 q 456 495 456 489 l 456 484 m 463 422 q 465 419 465 421 q 463 416 465 418 l 463 422 m 395 561 l 394 561 q 395 570 395 568 l 395 561 m 387 470 l 387 478 q 387 470 387 479 l 387 470 m 527 519 l 527 534 q 528 519 527 532 l 527 519 m 315 511 l 315 515 q 315 513 315 515 l 315 516 q 315 511 315 515 m 439 528 l 439 521 l 439 521 l 439 528 l 439 528 m 315 513 l 314 513 q 315 515 315 513 q 314 518 315 516 q 315 515 315 516 l 315 513 m 503 432 q 503 431 503 432 l 503 430 q 501 433 501 432 q 503 436 501 435 l 503 432 m 625 636 q 628 635 627 636 q 625 636 625 635 m 463 420 l 463 427 q 463 424 463 426 l 463 420 m 684 588 q 681 593 682 590 q 684 589 683 592 l 684 588 m 395 416 q 397 414 397 416 q 395 411 397 413 l 395 414 l 395 416 m 456 476 l 456 487 q 457 476 456 485 l 456 476 m 463 534 l 463 521 l 463 521 l 463 534 l 463 534 m 386 509 l 385 513 l 386 513 l 386 509 m 393 518 l 393 512 l 393 512 l 393 518 l 393 518 m 308 404 q 310 403 309 403 q 312 404 311 403 q 310 402 311 402 q 307 404 309 402 q 302 457 304 434 l 302 458 q 305 431 304 450 q 308 404 307 414 m 510 591 l 510 576 l 509 576 l 509 591 l 510 591 m 408 536 l 408 537 q 407 546 408 538 l 408 536 m 387 470 l 387 463 l 387 463 l 387 470 l 387 470 m 432 519 l 431 519 l 431 524 l 432 524 l 432 519 m 418 567 l 417 567 l 418 578 l 418 567 m 385 535 q 384 542 385 537 l 384 554 q 385 535 385 549 m 510 412 l 510 410 q 515 401 510 401 q 522 403 518 401 q 513 400 517 400 q 509 408 509 400 q 509 415 509 411 l 510 412 m 479 501 l 479 495 l 479 495 l 479 501 l 479 501 m 410 458 l 406 410 l 406 414 q 404 412 404 414 q 406 409 404 412 l 405 404 q 403 401 405 402 l 401 401 q 395 405 397 401 l 395 411 q 397 414 397 413 q 395 416 397 416 l 395 418 q 397 422 397 420 q 394 423 397 422 l 394 419 l 392 460 l 393 460 q 408 458 404 458 q 410 459 410 458 l 410 458 m 762 409 q 758 407 760 407 q 762 409 760 408 m 429 404 q 425 401 428 401 q 422 401 424 401 l 424 401 q 429 404 427 401 m 416 535 q 417 545 417 543 q 416 547 417 547 l 416 535 m 440 566 l 441 566 q 440 555 440 557 l 440 566 m 371 509 l 385 509 q 385 503 385 508 q 386 497 385 499 l 386 494 q 387 488 387 490 q 386 486 387 486 l 386 483 q 387 466 387 470 l 387 463 q 386 460 386 462 l 370 460 l 370 480 q 370 488 370 481 l 370 492 q 371 500 370 494 l 371 509 m 262 497 l 261 497 q 262 504 262 502 l 262 497 m 587 401 l 554 401 q 541 401 546 401 l 587 401 m 319 462 q 320 461 320 462 l 318 460 l 303 460 l 303 481 q 305 502 304 489 l 305 503 l 306 508 l 306 515 l 307 515 l 307 509 l 314 509 l 314 513 l 315 513 q 315 515 315 515 l 315 511 q 317 497 316 505 q 317 486 317 492 q 318 474 318 477 l 319 469 l 319 462 m 438 477 l 437 477 q 438 489 438 487 l 438 477 m 410 458 l 410 458 l 410 459 q 410 465 410 465 l 410 458 m 480 460 q 479 460 479 460 l 462 460 l 461 463 q 462 469 461 465 l 462 504 q 463 509 462 505 l 479 509 q 479 502 479 504 q 479 500 479 500 l 479 495 q 479 485 479 487 l 479 469 q 480 463 480 465 l 480 460 m 417 551 l 417 545 l 416 545 l 416 551 l 417 551 m 410 465 q 410 459 410 465 q 408 458 410 458 q 393 460 404 458 l 392 460 l 392 463 q 393 469 392 465 l 393 497 q 393 507 393 496 l 394 509 l 408 509 l 408 511 l 408 511 l 408 507 q 409 499 409 501 l 409 495 q 410 488 410 490 q 409 486 410 486 l 409 482 q 410 475 410 476 l 410 474 l 410 467 l 410 465 m 439 481 l 439 470 l 438 470 l 438 481 l 439 481 m 528 471 l 528 471 l 528 484 l 528 484 l 528 471 m 296 462 q 294 439 296 454 q 292 417 293 424 q 288 405 291 406 q 285 416 286 406 q 281 458 282 446 l 281 460 l 296 460 l 296 457 l 297 457 q 296 462 297 458 m 393 504 q 393 513 393 510 q 393 515 393 515 l 393 504 m 286 527 q 286 526 286 526 q 286 527 286 526 m 478 415 q 477 404 478 408 l 476 404 q 477 413 476 405 l 478 415 m 463 430 q 465 427 465 429 q 463 424 465 426 q 463 427 463 426 l 463 430 m 487 407 q 486 412 487 408 l 486 414 q 487 413 487 414 l 487 407 m 486 412 q 487 413 487 412 q 486 418 487 415 l 486 412 m 282 486 l 281 486 q 282 494 281 492 l 282 486 m 503 430 l 503 431 q 503 432 503 432 l 503 430 m 408 522 q 408 524 408 522 q 408 533 408 527 l 408 522 m 508 500 l 507 500 l 507 509 l 508 509 l 508 500 m 502 563 q 501 568 502 564 q 502 574 502 573 l 502 575 q 501 574 501 575 l 501 576 l 502 576 l 502 563 m 532 568 q 532 574 532 575 l 532 631 q 551 640 534 635 q 556 641 554 640 q 563 642 559 642 q 574 644 570 643 l 591 644 q 602 642 596 642 l 604 642 q 612 640 608 641 q 625 636 621 639 q 628 635 625 635 l 632 633 q 640 629 633 633 q 643 627 641 627 q 661 615 652 623 q 662 614 661 614 q 663 612 663 613 q 672 604 667 608 q 676 600 673 603 q 680 595 678 596 q 681 596 680 596 l 681 593 q 684 588 682 590 q 691 576 685 587 l 691 578 q 694 568 692 578 l 532 568 m 453 581 l 453 589 q 454 581 453 591 l 453 581 m 370 485 q 370 492 370 490 q 370 494 370 494 l 370 485 m 418 588 l 418 578 l 418 578 l 418 588 l 418 588 m 500 610 q 501 608 501 610 l 501 602 q 500 610 501 603 m 429 587 q 429 595 429 588 l 429 595 l 429 587 m 439 425 q 441 422 441 423 q 440 418 441 420 l 439 421 l 439 425 m 509 433 q 508 439 509 432 q 509 437 508 438 l 509 433 m 386 486 q 387 488 387 486 q 386 494 387 490 l 386 486 m 275 467 q 274 460 275 465 l 273 460 q 260 460 270 460 q 259 462 260 461 l 259 473 l 260 480 q 261 493 260 482 q 262 497 262 493 l 262 505 l 263 505 q 262 506 263 506 l 263 506 l 263 511 l 264 509 l 269 509 l 269 513 l 272 491 q 275 469 274 475 l 275 467 m 507 500 l 508 500 q 507 486 507 489 l 507 500 m 309 530 l 309 530 q 307 528 307 530 q 307 526 307 527 l 306 515 l 306 513 q 309 530 309 530 m 463 521 l 463 521 q 463 516 463 517 l 463 521 m 463 414 q 465 410 465 413 q 464 406 465 409 l 464 407 q 463 412 464 408 l 463 414 m 454 547 l 454 547 q 455 536 454 545 l 454 547 m 441 572 l 440 572 l 440 578 l 441 578 l 441 572 m 501 608 q 500 610 501 610 q 500 608 500 608 l 500 612 l 498 612 q 498 614 498 613 q 501 608 501 611 m 371 522 q 372 529 372 527 q 371 530 372 530 l 371 522 m 477 587 l 477 586 q 477 582 477 585 l 477 587 m 393 507 l 393 507 l 393 512 l 393 512 l 393 507 m 441 408 q 440 413 441 409 l 441 411 l 441 408 m 387 488 l 387 483 l 386 483 l 386 488 l 387 488 m 338 503 q 339 498 338 502 l 339 506 q 338 503 338 506 l 338 503 m 410 479 l 410 488 q 410 479 410 486 l 410 479 m 332 526 q 334 527 333 527 q 336 524 335 527 q 332 526 334 526 m 374 580 l 373 573 l 373 580 l 374 580 m 381 582 q 383 575 383 582 l 383 574 l 382 574 l 382 574 q 382 580 382 581 q 381 582 382 581 m 372 420 q 374 418 374 420 q 372 415 374 418 l 372 420 m 439 494 l 438 494 l 439 507 l 439 494 m 461 460 l 460 460 l 460 469 l 461 469 l 461 460 m 749 536 l 732 538 l 736 538 q 730 538 733 538 q 724 538 727 538 q 706 534 719 538 q 729 540 718 540 q 749 536 739 540 m 504 457 q 503 435 504 443 l 503 436 q 503 433 503 433 l 504 457 m 461 475 l 461 469 l 460 469 l 460 475 l 461 475 m 504 498 l 503 498 l 503 507 l 504 507 l 504 498 m 526 595 l 525 595 l 525 608 l 526 608 l 526 595 m 359 559 q 355 562 357 562 l 354 562 q 351 557 351 560 l 351 558 q 354 562 351 562 l 355 562 q 359 559 359 562 l 359 559 m 479 485 q 479 495 479 487 l 479 495 l 479 485 m 386 492 l 386 499 q 387 492 386 498 l 386 492 m 486 421 q 486 428 486 422 q 486 425 486 427 l 486 421 m 672 604 q 663 612 667 608 l 664 612 q 672 604 667 608 m 430 412 q 429 404 430 406 q 430 411 429 405 l 430 412 m 361 509 l 349 509 q 351 555 350 555 l 351 557 q 354 562 351 560 l 355 562 q 359 559 357 562 q 359 551 359 560 q 360 531 359 545 q 361 512 361 519 l 361 509 m 409 512 l 409 507 l 408 507 l 408 512 l 409 512 m 486 422 q 488 420 488 422 q 486 416 488 418 l 486 422 m 324 460 q 325 461 325 460 q 324 465 325 463 l 324 460 m 779 517 q 780 517 779 517 l 780 515 q 775 521 778 518 q 779 517 779 519 m 347 460 q 346 467 346 464 q 347 473 346 470 l 347 460 m 440 561 l 439 561 q 440 573 440 571 l 440 561 m 463 529 l 463 522 l 462 522 l 462 529 l 463 529 m 248 437 q 245 432 248 432 q 241 446 242 433 q 239 460 240 459 l 239 464 q 240 460 240 463 l 240 460 q 241 444 240 460 q 245 432 243 432 q 248 437 247 432 m 477 565 q 477 568 477 566 l 477 565 m 370 468 l 370 462 l 369 462 l 369 468 l 370 468 m 486 526 l 486 526 q 486 521 486 522 l 486 526 m 408 511 l 408 511 l 408 521 l 408 521 l 408 511 m 274 460 q 275 467 275 465 q 270 425 275 460 q 267 414 269 414 l 267 414 q 271 439 269 416 l 274 460 m 504 457 l 503 433 q 503 436 503 433 q 501 433 501 435 q 503 430 501 432 l 503 427 q 500 425 500 427 q 502 422 500 424 l 502 419 q 500 417 500 418 q 501 413 500 416 l 501 409 q 500 405 500 406 q 500 404 500 404 q 495 401 499 404 l 494 401 q 487 407 489 401 l 487 408 q 488 410 488 409 q 487 413 488 412 q 486 414 487 414 l 486 416 q 488 420 488 418 q 486 422 488 422 l 486 425 q 487 429 487 427 q 486 432 487 431 l 486 435 q 487 438 487 437 q 485 441 487 439 l 485 448 q 484 465 484 448 q 485 462 485 464 l 485 460 q 503 459 499 459 l 503 459 l 504 457 m 463 564 q 464 576 464 572 q 463 578 464 578 l 463 564 m 417 540 l 416 540 l 416 545 l 417 545 l 417 540 m 509 562 q 509 575 509 571 q 509 578 509 578 l 509 562 m 799 465 l 799 461 q 795 450 795 451 l 796 450 q 797 455 796 452 q 798 460 798 458 q 798 465 798 463 l 799 465 m 456 515 l 455 515 l 455 521 l 456 521 l 456 515 m 507 496 q 508 509 508 505 q 507 513 508 513 l 507 496 m 417 422 q 419 420 419 422 q 418 417 419 419 q 417 419 417 418 l 417 422 m 799 479 l 799 465 l 798 465 q 799 465 798 465 l 799 467 q 798 479 799 470 l 799 479 m 502 583 l 501 583 l 501 591 l 502 591 l 502 583 m 479 503 l 479 503 q 480 491 479 500 l 479 503 m 372 558 q 373 566 373 564 q 372 568 373 568 l 372 558 m 697 562 q 696 566 696 565 l 696 566 q 697 562 697 564 m 409 486 q 410 488 410 486 q 409 495 410 490 l 409 486 m 781 424 q 776 419 779 421 q 781 424 778 422 m 781 423 q 777 418 779 421 q 781 423 779 421 m 393 490 l 392 490 q 393 499 393 497 l 393 490 m 259 460 l 258 463 q 264 415 258 460 q 259 459 262 425 l 259 460 m 385 513 l 385 521 q 386 513 385 519 l 385 513 m 457 470 l 456 470 l 456 476 l 457 476 l 457 470 m 372 533 q 372 516 372 522 l 371 517 l 371 529 q 372 534 371 530 l 372 541 q 372 546 372 543 l 372 533 m 408 530 l 408 539 q 408 530 408 541 l 408 530 m 243 495 q 245 499 243 499 q 247 498 246 499 q 250 491 250 494 q 249 488 250 490 q 247 496 249 492 q 245 498 246 498 q 243 495 244 498 m 632 633 q 640 629 637 632 q 632 633 633 633 m 409 512 l 408 512 l 408 517 l 409 517 l 409 512 m 526 422 q 526 424 526 423 q 526 418 526 418 l 526 422 m 347 459 q 347 465 347 463 l 347 467 q 347 471 347 468 q 348 490 348 477 q 349 509 349 503 l 361 509 l 361 512 l 361 512 q 362 501 361 507 q 363 471 363 478 q 364 467 364 468 l 364 464 q 363 459 364 463 q 353 460 357 460 q 347 459 349 460 m 433 464 l 430 412 l 430 416 q 428 414 428 416 q 430 411 428 413 q 429 404 429 405 q 424 401 427 401 l 422 401 q 418 410 418 403 q 420 414 420 412 q 418 415 420 415 l 418 417 q 419 420 419 419 q 417 422 419 422 l 417 425 q 418 427 418 426 q 416 429 418 429 q 416 446 416 436 q 415 463 415 458 l 415 463 q 416 460 416 463 l 432 460 q 433 464 432 460 l 433 464 m 302 457 q 302 463 302 458 l 302 469 q 302 475 302 473 l 302 457 m 439 432 q 441 430 441 431 q 439 427 441 429 l 439 432 m 408 525 l 408 521 l 408 521 l 408 525 l 408 525 m 395 405 q 396 406 396 405 q 395 408 396 407 l 395 405 m 463 547 l 463 547 q 463 560 463 562 l 463 547 m 486 431 q 485 437 486 432 l 486 435 l 486 431 m 433 464 q 432 460 432 460 l 416 460 q 415 463 416 463 l 415 481 q 416 491 415 483 l 416 496 q 416 507 416 498 l 416 509 l 431 509 q 432 504 432 505 l 432 500 q 433 492 433 494 q 432 490 433 490 l 432 485 q 433 477 433 478 l 433 464 m 432 490 q 433 492 433 490 q 432 500 433 494 l 432 490 m 382 569 q 382 574 382 570 l 382 569 m 527 529 q 526 545 527 532 l 527 545 l 527 529 m 504 457 q 505 465 505 463 q 504 466 505 466 l 504 457 m 363 449 q 361 414 363 441 q 355 401 359 401 q 353 402 354 401 q 357 401 355 401 q 361 425 359 404 l 363 449 l 363 449 m 504 466 q 505 465 505 466 q 504 457 505 463 l 503 459 l 503 459 q 485 460 499 459 l 485 462 q 484 465 485 464 l 484 467 q 485 471 484 468 l 485 502 l 486 509 l 503 509 q 503 498 503 500 l 503 490 q 504 476 504 474 q 505 469 505 471 q 504 467 505 467 l 504 466 m 508 517 l 507 517 q 508 534 508 530 l 508 517 m 268 517 q 272 491 268 517 l 269 513 l 269 515 q 268 517 268 516 m 382 404 q 380 401 382 402 q 375 402 376 401 q 373 404 374 404 l 373 409 q 375 412 375 411 q 372 414 375 414 l 372 415 q 374 418 374 418 q 372 420 374 420 q 371 441 372 428 q 370 462 370 456 l 370 460 l 386 460 q 387 463 386 462 q 382 404 382 404 m 487 591 l 487 576 l 486 576 l 486 591 l 487 591 m 363 459 q 363 449 363 458 l 361 425 q 357 401 359 404 q 353 402 355 401 l 352 402 l 351 405 l 351 404 q 349 431 351 414 q 347 459 348 450 q 353 460 349 460 q 363 459 357 460 m 783 513 l 784 512 l 783 513 l 780 515 l 780 517 q 779 517 779 517 l 780 517 q 781 516 780 516 q 783 513 783 514 m 395 570 l 395 565 l 395 565 l 395 570 l 395 570 m 383 575 q 384 556 383 570 q 383 560 383 557 q 384 562 384 562 q 383 564 384 564 l 383 575 m 702 541 q 701 550 701 547 q 703 541 701 549 l 702 541 m 396 585 q 395 578 395 578 l 396 585 m 284 509 l 283 506 q 286 526 286 524 l 286 524 l 286 526 l 287 526 q 284 512 287 525 l 284 509 m 479 501 l 479 501 l 479 507 l 479 507 l 479 501 m 392 475 q 393 484 393 481 q 392 486 393 486 l 392 475 m 243 495 q 242 491 243 491 q 243 495 242 492 m 351 553 l 351 555 q 349 509 350 555 q 348 490 349 503 q 347 471 348 477 l 347 475 q 349 514 348 488 q 351 553 350 538 m 392 462 q 391 467 391 465 q 392 472 391 470 l 392 462 m 504 467 q 505 469 505 467 q 504 476 505 471 l 504 467 m 303 460 l 318 460 l 320 461 q 319 462 320 462 q 313 404 313 408 q 312 404 313 404 q 310 403 311 403 q 308 404 309 403 q 305 431 307 414 q 302 458 304 450 l 303 460 m 274 460 l 271 439 q 267 414 269 416 q 264 415 266 414 q 258 463 258 460 l 259 460 l 259 462 q 260 460 260 461 q 273 460 270 460 l 274 460 m 528 491 l 528 491 l 528 500 l 528 500 l 528 491 m 798 460 q 797 455 798 458 q 796 450 796 452 q 795 447 795 449 q 793 442 794 444 q 790 436 791 439 q 787 432 789 433 q 781 424 785 430 q 776 419 778 422 l 773 416 q 762 409 768 412 q 758 407 760 408 q 755 406 757 406 q 748 404 752 405 q 747 403 748 403 q 741 402 745 403 q 735 401 737 401 q 638 402 687 402 q 541 401 589 402 l 537 401 q 535 403 536 402 q 533 405 533 403 l 532 409 l 532 463 l 532 460 l 665 460 q 798 460 747 460 m 418 561 l 418 556 l 417 556 l 417 561 l 418 561 m 408 525 l 408 525 l 408 530 l 408 530 l 408 525 m 509 539 l 508 539 q 509 555 509 552 l 509 539 m 393 477 l 393 469 l 392 469 l 392 477 l 393 477 m 478 422 q 479 422 479 422 l 478 420 q 477 424 477 422 q 478 426 477 425 l 478 422 m 319 474 l 319 469 l 318 474 l 319 474 m 480 471 q 481 467 481 469 q 480 462 481 465 l 480 471 m 406 568 l 406 577 q 407 568 406 578 l 406 568 m 336 524 q 337 519 337 523 q 336 520 336 519 q 337 522 337 521 l 336 522 l 336 524 m 286 524 q 285 512 286 516 l 284 512 q 287 526 287 525 l 286 526 l 286 524 m 319 469 q 313 404 318 437 q 319 462 313 408 l 319 469 m 456 460 q 438 460 459 460 l 438 463 q 439 470 438 464 l 439 504 q 439 509 439 505 l 455 509 q 456 500 456 502 l 456 495 q 456 486 456 489 q 456 484 456 484 l 456 479 q 456 471 456 473 l 456 460 m 457 473 q 458 467 458 470 q 457 462 458 465 l 457 473 m 787 432 q 781 424 785 427 q 787 432 785 430 m 463 547 l 463 540 l 463 540 l 463 547 l 463 547 m 440 555 l 440 549 l 439 549 l 439 555 l 440 555 m 492 614 q 488 609 490 614 l 487 609 q 492 614 488 613 l 492 614 m 429 595 q 426 598 429 595 q 429 595 428 597 l 429 595 m 410 474 l 410 475 q 409 482 410 476 l 410 474 m 526 553 q 526 566 526 555 l 526 566 l 526 553 m 455 521 l 455 532 q 456 521 455 530 l 455 521 m 406 570 q 406 576 406 571 l 406 576 l 406 570 m 431 547 q 430 557 431 549 l 431 557 l 431 547 m 509 418 q 511 416 511 418 q 510 412 511 414 l 509 415 l 509 418 m 439 494 l 439 488 l 438 488 l 438 494 l 439 494 m 439 545 q 440 555 440 552 q 439 557 440 557 l 439 545 z "},"O":{"ha":979,"x_min":5,"x_max":975,"o":"m 218 749 q 106 481 106 638 q 218 214 106 326 q 490 103 331 103 q 761 214 648 103 q 873 481 873 326 q 761 749 873 638 q 490 860 648 860 q 218 749 331 860 m 490 2 q 147 142 289 2 q 5 481 5 283 q 147 821 5 681 q 488 961 288 961 l 492 961 q 832 821 691 961 q 975 481 975 681 q 832 142 975 283 q 490 2 690 2 m 280 465 q 401 290 288 342 q 298 564 352 424 q 279 481 279 526 q 280 465 279 473 m 569 279 q 535 370 558 307 q 500 460 513 429 q 468 368 492 434 q 436 275 448 310 q 499 265 469 265 q 569 279 536 265 m 639 492 q 603 589 639 493 q 600 606 600 598 q 606 628 600 618 q 635 645 616 645 l 637 645 q 494 701 575 701 q 475 700 485 701 q 311 604 370 692 q 356 605 340 604 l 367 605 q 391 597 391 605 l 391 596 q 359 588 391 593 q 438 359 410 435 l 437 354 q 486 497 437 353 l 450 591 l 451 588 q 420 598 420 593 l 420 599 q 438 606 420 606 q 449 606 443 606 q 483 605 465 605 q 522 606 501 605 q 534 606 529 606 q 554 601 553 606 l 554 600 q 523 588 554 591 q 581 418 528 570 q 602 361 600 364 q 621 426 610 390 q 639 492 637 479 m 721 468 q 722 482 722 475 q 696 581 722 534 l 696 581 l 695 581 q 696 564 696 572 q 686 500 696 530 q 649 400 677 478 q 614 300 627 339 q 721 468 714 358 m 751 464 q 676 300 743 366 q 513 225 610 233 l 481 225 q 318 300 385 233 q 243 464 252 366 l 243 494 q 318 659 250 591 q 481 733 385 725 l 513 733 q 676 659 610 725 q 751 494 743 592 l 751 464 z "},"P":{"ha":982,"x_min":-97,"x_max":871,"o":"m 117 743 q 5 476 5 632 q 117 209 5 320 q 387 98 229 98 q 658 209 546 98 q 770 476 770 320 q 658 743 770 632 q 387 853 546 853 q 117 743 229 853 m 387 -3 q 45 137 187 -3 q -97 476 -97 277 q 45 814 -97 674 q 387 955 187 955 q 729 814 587 955 q 871 476 871 674 q 729 137 871 277 q 387 -3 587 -3 m 393 726 q 581 646 507 726 q 646 473 646 573 q 646 450 646 462 q 575 294 639 360 q 401 218 500 218 q 319 229 361 218 q 365 352 347 271 q 380 340 365 351 q 428 324 403 324 q 498 354 461 324 q 557 479 557 400 q 556 495 557 487 q 507 594 552 555 q 399 633 462 633 q 275 585 324 633 q 231 482 231 542 q 231 471 231 477 q 288 378 235 407 q 295 395 292 382 q 300 413 297 409 q 279 475 279 440 q 280 495 279 485 q 327 570 288 545 q 390 587 353 587 l 398 587 q 470 558 444 585 q 503 482 503 524 q 481 409 503 448 q 422 367 458 367 q 407 369 415 367 q 380 397 384 374 l 399 477 q 402 502 402 491 q 372 535 402 534 l 368 535 q 323 474 324 535 q 326 453 323 467 q 330 434 330 439 q 313 359 330 431 q 298 258 298 299 q 300 237 298 247 q 140 472 140 315 q 141 497 140 484 q 220 660 149 594 q 393 726 292 726 z "},"Q":{"ha":960,"x_min":-123,"x_max":827,"o":"m 87 747 q -23 486 -23 639 q 87 224 -23 332 q 353 115 197 115 q 618 224 508 115 q 728 486 728 332 q 618 747 728 639 q 353 856 508 856 q 87 747 197 856 m 353 16 l 351 16 q 17 153 155 16 q -123 486 -123 290 q 17 818 -123 680 q 353 956 156 956 q 688 818 549 956 q 827 486 827 680 q 688 153 827 290 q 353 16 549 16 m 446 524 l 368 524 q 366 404 366 406 q 404 359 373 359 q 435 368 417 359 q 456 310 451 324 q 383 287 420 287 q 338 295 361 287 q 267 382 275 317 q 265 414 265 395 q 266 448 265 429 q 267 496 267 475 l 267 521 q 264 520 267 520 q 227 524 255 520 l 227 576 q 307 686 292 597 l 366 686 l 365 587 q 446 584 389 587 l 446 524 z "},"R":{"ha":994,"x_min":-66,"x_max":917,"o":"m 151 760 q 37 488 37 647 q 151 218 37 330 q 425 105 264 105 q 700 218 587 105 q 814 488 814 330 q 700 760 814 647 q 425 871 587 871 q 151 760 264 871 m 425 3 q 78 144 222 3 q -66 488 -66 287 q 78 833 -66 690 q 425 975 222 975 q 772 833 629 975 q 917 488 917 690 q 772 144 917 287 q 425 3 629 3 m 300 456 q 333 432 309 432 q 350 435 340 432 q 378 467 378 442 q 375 486 378 475 q 340 510 367 510 l 336 510 q 296 479 296 507 q 300 456 296 469 m 491 347 q 524 375 524 360 l 524 377 q 519 378 522 378 q 492 368 512 378 q 422 349 456 349 q 340 381 378 349 q 328 373 328 378 q 334 363 328 368 q 362 346 346 352 q 425 334 394 334 q 491 347 458 334 m 528 433 q 553 465 553 441 q 552 477 553 471 q 515 510 545 510 l 512 510 q 477 486 484 508 q 474 469 474 477 q 487 442 474 453 q 514 431 499 431 q 528 433 521 431 m 611 566 q 631 569 622 569 q 680 528 667 569 q 684 504 684 515 q 651 459 684 473 l 651 452 q 515 298 651 338 q 420 283 466 283 q 276 325 342 283 q 201 444 201 372 q 201 458 201 451 q 176 482 177 482 l 176 481 q 167 511 167 496 q 185 551 167 531 q 224 570 203 570 q 255 561 239 570 q 264 554 264 555 l 296 570 q 416 600 355 600 q 439 709 416 602 q 450 742 445 739 l 451 742 q 498 733 456 742 q 547 724 544 724 l 548 724 q 562 734 552 724 q 578 745 571 743 q 589 745 584 745 q 626 711 620 745 q 627 699 627 704 q 597 664 627 669 q 585 663 591 663 q 546 702 552 663 q 505 711 532 705 q 465 719 477 717 q 439 602 462 709 q 587 552 539 591 q 611 566 603 564 z "},"S":{"ha":963,"x_min":-127,"x_max":828,"o":"m 83 751 q -27 488 -27 642 q 83 225 -27 334 q 351 116 194 116 q 618 225 507 116 q 728 488 728 334 q 618 751 728 642 q 351 861 507 861 q 83 751 194 861 m 351 16 q 13 154 153 16 q -127 488 -127 292 q 13 823 -127 684 q 349 960 152 960 l 353 960 q 688 823 549 960 q 828 488 828 684 q 688 154 828 292 q 351 16 548 16 m 572 382 q 517 349 572 364 q 509 334 512 347 q 502 319 507 322 q 475 323 490 323 q 410 303 446 323 q 346 283 375 283 q 321 287 333 283 q 208 320 228 320 l 206 319 q 192 349 206 323 q 134 376 134 357 l 134 377 q 172 397 134 378 q 233 463 233 427 q 232 472 233 467 q 203 493 229 484 q 179 514 179 502 l 179 515 q 199 530 180 530 q 229 524 211 530 q 234 560 234 536 l 234 571 q 233 589 233 581 q 237 619 233 609 q 347 696 260 696 q 372 694 359 696 q 476 577 476 684 q 471 527 476 554 l 477 527 q 529 515 528 527 l 529 513 q 507 492 529 500 q 474 475 479 481 q 572 382 488 414 z "},"T":{"ha":1009,"x_min":-53,"x_max":935,"o":"m 165 747 q 50 475 50 634 q 165 203 50 315 q 441 90 279 90 q 717 203 603 90 q 831 475 831 315 q 717 747 831 634 q 441 860 603 860 q 165 747 279 860 m 441 -14 q 92 129 237 -14 q -53 475 -53 272 q 92 821 -53 677 q 441 964 237 964 q 790 821 645 964 q 935 475 935 677 q 790 129 935 272 q 441 -14 646 -14 m 718 627 q 680 583 704 604 q 665 570 665 571 l 665 558 q 624 406 665 477 q 523 299 585 337 q 359 256 452 256 q 201 303 276 256 q 227 302 214 302 q 351 342 294 302 q 357 347 357 346 q 258 421 282 353 q 281 418 271 418 q 305 423 294 418 q 220 528 225 445 q 268 515 243 516 q 226 574 236 538 q 220 606 220 591 q 236 657 220 633 q 455 546 323 555 q 452 572 452 559 q 476 637 452 608 q 554 677 505 673 l 564 677 q 623 655 598 675 q 637 643 637 644 l 647 646 q 704 668 671 651 q 661 612 692 634 l 659 610 q 718 627 690 614 z "},"U":{"ha":978,"x_min":9,"x_max":969,"o":"m 221 748 q 110 484 110 638 q 221 219 110 328 q 489 109 332 109 q 758 219 646 109 q 869 484 868 328 q 758 748 868 638 q 489 857 646 857 q 221 748 332 857 m 489 9 q 150 147 290 9 q 9 484 9 286 q 150 819 9 680 q 489 958 290 958 q 828 819 688 958 q 969 484 969 680 q 828 147 969 286 q 489 9 688 9 m 711 380 q 727 350 727 360 q 726 347 727 349 q 684 334 724 334 l 670 333 l 656 333 q 624 334 627 333 q 580 365 603 338 q 562 385 564 384 q 540 399 549 399 l 538 399 q 524 385 529 399 q 519 364 520 377 q 515 340 517 342 q 472 334 511 335 l 468 334 q 391 355 431 334 q 320 421 354 376 q 233 573 275 482 q 224 596 224 590 q 225 599 224 598 q 267 606 228 606 l 292 606 q 325 602 319 606 q 334 586 328 599 q 380 503 355 538 q 391 488 387 493 q 406 479 399 479 l 408 479 q 420 499 417 480 q 422 528 422 512 q 416 585 422 573 q 391 599 411 593 q 438 619 397 617 q 457 620 448 620 q 515 606 507 620 q 519 580 519 600 l 519 574 q 517 517 517 536 q 518 503 517 508 q 530 479 520 480 l 531 479 q 547 490 538 479 q 579 536 559 503 q 605 589 593 560 q 616 604 610 602 q 645 606 618 606 q 703 606 675 606 l 706 606 q 726 599 722 606 q 726 594 726 597 q 712 558 726 583 q 683 517 702 541 q 653 476 660 486 q 645 456 645 464 l 645 454 q 665 428 646 447 q 711 380 702 392 z "},"V":{"ha":987,"x_min":3,"x_max":975,"o":"m 216 756 q 104 488 104 645 q 216 220 104 332 q 488 109 329 109 q 760 220 648 109 q 873 488 872 332 q 760 756 872 645 q 488 867 648 867 q 216 756 329 867 m 488 7 q 145 148 287 7 q 3 488 3 289 q 145 828 3 688 q 488 969 287 969 q 831 828 690 969 q 975 488 975 688 q 831 148 975 289 q 488 7 690 7 m 651 691 q 663 692 657 692 q 734 632 734 692 q 732 612 734 623 q 689 498 726 579 q 561 313 636 385 q 465 253 505 260 q 448 251 456 251 q 430 254 438 251 q 382 314 401 263 q 357 397 370 345 q 334 482 343 456 q 300 554 312 550 q 291 555 296 555 q 271 551 282 555 q 248 546 256 546 q 243 547 245 546 q 232 558 239 547 l 222 570 q 255 597 233 578 q 290 627 277 616 q 371 677 344 673 q 378 678 374 678 q 449 564 427 678 q 475 433 474 435 q 508 409 489 409 l 511 409 q 554 456 529 410 q 579 522 576 496 q 580 536 580 529 q 574 562 580 552 q 520 576 565 576 l 516 576 q 560 646 532 621 q 651 691 606 688 z "},"W":{"ha":978,"x_min":11,"x_max":972,"o":"m 222 760 q 111 494 111 650 q 222 229 111 339 q 491 119 334 119 q 760 229 649 119 q 871 494 871 339 q 760 760 871 650 q 491 869 649 869 q 222 760 334 869 m 492 19 q 152 158 292 19 q 11 494 11 297 q 152 831 11 692 q 491 970 292 970 q 831 831 690 970 q 972 494 972 692 q 831 158 972 297 q 492 19 690 19 m 703 459 q 713 521 713 491 q 662 650 713 591 q 503 724 600 724 q 487 723 495 724 q 383 686 430 720 q 296 521 296 622 q 297 496 296 509 q 322 418 301 455 q 335 395 334 395 l 328 376 q 309 320 311 326 l 389 345 q 479 312 437 317 q 502 311 491 311 q 586 328 546 311 q 703 459 675 368 m 751 502 q 631 307 738 373 q 510 272 578 275 l 503 272 q 384 302 445 272 q 316 281 371 298 q 249 259 274 268 q 247 261 248 259 l 245 258 q 286 374 245 259 q 288 389 288 382 q 285 404 288 397 q 256 519 256 462 q 326 687 257 613 q 488 762 387 752 l 519 762 q 678 691 616 753 q 751 532 742 627 l 751 502 m 628 460 q 629 454 629 457 q 601 410 629 425 q 569 402 584 402 l 563 402 q 500 423 536 406 q 412 503 452 446 q 383 572 383 544 q 414 628 383 620 q 427 630 421 630 q 439 627 433 630 q 454 600 442 625 q 466 568 466 571 q 457 551 466 562 q 446 536 446 537 q 462 510 446 531 q 507 470 483 484 q 536 458 528 458 l 536 458 q 553 473 541 458 q 568 489 565 489 l 569 489 q 600 476 574 489 q 628 460 623 465 z "},"X":{"ha":1003,"x_min":-41,"x_max":935,"o":"m 174 751 q 61 481 61 640 q 174 212 61 324 q 447 101 287 101 q 720 212 607 101 q 833 481 833 324 q 720 751 833 640 q 447 863 607 863 q 174 751 287 863 m 447 -1 q 102 140 245 -1 q -41 481 -41 281 q 102 824 -41 682 q 447 965 245 965 q 792 824 649 965 q 935 481 935 682 q 792 140 935 281 q 447 -1 649 -1 m 661 564 l 661 563 q 660 557 661 561 l 659 557 q 661 564 660 562 m 631 505 l 631 504 l 619 504 l 619 505 l 631 505 m 470 224 q 459 216 468 222 l 456 214 q 470 224 457 214 m 432 600 q 431 593 431 594 l 431 598 q 432 600 431 599 m 440 639 q 441 642 441 642 q 439 635 441 638 q 439 635 439 635 l 440 639 m 532 507 q 559 479 545 490 q 532 507 543 490 m 431 569 q 431 577 431 571 l 431 577 l 431 569 m 268 420 l 267 426 l 267 423 l 264 423 l 267 422 l 268 420 m 662 608 l 663 605 l 663 606 l 662 606 l 662 608 m 324 306 q 322 308 323 307 q 320 310 321 309 l 320 312 q 324 306 321 311 m 576 469 q 559 479 571 471 q 532 507 545 490 q 524 522 525 519 q 576 469 541 486 m 589 372 l 591 372 l 590 372 q 574 346 577 349 l 574 345 l 574 347 q 581 356 575 349 q 589 372 581 357 m 483 345 l 468 326 l 468 325 q 460 315 468 324 q 434 289 434 290 q 436 290 435 289 q 420 312 428 300 q 436 291 420 311 q 483 345 448 301 m 233 543 q 232 544 232 543 l 232 545 l 231 547 q 229 564 229 560 l 229 565 q 233 544 233 546 l 233 543 m 390 229 q 389 229 389 229 q 390 229 389 229 m 652 526 q 644 505 651 516 l 641 505 l 641 506 q 645 507 645 506 l 644 507 q 652 526 645 507 m 572 531 q 586 515 572 528 q 571 530 578 520 l 571 530 q 572 531 571 531 m 524 414 q 521 408 523 409 l 524 414 m 500 707 q 491 703 499 707 q 500 707 493 705 m 347 444 q 346 447 346 445 q 345 449 346 448 l 345 451 q 347 444 347 449 m 388 229 q 333 292 356 258 q 389 229 363 252 l 388 229 m 512 575 q 511 583 511 579 q 512 589 511 586 l 512 575 m 460 315 q 436 290 441 294 q 402 335 416 313 q 411 323 405 332 q 420 312 416 316 q 436 290 428 300 q 434 289 435 289 q 460 315 434 290 m 477 231 q 470 224 476 230 q 477 231 471 224 m 310 589 q 311 585 311 589 l 311 581 q 310 588 310 583 l 310 589 m 468 325 q 460 315 462 317 q 468 325 468 324 m 656 402 q 661 403 659 402 q 635 397 654 399 q 619 396 630 397 q 604 395 609 395 q 589 368 604 396 q 581 355 587 363 q 573 341 575 346 q 518 270 552 309 q 452 211 483 229 q 436 208 444 208 q 374 241 408 208 q 279 387 317 296 q 232 544 250 460 q 233 543 232 543 l 233 544 q 237 531 237 533 q 235 534 236 531 q 241 508 237 517 q 243 499 241 507 q 243 500 243 499 q 242 500 243 500 q 245 493 243 494 q 248 491 248 492 q 245 490 248 490 l 246 488 q 248 491 248 491 q 250 486 250 491 q 249 477 250 482 q 252 468 250 475 q 255 458 254 461 q 256 456 255 458 q 256 454 256 454 q 262 436 260 438 l 265 428 l 266 420 q 267 423 267 420 l 267 426 l 268 420 l 267 422 q 276 400 268 422 q 275 401 275 400 q 274 402 275 402 q 296 355 286 372 q 298 349 298 349 l 298 349 q 310 328 307 332 l 310 327 q 320 311 319 313 l 320 310 q 324 304 323 305 l 324 304 q 331 294 330 295 q 388 229 359 254 l 389 229 q 416 212 404 215 q 421 210 418 211 q 427 208 425 209 q 433 207 430 207 q 438 208 435 207 q 442 209 440 208 q 446 210 444 210 q 450 208 448 208 q 453 213 453 208 q 456 215 454 213 l 456 214 q 470 223 460 215 q 552 313 505 252 l 552 313 q 571 340 554 316 l 574 346 q 590 372 577 349 q 591 374 590 373 q 597 385 593 377 q 603 396 601 393 q 612 397 610 397 l 614 397 q 622 397 620 397 l 623 397 q 644 400 623 398 q 652 401 650 400 l 651 401 q 652 401 651 401 l 654 401 q 656 402 656 401 m 245 490 q 248 491 248 490 q 245 493 248 492 l 244 494 l 244 496 q 245 490 245 495 m 647 667 l 648 667 l 646 668 l 644 671 q 640 677 641 677 l 640 678 q 618 699 630 690 q 614 701 616 699 q 610 703 612 703 l 610 705 l 610 704 q 647 667 633 692 m 262 436 q 256 454 260 438 l 256 453 l 257 452 q 262 436 262 438 m 288 370 q 292 362 291 367 q 288 370 290 366 m 593 464 q 595 465 594 465 q 600 462 597 465 q 593 464 594 463 m 420 312 q 411 323 416 316 q 402 335 405 332 l 398 342 q 395 347 397 344 q 393 351 393 349 q 420 312 416 317 m 438 208 q 433 207 435 207 q 427 208 430 207 l 438 208 m 336 475 q 337 476 336 476 l 338 474 q 338 470 338 472 l 338 469 q 336 475 337 472 m 302 641 l 302 640 q 260 641 281 641 q 217 640 239 641 l 217 638 q 220 640 220 639 q 217 641 220 640 l 302 641 m 462 472 l 463 471 l 463 471 q 454 484 460 474 l 454 484 l 456 484 l 456 482 q 462 473 460 474 l 462 472 m 327 511 l 328 508 l 327 509 q 326 514 326 512 q 327 511 326 514 m 308 332 q 309 330 309 332 q 310 328 310 328 q 298 349 307 332 l 298 349 l 299 349 q 300 345 300 345 l 300 346 q 305 338 305 338 q 308 332 307 332 l 308 332 m 244 494 l 245 493 q 242 500 243 494 q 243 500 243 500 q 243 499 243 499 q 244 496 244 498 l 244 494 m 296 355 q 274 402 286 372 q 275 401 275 402 q 276 400 275 400 q 282 385 278 395 q 288 370 286 376 q 292 362 290 366 q 296 355 295 355 m 333 292 l 328 294 l 331 294 q 324 304 324 303 l 324 305 l 323 306 q 333 292 323 305 m 581 581 q 580 576 580 577 q 581 574 580 574 l 581 581 m 637 460 q 646 461 638 460 q 641 460 644 461 l 637 460 m 249 477 q 250 486 250 482 q 248 491 250 491 q 246 488 248 491 q 249 477 249 482 m 604 707 l 591 711 q 589 712 591 712 l 590 712 q 602 707 594 712 l 604 707 m 372 389 l 377 378 q 376 380 377 378 l 370 390 q 372 389 372 389 m 631 460 q 625 459 629 459 q 619 460 623 459 l 631 460 m 393 351 q 395 347 393 349 q 398 342 397 344 q 391 354 397 343 l 390 354 q 393 351 390 353 m 552 313 q 478 231 515 265 l 477 231 q 552 314 515 265 l 552 313 m 324 304 q 331 294 324 303 q 324 304 330 295 m 456 670 q 452 664 454 668 q 448 657 450 659 q 456 670 454 668 m 363 406 q 363 408 363 406 q 361 409 362 409 l 359 415 q 363 406 359 414 m 662 462 q 661 408 661 420 l 661 404 q 602 397 646 400 l 603 399 q 587 370 603 397 q 535 294 558 322 q 495 248 512 264 q 447 212 460 216 q 433 209 440 209 q 415 213 424 209 q 371 248 397 221 q 281 390 319 301 q 218 640 238 488 q 260 640 239 640 q 302 640 281 640 q 436 290 327 415 q 526 414 481 330 q 524 415 524 414 q 523 416 524 415 q 490 439 492 439 l 491 438 q 434 556 442 483 q 432 589 432 574 q 510 711 432 684 q 558 720 536 720 q 635 682 604 720 q 668 595 668 644 q 644 508 668 555 q 623 505 633 505 q 588 515 605 505 q 573 530 574 525 q 578 553 573 529 q 582 589 582 573 q 575 624 582 610 q 549 643 566 643 q 538 641 544 643 q 510 585 510 633 q 511 572 510 578 q 555 481 515 512 q 627 458 585 458 q 662 462 644 458 m 651 658 q 646 668 651 659 l 648 667 l 647 667 l 647 667 l 651 659 l 651 658 m 345 452 l 347 452 q 344 453 347 452 q 342 460 342 459 l 345 452 m 640 677 q 644 671 641 677 l 640 677 m 541 718 q 550 718 545 718 q 560 718 555 718 l 541 718 m 514 420 q 515 419 514 420 q 516 418 516 419 q 463 471 484 437 q 464 468 463 470 q 467 466 465 467 q 471 459 471 460 q 511 422 487 437 q 514 420 511 422 m 647 667 q 651 659 648 665 l 647 667 m 558 640 q 572 626 568 634 q 555 640 564 637 l 555 640 q 557 640 557 640 q 558 640 558 640 m 640 460 q 634 460 639 460 l 634 460 l 640 460 m 226 579 q 227 572 227 576 l 227 571 q 225 577 225 575 q 226 579 225 578 m 573 537 q 572 531 573 534 q 571 530 571 531 q 570 533 570 532 q 573 537 570 536 m 320 312 l 320 311 q 310 327 319 313 q 311 326 311 327 q 313 323 312 323 q 320 312 320 311 m 431 589 l 431 589 q 431 597 431 596 l 431 589 m 538 640 q 541 642 541 642 l 540 642 l 535 638 q 521 625 526 634 l 520 625 q 538 640 528 637 m 299 349 l 298 349 l 298 349 l 298 349 q 296 355 298 349 l 296 356 q 299 349 296 355 m 364 404 q 361 409 362 406 q 363 408 362 409 q 363 406 363 406 q 364 407 363 407 l 364 404 m 631 504 q 626 503 629 503 q 621 504 623 503 l 631 504 m 652 401 q 644 400 650 400 q 651 401 646 401 l 652 401 m 433 612 q 434 614 433 614 q 433 606 433 608 q 433 612 433 607 m 661 403 q 663 404 663 403 q 661 403 663 403 m 345 449 q 346 447 346 448 q 344 453 346 448 q 347 452 347 452 l 345 452 l 345 449 m 562 327 q 555 319 556 320 l 562 327 m 456 482 q 462 473 455 484 q 456 482 460 474 m 562 718 l 562 717 l 539 717 l 541 718 l 562 718 m 431 567 l 431 574 q 432 567 431 573 l 431 567 m 567 336 q 569 338 568 336 q 571 340 570 340 q 552 313 554 316 l 552 314 l 553 315 q 555 319 553 315 q 562 327 556 320 q 567 336 562 328 m 478 231 q 552 313 515 265 q 470 223 505 252 q 456 214 460 215 l 456 215 l 459 216 q 470 224 468 222 q 477 231 476 230 l 478 231 m 451 493 l 451 490 q 452 491 452 490 l 452 490 q 448 498 449 494 q 449 496 448 498 q 451 493 450 494 m 619 505 l 619 504 q 614 505 615 505 l 619 505 m 491 357 l 490 355 l 486 349 q 484 347 486 349 q 483 346 484 346 q 491 357 491 356 l 491 357 m 590 372 l 591 374 q 590 372 590 373 l 591 372 l 589 372 q 593 378 593 378 l 590 372 m 453 213 q 450 208 453 208 q 446 210 448 208 l 454 213 l 453 213 m 581 593 l 581 600 q 580 599 580 600 q 581 593 580 597 m 315 564 q 317 558 317 560 q 316 556 317 557 q 315 562 315 559 l 315 564 m 217 641 q 260 642 239 642 q 302 641 281 642 l 217 641 m 568 716 q 562 717 566 716 l 562 718 l 568 716 m 241 508 q 235 534 237 517 q 241 508 237 528 m 324 304 q 320 310 323 305 q 322 308 321 309 q 324 306 323 307 l 324 304 m 597 510 l 594 510 q 571 530 583 510 q 586 515 578 520 q 591 513 587 515 q 595 511 594 511 q 597 510 595 510 m 431 589 l 431 577 l 431 577 l 431 589 l 431 589 m 574 347 l 574 345 l 574 346 l 571 340 q 569 338 570 340 q 567 336 568 336 q 576 348 576 347 l 576 349 l 574 347 m 524 415 q 523 416 524 415 q 524 415 524 415 m 663 604 q 664 595 664 600 q 663 585 664 590 l 663 604 m 663 458 q 663 433 663 444 q 662 404 663 416 q 663 433 663 418 q 662 463 663 448 l 660 463 q 661 464 660 464 q 663 463 663 464 l 663 458 m 390 229 l 391 227 q 390 229 391 227 m 491 357 q 494 361 492 359 q 498 366 496 365 q 490 355 492 358 l 491 357 m 521 625 q 535 638 526 634 q 517 618 528 635 q 520 625 519 622 l 521 625 m 512 592 q 513 576 513 587 l 513 561 q 512 575 512 566 l 512 592 m 663 460 l 663 404 q 661 403 663 403 q 656 402 659 402 q 662 404 658 403 q 663 433 663 416 q 663 458 663 444 l 663 460 m 662 583 q 663 582 663 583 q 662 579 663 581 l 662 575 q 661 569 662 572 q 661 564 661 566 q 659 557 660 562 q 652 526 658 542 q 644 507 645 507 l 645 507 q 641 506 645 506 q 631 505 631 505 l 618 505 q 610 506 617 505 q 595 511 602 508 q 591 513 594 511 q 586 515 587 515 q 572 531 572 528 q 573 537 573 534 q 575 545 574 540 q 576 552 576 549 q 578 557 578 554 q 580 569 579 562 l 580 570 q 581 574 580 571 q 580 576 580 574 q 581 581 580 577 q 581 586 581 583 q 581 593 581 589 q 580 599 580 597 q 581 600 580 600 q 578 612 580 608 q 576 616 578 615 q 573 625 576 618 q 558 640 568 636 q 557 640 558 640 q 555 640 557 640 q 548 642 552 642 q 541 640 545 642 l 541 640 q 538 640 539 640 q 520 625 528 637 q 517 618 519 622 q 512 592 512 600 l 512 589 q 511 583 511 586 q 512 575 511 579 q 513 561 512 566 q 524 522 517 536 q 532 507 525 519 q 559 479 543 490 q 576 469 571 471 q 580 468 577 469 q 583 467 582 468 q 591 465 585 465 q 593 464 591 464 q 600 462 594 463 l 600 462 q 610 460 604 460 l 616 460 l 619 460 q 625 459 623 459 q 631 460 629 459 l 634 460 q 640 460 639 460 l 641 460 q 646 461 644 461 q 647 462 646 462 q 650 461 648 462 q 653 462 652 461 q 660 463 656 462 l 662 463 q 663 433 663 448 q 662 404 663 418 q 656 402 658 403 q 654 401 656 401 l 652 401 q 651 401 651 401 q 644 400 646 401 q 623 397 623 398 l 623 397 q 617 397 619 397 q 616 397 616 397 l 614 397 q 603 397 605 397 l 602 397 q 593 380 602 396 q 593 378 593 379 q 589 372 593 378 q 581 356 581 357 q 574 347 580 356 l 576 349 l 576 348 q 567 336 576 347 q 562 327 562 328 l 555 319 q 553 315 553 315 l 552 314 q 477 231 515 265 l 477 231 q 470 224 471 224 q 456 214 457 214 l 459 216 l 456 215 q 453 213 454 213 l 454 213 l 446 210 q 442 209 444 210 q 438 208 440 208 l 427 208 q 421 210 425 209 q 416 212 418 211 q 407 216 411 214 q 399 222 405 218 q 391 227 394 225 l 390 229 q 389 229 389 229 q 333 292 363 252 l 333 292 q 323 306 323 305 l 324 305 l 324 306 q 320 312 321 311 q 313 323 320 311 l 308 332 l 308 332 q 305 338 307 332 q 300 346 300 345 l 300 345 q 299 349 300 345 q 296 356 296 355 l 296 355 q 292 362 295 355 q 288 370 291 367 q 282 385 286 376 q 276 400 278 395 q 267 422 268 422 l 268 420 l 267 422 q 265 428 266 427 l 262 436 q 257 452 262 438 q 255 458 256 456 q 252 468 254 461 q 249 477 250 475 q 246 488 249 482 l 245 490 q 244 496 245 495 q 243 499 244 498 q 241 508 241 507 q 235 534 237 528 q 237 531 236 531 q 233 544 237 533 q 229 565 233 546 q 228 568 229 566 q 227 572 227 571 q 226 579 227 576 q 217 638 220 610 l 217 640 q 260 641 239 641 q 302 640 281 641 q 304 625 304 631 q 306 614 305 618 q 308 601 307 610 q 310 588 309 593 q 311 581 310 583 q 315 562 311 583 q 316 556 315 559 q 319 539 317 550 q 323 523 322 528 q 325 516 323 519 q 326 514 325 514 q 327 509 326 512 q 332 492 328 503 q 336 475 335 481 q 338 469 337 472 q 342 460 340 463 q 344 453 342 459 q 346 447 346 448 q 347 444 346 445 l 360 414 l 359 415 l 361 409 q 364 404 362 406 l 364 404 q 366 401 365 404 q 370 390 368 395 l 376 380 q 391 355 382 366 l 391 354 q 398 342 397 343 l 402 335 q 436 290 416 313 q 460 315 441 294 q 468 325 462 317 l 468 326 q 486 349 473 330 l 490 355 q 498 366 492 358 l 498 370 q 498 369 498 370 l 503 376 q 521 408 516 397 q 524 414 523 409 l 524 415 q 526 414 524 414 q 436 290 481 330 q 302 640 327 415 q 260 640 281 640 q 218 640 239 640 q 281 390 238 488 q 371 248 319 301 q 415 213 397 221 q 433 209 424 209 q 447 212 440 209 q 495 248 460 216 q 535 294 512 264 q 587 370 558 322 q 603 399 603 397 l 602 397 q 661 404 646 400 l 661 408 q 662 462 661 420 q 627 458 644 458 q 555 481 585 458 q 511 572 515 512 q 510 585 510 578 q 538 641 510 633 q 549 643 544 643 q 575 624 566 643 q 582 589 582 610 q 578 553 582 573 q 573 530 573 529 q 588 515 574 525 q 623 505 605 505 q 644 508 633 505 q 668 595 668 555 q 635 682 668 644 q 558 720 604 720 q 510 711 536 720 q 432 589 432 684 q 434 556 432 574 q 491 438 442 483 l 490 439 q 523 416 492 439 l 520 416 l 514 420 q 511 422 511 422 q 471 459 488 439 q 467 466 471 458 q 462 472 462 471 l 462 473 q 456 482 455 484 l 456 484 q 452 491 452 490 q 451 490 452 490 l 451 493 q 447 501 449 498 q 438 530 443 511 q 436 537 437 534 q 432 565 435 543 l 432 567 q 431 574 431 573 l 431 593 q 432 600 431 594 q 433 606 433 601 q 434 614 433 608 l 434 617 q 437 629 436 623 q 435 627 436 627 q 439 635 435 629 q 441 642 441 638 q 446 652 441 643 q 448 658 448 658 l 448 657 q 452 664 450 659 q 456 670 454 668 l 456 671 q 485 699 469 687 l 486 699 q 493 703 488 701 q 501 707 499 706 q 523 714 510 712 q 530 715 525 715 q 541 716 541 715 l 539 717 l 562 717 q 568 716 566 716 q 591 711 576 716 l 604 707 l 602 707 q 610 703 602 707 q 614 701 612 703 q 618 699 616 699 q 640 678 629 690 l 640 677 q 644 671 644 672 l 646 668 q 651 658 651 659 q 653 652 653 653 q 654 647 654 650 q 656 642 656 644 q 662 608 661 629 l 662 583 m 663 583 l 662 583 l 662 606 l 663 606 l 663 583 m 581 356 q 574 347 575 349 q 581 356 580 356 m 333 292 q 388 229 356 258 q 331 294 359 254 l 328 294 l 333 292 l 333 292 m 618 699 q 640 678 630 690 q 618 699 629 690 m 483 346 q 484 347 484 346 q 486 349 486 349 q 468 326 473 330 l 483 345 l 483 346 m 445 652 q 444 649 445 650 q 445 652 444 650 m 485 699 q 456 671 469 687 q 485 699 468 688 m 600 462 q 610 460 609 462 q 600 462 604 460 m 257 454 l 257 452 q 256 453 256 452 l 256 454 q 256 456 256 454 q 255 458 255 458 q 257 454 256 456 m 391 355 q 376 380 382 366 l 377 378 l 372 389 q 391 355 387 362 m 501 707 q 493 703 499 706 q 486 699 488 701 q 487 700 486 700 q 488 701 488 701 l 491 703 q 500 707 499 707 l 501 707 m 456 484 l 454 484 l 454 484 l 454 484 q 452 490 454 484 l 452 491 q 456 484 452 490 m 602 397 q 593 380 596 384 q 602 397 602 396 m 437 629 q 434 617 436 623 q 437 629 434 624 m 407 216 q 416 212 411 214 q 389 229 404 215 q 390 229 389 229 q 391 227 391 227 q 407 216 395 224 m 576 616 q 577 618 577 617 q 572 625 577 620 l 573 625 q 576 616 576 618 m 614 505 q 612 505 614 505 q 610 506 610 505 q 618 505 617 505 l 614 505 m 663 583 l 662 575 l 662 579 q 663 582 663 581 q 662 583 663 583 l 663 583 m 300 346 q 305 338 300 345 q 300 346 305 338 m 370 390 q 366 401 368 395 q 368 396 366 399 q 370 391 370 393 l 370 390 m 610 705 l 610 703 q 602 707 602 707 l 602 707 q 610 704 610 705 l 610 705 m 471 459 q 511 422 488 439 q 471 459 487 437 m 581 595 q 578 613 578 613 l 578 612 q 581 600 580 608 l 581 595 m 663 463 q 661 464 663 464 q 660 463 660 464 q 653 462 656 462 q 652 463 652 462 q 663 465 652 463 l 663 463 m 581 574 q 580 570 580 571 l 580 569 q 581 578 581 576 l 581 574 m 583 467 q 591 465 589 465 q 583 467 585 465 m 612 397 q 603 396 610 397 q 597 385 601 393 q 591 374 593 377 l 590 372 l 593 378 q 593 380 593 379 q 602 397 596 384 l 612 397 m 577 560 q 578 557 578 560 q 576 552 578 554 l 577 551 l 577 560 m 622 397 q 614 397 620 397 l 614 397 l 622 397 m 653 652 q 656 642 656 648 q 654 647 656 644 q 653 652 654 650 m 524 414 l 521 408 q 503 376 516 397 q 502 374 503 376 q 501 373 502 373 q 524 413 516 399 l 524 412 q 523 410 524 410 q 517 418 522 410 l 515 419 q 520 416 515 418 l 523 416 q 524 415 524 415 l 524 414 m 521 714 q 528 716 525 716 q 530 715 529 716 q 523 714 525 715 l 521 714 m 634 460 l 616 460 q 634 460 620 460 l 634 460 m 370 391 q 368 396 370 393 q 366 401 366 399 q 364 404 365 404 q 370 391 368 398 m 488 701 q 487 700 488 701 q 486 699 486 700 l 485 699 q 456 671 468 688 l 456 670 q 448 657 454 668 l 448 658 q 446 652 448 658 q 445 652 446 652 q 488 701 458 683 m 438 528 q 436 537 436 532 q 438 530 437 534 l 438 528 m 313 323 q 311 326 312 323 q 310 327 311 327 l 310 328 q 309 330 310 328 q 308 332 309 332 l 313 323 m 501 372 q 498 369 500 370 q 498 370 498 370 l 498 366 q 494 361 496 365 q 491 357 492 359 q 501 372 497 367 m 432 568 q 431 567 431 568 l 432 567 l 432 568 m 581 593 q 581 586 581 589 q 581 581 581 583 l 581 593 m 304 625 q 306 614 306 623 q 304 625 305 618 m 407 216 q 391 227 395 224 q 399 222 394 225 q 407 216 405 218 m 323 523 l 323 524 l 324 522 q 325 517 325 519 l 325 516 q 323 523 323 519 m 573 625 l 572 625 l 572 626 q 558 640 568 634 q 573 625 568 636 m 467 466 q 464 468 465 467 q 463 471 463 470 l 462 472 l 467 466 m 514 420 l 520 416 q 515 419 515 418 l 517 418 l 516 418 q 515 419 516 419 q 514 420 514 420 m 451 493 q 449 496 450 494 q 448 498 448 498 l 446 494 l 446 495 q 447 501 446 496 q 451 493 449 498 m 597 510 q 595 511 595 510 q 610 506 602 508 q 612 505 610 505 q 614 505 614 505 q 619 504 615 505 l 621 504 q 626 503 623 503 q 631 504 629 503 l 631 505 l 631 505 q 641 506 631 505 l 641 505 l 644 505 q 652 526 651 516 q 659 557 658 542 l 660 557 q 661 563 661 561 l 661 564 q 661 569 661 566 q 662 575 662 572 l 663 583 l 663 585 q 664 595 664 590 q 663 604 664 600 l 663 605 l 662 608 q 656 642 661 629 q 653 652 656 648 q 651 658 653 653 l 651 659 q 647 667 648 665 l 647 667 q 610 704 633 692 q 602 707 610 705 q 590 712 594 712 l 589 712 q 591 711 591 712 q 568 716 576 716 l 562 718 l 560 718 q 550 718 555 718 q 541 718 545 718 l 539 717 l 541 716 q 530 715 541 715 q 528 716 529 716 q 521 714 525 716 l 523 714 q 501 707 510 712 l 500 707 q 491 703 493 705 l 488 701 q 445 652 458 683 q 444 649 444 650 q 445 652 445 650 q 446 652 446 652 q 441 642 441 643 l 441 643 l 439 635 q 439 635 439 635 q 435 627 435 629 q 437 629 436 627 q 434 617 434 624 l 434 614 l 433 616 q 433 606 433 607 q 432 600 433 601 q 431 598 431 599 l 431 597 q 431 589 431 596 l 431 577 q 431 569 431 571 l 431 567 q 432 568 431 568 l 432 565 q 436 537 435 543 q 438 528 436 532 l 438 530 q 447 501 443 511 q 446 495 446 496 l 446 494 l 448 498 q 452 490 449 494 q 454 484 454 484 l 454 484 q 463 471 460 474 l 463 471 q 516 418 484 437 l 517 418 q 523 410 522 410 q 524 412 524 410 l 524 413 q 501 373 516 399 l 501 372 q 491 357 497 367 l 491 357 q 483 346 492 358 l 483 345 q 436 291 448 301 q 420 312 420 311 q 393 351 416 317 q 390 354 390 353 l 391 354 l 391 355 q 372 389 387 362 q 370 390 372 389 l 370 391 q 364 404 368 398 l 364 407 q 363 406 363 407 q 359 415 359 414 l 360 414 q 347 444 360 414 q 345 451 347 449 l 345 452 l 342 460 q 338 469 340 463 l 338 470 q 338 474 338 472 l 337 476 q 336 475 336 476 q 332 492 335 481 q 327 509 328 503 l 328 508 l 328 507 q 326 514 326 514 q 325 516 325 514 l 325 517 q 324 522 325 519 l 323 524 l 323 523 q 319 539 322 528 q 316 556 317 550 q 317 558 317 557 q 315 564 317 560 l 315 562 l 311 581 l 311 585 q 310 589 311 589 l 310 588 q 308 601 309 593 q 306 614 307 610 q 304 625 306 623 q 302 640 304 631 l 302 641 q 260 642 281 642 q 217 641 239 642 q 220 640 220 640 q 217 638 220 639 q 226 579 220 610 q 225 577 225 578 q 227 571 225 575 l 227 572 q 228 568 227 571 q 229 565 229 566 l 229 564 q 231 547 229 560 l 232 545 q 217 625 224 583 q 216 640 216 637 l 216 642 l 218 642 q 303 642 233 642 q 437 292 331 414 q 522 413 487 342 q 498 429 504 425 q 488 439 496 431 q 437 526 451 473 q 429 585 429 557 q 447 660 429 627 q 515 714 468 701 q 550 719 531 719 q 570 718 559 719 q 616 703 591 715 q 644 675 631 691 q 664 593 664 642 l 664 590 q 645 505 663 541 q 625 502 635 502 q 584 515 603 502 q 570 530 571 524 q 573 543 570 530 q 580 590 580 570 q 572 625 580 612 q 549 640 563 640 q 536 637 543 640 q 509 590 509 626 q 521 533 509 567 q 621 460 546 460 q 663 465 640 460 q 665 433 665 449 q 663 404 665 418 l 663 463 l 663 465 q 652 463 652 463 q 653 462 652 462 q 650 461 652 461 q 647 462 648 462 q 646 461 646 462 q 637 460 638 460 l 634 460 q 616 460 620 460 l 616 460 l 610 460 q 600 462 609 462 l 600 462 q 595 465 597 465 q 593 464 594 465 q 591 465 591 464 q 583 467 589 465 q 580 468 582 468 q 576 469 577 469 q 524 522 541 486 q 513 561 517 536 l 513 576 q 512 592 513 587 q 517 618 512 600 q 535 638 528 635 l 540 642 l 541 642 q 538 640 541 642 q 541 640 539 640 l 541 640 l 555 640 q 572 626 564 637 l 572 625 q 577 618 577 620 q 576 616 577 617 q 578 612 578 615 l 578 613 q 581 595 578 613 l 581 578 q 580 569 581 576 q 578 557 579 562 q 577 560 578 560 l 577 551 l 576 552 q 575 545 576 549 q 573 537 574 540 q 570 533 570 536 q 571 530 570 532 l 571 530 q 594 510 583 510 l 597 510 m 616 397 q 617 397 616 397 q 623 397 619 397 l 616 397 m 614 397 l 603 397 q 614 397 605 397 l 614 397 m 555 640 l 541 640 q 548 642 545 642 q 555 640 552 642 l 555 640 m 501 373 q 502 374 502 373 q 503 376 503 376 l 498 369 q 501 372 500 370 l 501 373 m 265 428 q 267 422 266 427 l 264 423 l 267 423 q 266 420 267 420 l 265 428 z "},"Y":{"ha":971,"x_min":-87,"x_max":872,"o":"m 124 755 q 13 490 13 646 q 124 226 13 336 q 393 116 235 116 q 661 226 550 116 q 772 490 772 336 q 661 755 772 646 q 393 865 550 865 q 124 755 235 865 m 393 16 q 54 155 194 16 q -87 490 -87 294 q 54 827 -87 688 q 393 966 194 966 q 732 827 591 966 q 872 490 872 688 q 732 155 872 294 q 393 16 591 16 m 490 489 q 422 524 467 500 q 355 559 377 548 q 357 421 357 447 l 356 418 q 423 453 374 428 q 490 489 467 475 m 658 479 q 611 317 658 335 q 508 308 598 312 q 417 306 467 306 q 284 309 357 306 q 178 336 197 312 q 155 482 155 363 q 212 652 155 638 q 290 658 221 654 q 333 659 304 659 q 374 659 361 659 q 414 660 392 660 q 500 658 452 660 q 640 625 623 652 q 658 479 658 596 z "},"Z":{"ha":990,"x_min":-138,"x_max":835,"o":"m 76 758 q -37 490 -37 647 q 76 222 -37 333 q 349 111 189 111 q 621 222 508 111 q 733 490 733 333 q 621 758 733 647 q 349 869 508 869 q 76 758 189 869 m 349 8 q 4 149 146 8 q -138 490 -138 290 q 4 831 -138 690 q 349 971 146 971 q 692 831 550 971 q 835 490 835 690 q 692 149 835 290 q 349 8 550 8 m 417 736 q 541 634 541 729 q 538 608 541 622 l 538 607 l 538 607 q 378 623 513 623 q 319 618 325 623 q 309 578 315 614 q 288 445 296 492 q 289 444 288 444 q 275 366 283 416 q 263 288 267 310 l 212 288 q 153 297 156 288 l 153 306 q 213 681 153 305 q 236 736 221 734 l 417 736 m 541 593 l 541 589 q 518 518 541 557 q 481 475 509 503 q 407 445 457 452 l 415 446 q 411 447 415 447 q 320 441 396 447 l 303 435 l 296 427 q 296 436 296 431 q 317 567 304 482 q 328 606 323 602 q 385 611 333 611 q 540 595 516 611 l 541 593 m 591 500 q 439 349 579 355 q 437 350 437 349 q 413 349 431 350 q 391 288 400 347 q 388 271 389 282 q 385 254 386 260 q 366 209 378 213 l 276 209 q 274 265 275 210 q 286 339 279 288 q 299 413 293 387 l 297 412 q 323 429 298 427 q 416 435 401 435 q 420 434 420 435 q 488 464 463 441 q 526 508 517 492 q 549 581 549 547 l 549 587 l 550 585 q 591 515 589 564 l 591 500 z "},"a":{"ha":975,"x_min":154,"x_max":910,"o":"m 264 746 q 532 855 375 855 q 800 746 688 855 q 910 482 910 637 q 800 219 910 328 q 532 109 688 109 q 264 219 375 109 q 154 482 154 328 q 264 746 154 637 m 518 553 q 321 526 433 527 q 438 674 344 627 q 518 553 462 645 m 553 482 q 372 339 439 446 q 317 484 317 397 l 317 488 q 531 517 431 488 l 532 517 q 553 482 532 513 m 614 286 q 517 258 563 258 q 399 314 453 258 q 567 446 454 406 q 614 286 595 382 m 560 564 q 481 690 534 611 q 538 697 511 697 q 671 642 613 697 q 560 564 636 594 m 650 304 q 609 456 639 365 q 659 460 635 460 q 741 447 702 460 q 650 304 724 354 m 744 484 q 646 494 692 494 q 595 490 619 494 q 586 512 593 498 q 576 533 579 526 q 695 616 650 562 q 744 484 742 562 m 781 496 q 707 659 772 594 q 545 732 640 724 l 515 732 q 353 659 419 724 q 280 496 287 592 l 280 466 q 515 231 307 258 l 545 231 q 707 304 642 239 q 781 466 772 370 l 781 496 z "},"b":{"ha":983,"x_min":26,"x_max":779,"o":"m 136 744 q 402 853 246 853 q 668 744 558 853 q 779 482 779 635 q 668 220 779 328 q 402 111 558 111 q 136 220 246 111 q 26 482 26 328 q 136 744 26 635 m 440 557 q 438 553 439 553 q 422 539 433 542 l 420 538 q 417 538 420 538 q 371 537 394 537 q 325 538 348 537 q 315 541 323 538 q 309 546 312 542 q 303 553 304 549 q 302 554 303 554 q 301 559 301 558 q 300 566 300 563 q 300 570 300 568 q 306 583 302 579 l 306 584 q 324 594 313 593 l 327 594 q 371 595 349 595 q 415 594 393 595 q 425 591 422 594 l 426 591 q 428 590 427 591 q 431 588 429 590 q 439 577 435 586 q 440 575 440 576 l 441 572 q 443 566 443 569 q 441 561 443 564 l 440 557 m 525 394 q 519 381 524 385 q 514 375 518 376 q 501 370 510 370 l 498 370 q 413 369 456 369 q 327 370 370 369 l 324 370 q 315 372 318 370 q 300 394 302 380 l 300 402 q 303 410 300 407 q 305 414 304 413 q 315 422 309 420 q 319 427 317 427 l 319 425 l 321 425 q 325 426 322 425 q 413 427 369 427 q 501 426 457 427 q 505 425 503 425 l 507 425 l 507 427 q 511 422 508 427 q 517 418 514 422 q 522 410 521 415 q 525 402 525 407 q 526 397 526 399 q 525 394 526 395 m 637 506 q 635 512 635 507 q 621 532 631 527 q 579 538 612 532 q 574 538 576 538 q 565 544 567 541 q 558 551 560 546 q 555 557 555 554 q 553 564 553 560 l 553 566 q 552 573 553 568 l 552 578 q 547 605 548 600 l 544 613 l 543 616 q 540 625 542 618 q 534 636 536 629 q 528 646 530 641 q 524 650 524 648 q 500 675 521 654 q 495 678 496 675 q 486 684 492 679 q 477 690 478 690 l 477 690 l 480 688 l 479 688 q 460 696 465 694 q 453 699 454 699 l 452 699 q 449 700 450 699 q 439 703 441 701 q 428 704 436 703 q 410 707 413 707 q 408 707 408 707 l 410 706 l 332 706 q 319 705 331 705 q 304 703 317 705 q 296 701 301 701 q 295 700 296 700 l 294 700 l 291 699 q 283 696 290 699 l 283 696 q 281 695 282 696 q 279 694 280 694 q 271 691 276 692 q 269 690 271 690 q 264 688 267 688 q 256 683 261 684 q 212 640 231 666 q 212 638 212 638 q 203 624 210 636 q 202 619 203 619 l 202 620 q 195 610 195 611 q 199 612 195 610 q 190 576 193 595 l 189 564 l 189 400 l 190 387 q 195 363 191 378 q 195 361 195 362 l 195 360 q 202 344 199 349 q 205 336 204 336 q 256 281 225 302 q 251 282 252 282 q 267 275 251 281 q 269 274 268 275 q 271 273 271 273 q 281 269 273 272 l 281 269 q 291 264 287 267 q 319 259 304 262 q 332 258 331 258 l 493 258 q 507 259 495 259 q 550 271 529 262 l 569 281 l 570 281 q 610 320 593 298 q 616 328 613 325 q 617 330 616 330 q 621 337 617 332 q 625 347 623 342 q 627 352 625 348 q 635 384 632 365 q 639 401 639 397 l 639 402 q 637 400 638 402 l 637 506 z "},"c":{"ha":975,"x_min":87,"x_max":850,"o":"m 199 755 q 87 490 87 645 q 199 224 87 334 q 469 113 311 113 q 739 224 627 113 q 850 490 850 334 q 739 755 850 645 q 469 865 627 865 q 199 755 311 865 m 536 467 q 543 456 541 463 q 536 467 538 460 m 732 333 q 732 329 732 332 q 733 319 732 326 q 734 313 734 316 q 732 307 734 309 l 686 307 q 639 309 642 307 l 639 319 l 640 319 l 640 309 l 732 309 q 730 339 730 321 l 730 352 l 732 349 q 733 338 733 341 q 732 336 733 336 l 732 333 m 590 636 q 588 637 589 636 q 585 640 587 640 l 576 642 q 582 642 576 642 q 580 645 581 643 q 577 648 578 646 q 590 636 582 646 m 652 565 q 658 557 656 562 q 652 565 653 561 m 404 409 q 411 396 408 406 q 404 409 408 399 m 325 755 q 305 757 311 757 l 302 757 l 302 756 l 308 756 q 322 755 318 755 q 325 755 325 755 m 624 601 q 621 604 623 602 q 618 606 619 605 l 615 615 q 616 609 615 614 q 612 612 615 612 l 612 614 q 624 601 622 606 m 637 340 l 637 345 q 638 340 638 345 l 638 320 q 639 321 639 320 q 637 340 639 326 m 639 309 l 638 309 l 638 328 l 639 328 l 639 309 m 555 433 q 556 435 556 434 q 547 444 556 439 q 548 445 547 445 l 549 446 q 555 433 553 441 m 500 701 q 508 696 507 700 q 500 701 501 699 m 612 612 q 616 609 615 612 q 585 640 600 623 q 588 637 587 640 q 590 636 589 636 q 612 614 600 624 l 612 612 m 295 512 l 283 513 l 283 583 l 283 559 l 283 514 q 286 515 283 515 q 295 513 288 515 l 295 512 m 458 618 q 466 614 465 616 q 458 618 459 616 m 624 601 q 630 594 629 596 q 624 601 624 599 m 432 567 q 440 562 439 565 q 432 567 433 564 m 583 328 q 583 311 583 316 l 583 307 l 535 307 q 488 307 494 307 l 488 315 l 490 315 l 490 309 q 558 307 498 307 l 582 307 q 584 313 584 309 q 583 317 584 315 q 583 324 583 321 q 583 328 583 327 m 529 684 q 540 675 535 682 q 524 688 528 680 q 533 685 533 686 q 529 684 533 684 m 378 591 q 403 582 391 589 q 378 591 391 585 m 315 661 l 313 661 q 304 661 309 661 q 294 662 298 662 l 294 663 l 302 663 q 315 661 312 663 m 342 309 l 362 309 q 350 307 356 307 q 342 307 346 307 l 342 309 m 488 323 q 489 323 489 323 q 487 334 489 326 l 487 334 q 488 328 487 333 l 488 323 m 498 703 q 496 702 496 703 l 498 701 q 484 707 493 702 q 469 714 473 713 l 469 718 l 469 717 q 472 715 471 717 q 495 704 483 709 q 498 703 497 704 m 529 684 q 533 685 533 684 q 524 688 533 686 q 520 690 521 688 q 529 684 526 688 m 673 532 q 677 524 676 530 q 673 532 675 525 m 364 437 q 375 433 371 437 q 349 437 363 437 q 327 435 339 437 q 334 437 328 437 l 364 437 m 437 629 q 450 622 446 627 q 437 629 438 629 l 437 629 m 732 333 q 730 311 730 317 q 731 306 730 306 q 732 307 732 306 l 685 307 q 638 309 642 307 l 639 309 q 686 307 642 307 l 732 307 q 734 313 734 309 q 733 319 734 316 q 732 329 732 326 q 732 333 732 332 m 414 381 q 418 374 418 378 q 414 366 418 370 l 414 381 m 507 505 l 507 506 l 508 503 q 479 532 493 517 l 478 532 l 481 531 q 507 505 494 517 m 414 366 q 414 357 414 359 l 412 357 q 414 380 414 376 q 414 382 414 382 l 414 381 l 414 376 l 414 366 m 285 606 l 285 514 l 290 514 q 312 511 302 514 l 315 511 q 307 512 315 512 l 295 512 l 295 513 q 286 515 288 515 q 283 514 283 515 l 283 559 l 283 583 l 282 588 q 283 607 282 605 q 288 608 285 608 q 294 607 290 608 q 300 606 298 606 q 302 607 302 606 q 326 604 318 607 l 285 606 m 341 438 q 349 441 345 441 q 357 438 353 441 l 341 438 m 432 730 q 434 732 434 732 q 421 734 434 734 l 416 734 q 432 730 416 734 m 285 756 l 285 759 q 286 753 286 759 q 283 664 286 737 q 284 665 283 665 q 294 663 287 665 l 294 662 l 283 663 l 283 711 q 283 758 283 757 q 287 758 284 758 q 305 756 292 758 l 285 756 m 513 499 q 511 501 511 499 q 508 503 509 503 l 507 506 l 507 505 q 506 508 507 508 l 506 507 q 513 499 513 502 m 596 479 q 595 476 595 478 q 602 467 595 473 q 596 479 598 473 m 472 715 q 495 704 486 711 q 472 715 483 709 m 557 536 q 549 546 551 541 l 549 545 q 548 548 549 545 q 545 551 547 549 q 543 554 544 553 q 557 536 555 545 m 484 530 q 481 531 481 530 l 481 531 l 478 532 l 479 532 q 475 536 478 534 l 475 536 q 484 530 478 536 m 414 376 l 414 381 l 414 382 q 414 380 414 382 q 412 357 414 376 l 412 355 q 410 349 412 351 q 406 339 407 345 q 362 309 393 315 l 342 309 q 335 310 340 309 q 328 311 331 311 q 312 319 316 315 q 294 336 307 328 q 285 357 286 347 q 283 378 283 374 q 283 380 283 380 l 283 382 q 327 435 290 420 q 349 437 339 437 q 375 433 363 437 q 385 427 383 427 l 385 428 q 389 418 388 418 l 389 419 q 388 425 389 420 q 401 412 393 417 q 410 408 410 409 l 410 408 q 404 409 408 408 q 411 396 408 399 q 407 399 408 399 l 407 399 q 414 381 407 396 l 414 376 m 334 437 q 335 437 334 437 q 341 438 336 437 l 357 438 q 363 437 361 437 q 364 437 364 437 l 334 437 m 283 363 q 281 373 281 368 q 283 382 281 378 l 283 363 m 325 755 q 336 753 333 753 q 336 754 336 753 q 285 755 302 754 l 285 664 q 302 662 298 662 q 302 663 302 662 l 294 663 q 284 665 287 665 q 283 664 283 665 q 286 753 286 737 q 285 759 286 759 l 285 756 l 302 756 l 302 757 l 305 757 q 325 755 311 757 m 410 349 q 406 339 410 342 q 410 349 407 345 m 404 409 q 410 408 408 408 l 410 408 q 401 412 410 409 q 388 425 395 418 q 389 419 389 420 l 389 418 q 385 428 388 418 q 404 409 397 422 m 486 528 q 505 510 496 519 q 486 528 494 518 m 294 336 q 312 319 307 328 q 294 336 301 324 m 572 387 q 576 375 574 385 q 572 387 573 378 m 660 553 q 666 544 665 549 q 660 553 661 547 m 715 433 q 720 418 718 430 q 715 433 716 422 m 616 609 q 615 615 615 614 l 618 606 q 582 642 600 623 q 576 642 576 642 l 585 640 q 616 609 600 623 m 342 307 q 328 311 333 307 q 335 310 331 311 q 342 309 340 309 l 342 307 m 410 578 q 432 567 420 575 q 436 566 435 566 l 437 566 q 409 576 437 567 l 410 579 l 410 578 m 543 554 q 545 551 544 553 q 548 548 547 549 q 524 573 535 559 q 526 570 525 572 q 529 568 528 568 q 543 554 536 560 m 505 510 q 506 507 505 507 l 506 507 q 484 530 494 517 q 487 528 487 529 l 486 528 q 505 510 494 518 m 680 519 q 692 496 688 509 q 680 519 685 507 m 581 347 q 578 363 578 353 q 581 349 581 359 l 581 347 m 548 548 q 549 545 549 545 l 549 546 q 553 543 552 543 q 513 581 553 544 q 510 582 511 582 q 524 573 510 581 q 548 548 535 559 m 543 554 q 529 568 536 560 l 530 568 q 543 555 536 561 l 543 554 m 490 309 q 489 320 489 317 q 490 321 489 321 q 488 327 488 326 l 488 328 q 487 334 487 333 l 487 334 q 450 437 481 392 q 418 470 437 461 q 312 511 371 505 q 290 514 302 514 l 285 514 l 285 606 l 326 604 q 378 591 359 600 q 403 582 391 585 q 413 574 412 574 l 414 574 q 410 578 414 574 l 410 579 l 409 576 q 437 566 437 567 l 436 566 q 432 567 435 566 q 440 562 433 564 q 475 536 460 551 l 475 536 q 479 532 478 534 q 508 503 493 517 q 511 501 509 503 q 513 499 511 499 q 536 467 526 487 q 543 456 538 460 q 549 446 547 454 l 548 445 q 547 444 547 445 q 556 435 556 439 q 555 433 556 434 q 572 387 566 412 q 576 375 573 378 q 578 363 578 368 q 581 347 578 353 l 582 309 l 490 309 m 285 357 l 285 358 q 283 363 285 359 l 283 380 q 283 378 283 380 q 285 357 283 374 m 639 328 q 640 332 640 332 l 640 319 l 639 319 l 639 328 m 490 315 l 488 315 l 488 327 q 490 321 488 326 l 490 315 m 693 493 q 674 512 674 502 q 679 522 674 517 l 680 519 q 692 496 685 507 l 693 493 m 388 425 q 401 412 395 418 q 388 425 393 417 m 581 349 q 583 328 583 342 q 583 324 583 327 q 583 317 583 321 q 584 313 584 315 q 582 307 584 309 l 558 307 q 490 309 498 307 l 490 321 q 489 320 489 321 q 490 309 489 317 l 582 309 l 581 347 l 581 349 m 418 470 q 450 437 437 461 q 418 470 435 454 m 611 616 q 612 613 612 613 l 612 614 q 590 636 600 624 l 591 636 q 611 616 600 625 m 530 568 q 543 555 538 562 q 530 568 536 561 m 591 636 q 611 616 602 627 q 591 636 600 625 m 302 607 q 300 606 302 606 q 294 607 298 606 q 288 608 290 608 q 283 607 285 608 q 282 588 282 605 l 282 597 q 283 607 282 606 l 302 607 m 506 507 l 506 508 q 507 505 507 508 q 481 531 494 517 l 481 531 q 484 530 481 530 q 506 507 494 517 m 640 309 l 640 332 q 639 328 640 332 l 638 328 l 638 340 q 637 345 638 345 l 637 340 q 602 467 630 407 q 595 476 595 473 q 596 479 595 478 q 557 536 585 499 q 543 554 555 545 l 543 555 q 530 568 538 562 l 529 568 q 526 570 528 568 q 524 573 525 572 q 510 582 510 581 q 513 581 511 582 q 466 614 475 608 q 458 618 465 616 l 449 622 l 450 622 q 437 629 446 627 q 315 661 376 656 q 302 663 312 663 q 302 662 302 662 q 285 664 298 662 l 285 755 q 336 754 302 754 q 469 717 408 746 l 469 718 l 469 714 q 484 707 473 713 q 498 701 493 702 l 496 702 q 498 703 496 703 q 500 701 500 703 q 508 696 501 699 q 520 690 515 694 q 524 688 521 688 q 540 675 528 680 q 577 648 555 669 q 580 645 578 646 q 582 642 581 643 q 618 606 600 623 q 621 604 619 605 q 624 601 623 602 q 630 594 624 599 q 652 565 643 581 q 658 557 653 561 q 660 553 660 555 l 660 553 q 666 544 661 547 q 673 532 671 539 q 677 524 675 525 l 679 522 q 674 512 674 517 q 693 493 674 502 q 715 433 708 463 q 720 418 716 422 q 730 352 730 368 l 730 339 q 732 309 730 321 l 640 309 m 732 349 q 731 347 731 349 q 732 336 731 344 q 733 338 733 336 q 732 349 733 341 z "},"d":{"ha":1029,"x_min":136,"x_max":904,"o":"m 249 753 q 520 864 361 864 q 792 753 680 864 q 904 485 904 642 q 792 217 904 328 q 520 106 680 106 q 249 217 361 106 q 136 485 136 328 q 249 753 136 642 m 743 424 l 740 424 q 706 421 732 424 l 706 522 l 741 522 q 743 429 743 448 l 743 424 m 652 566 l 652 376 q 736 373 718 373 l 741 373 l 741 352 l 652 352 l 652 309 l 796 309 l 796 566 l 652 566 m 539 421 l 539 522 l 573 522 l 573 421 l 539 421 m 484 566 l 484 376 q 568 373 551 373 l 575 373 l 573 352 l 484 352 l 484 309 l 629 309 l 629 566 l 484 566 m 404 566 l 404 376 l 460 376 l 460 566 l 404 566 m 404 644 l 404 590 q 456 587 446 587 q 460 588 460 587 l 460 588 l 460 644 l 404 644 m 290 421 l 290 419 l 290 427 q 292 522 290 447 l 327 522 l 327 421 l 290 421 m 329 644 l 327 566 l 237 566 l 237 376 l 380 376 l 380 644 l 329 644 z "},"e":{"ha":975,"x_min":-3,"x_max":757,"o":"m 109 749 q 377 859 220 859 q 646 749 534 859 q 757 484 757 639 q 646 220 757 330 q 377 110 534 110 q 109 220 220 110 q -3 484 -3 330 q 109 749 -3 639 m 386 420 q 306 467 355 436 q 227 515 250 503 q 386 614 313 572 q 539 518 414 595 q 463 468 512 497 q 386 420 401 431 m 597 473 q 544 518 544 515 q 572 538 546 518 q 650 606 621 577 q 496 707 576 652 l 491 707 q 439 661 473 690 q 386 616 401 631 q 277 707 336 653 l 270 707 q 119 606 261 700 q 171 559 136 587 q 225 515 211 529 q 117 428 130 439 q 196 377 144 412 q 275 327 248 342 q 330 373 292 340 q 386 418 364 402 q 496 327 481 337 q 650 428 581 385 q 597 473 642 437 m 542 337 l 494 307 q 441 352 478 321 q 389 397 406 380 q 332 355 368 388 q 273 309 293 321 q 250 323 265 313 q 227 337 236 333 l 227 302 q 306 255 249 290 q 386 209 355 224 q 463 256 408 222 q 542 302 513 286 l 542 337 z "},"f":{"ha":983,"x_min":-17,"x_max":758,"o":"m 455 702 l 435 702 q 361 695 386 702 q 313 660 327 686 q 303 610 304 644 q 301 548 302 555 l 252 548 l 252 466 l 303 466 l 303 229 l 405 229 q 406 230 406 229 l 406 374 q 408 466 406 429 l 475 467 q 479 505 477 485 q 482 547 481 525 q 481 548 482 548 l 452 548 q 434 547 439 547 q 406 549 416 547 q 406 558 406 553 q 406 572 406 563 q 405 587 405 582 q 406 601 405 595 q 411 612 408 608 q 423 616 416 614 q 438 616 429 616 q 454 616 444 616 l 481 616 q 482 616 482 616 l 482 701 l 455 702 m 96 747 q 370 860 210 860 q 644 747 531 860 q 758 477 758 635 q 644 208 758 319 q 370 96 531 96 q 96 208 210 96 q -17 477 -17 319 q 96 747 -17 635 z "},"g":{"ha":1003,"x_min":106,"x_max":871,"o":"m 218 751 q 489 863 330 863 q 760 751 647 863 q 871 485 871 641 q 760 218 871 329 q 489 107 647 107 q 218 218 330 107 q 106 485 106 329 q 218 751 106 641 m 791 517 q 745 522 755 522 l 741 567 l 692 567 q 686 522 686 532 l 642 517 l 642 468 q 688 463 677 463 l 692 418 l 741 418 q 746 465 746 454 l 791 468 l 791 517 m 414 517 l 414 458 q 507 453 488 453 l 513 454 q 421 374 496 374 q 384 378 404 374 q 300 484 300 396 q 302 506 300 494 q 408 608 312 608 q 420 607 414 608 q 479 581 452 605 q 526 627 509 597 q 414 671 471 671 q 324 644 370 671 q 233 494 233 592 q 235 468 233 481 q 285 366 241 410 q 384 315 328 323 q 418 313 402 313 q 534 359 491 313 q 580 494 580 408 q 579 517 580 506 l 414 517 z "},"h":{"ha":975,"x_min":111,"x_max":868,"o":"m 222 754 q 490 863 332 863 q 757 754 646 863 q 868 490 868 644 q 757 227 868 336 q 490 117 646 117 q 222 227 332 117 q 111 490 111 336 q 222 754 111 644 m 601 405 q 498 347 580 347 q 468 348 484 347 q 382 408 399 355 q 377 432 377 422 q 396 450 377 450 q 414 448 404 450 q 433 427 423 444 q 449 401 444 406 q 488 387 463 387 q 510 390 498 387 q 547 422 547 397 q 546 431 547 427 q 454 473 543 446 q 385 545 385 494 q 488 618 385 616 l 494 618 q 562 601 536 618 q 592 557 592 581 q 591 548 592 552 q 570 528 587 528 q 558 530 564 528 q 537 553 550 532 q 515 574 528 569 q 490 580 504 580 q 468 576 480 580 q 439 549 439 569 l 439 548 q 468 522 439 531 q 512 511 471 521 q 589 477 570 497 q 606 433 606 458 q 601 405 606 420 m 718 394 q 710 425 714 413 q 701 471 701 454 l 701 483 q 635 636 701 575 q 492 692 574 692 l 488 692 q 458 690 458 691 l 448 696 q 404 708 433 703 l 384 708 q 267 591 281 693 l 267 571 q 273 541 269 552 l 284 519 l 283 486 q 343 335 283 396 q 495 274 405 274 q 528 275 528 274 l 536 269 q 581 257 551 262 l 600 257 q 718 375 703 271 l 718 394 z "},"i":{"ha":982,"x_min":-131,"x_max":630,"o":"m -20 768 q 250 879 92 879 q 519 768 408 879 q 630 503 630 659 q 519 239 630 349 q 250 128 408 128 q -20 239 92 128 q -131 503 -130 349 q -20 768 -130 659 m 425 229 q 506 316 500 239 q 507 372 507 337 q 507 431 507 397 q 505 510 505 477 q 506 550 505 534 q 385 549 421 549 l 362 550 q 384 472 384 508 q 382 452 384 462 q 318 364 372 393 q 258 348 288 348 q 201 363 230 348 q 131 451 143 391 q 129 473 129 461 q 151 550 129 508 q 76 551 112 551 q 7 550 40 551 q 6 432 6 530 q 7 314 6 326 q 75 233 12 254 q 172 229 86 229 l 425 229 m 456 606 q 417 602 452 602 q 380 607 384 602 q 377 646 377 610 q 381 684 377 681 q 413 687 383 686 l 422 687 q 456 683 452 687 q 460 644 460 679 q 456 606 460 611 m 507 566 q 503 648 503 630 l 503 654 q 423 729 491 721 l 353 729 q 245 730 330 729 q 184 731 212 731 q 138 730 158 731 l 138 606 q 119 608 123 608 l 117 730 l 104 730 q 104 728 104 730 l 104 606 q 85 608 90 608 q 83 607 83 608 q 81 718 81 691 l 81 726 q 75 725 79 726 q 70 724 71 724 l 70 720 q 68 606 70 699 q 50 608 54 608 q 48 607 48 608 l 48 711 q 5 594 5 688 q 6 566 5 581 l 163 566 q 180 578 163 566 q 256 606 218 606 q 329 582 292 606 q 350 566 350 568 l 507 566 m 205 425 q 184 474 184 445 l 184 479 q 244 547 187 538 q 258 549 252 549 q 304 532 284 549 q 329 481 327 512 l 329 476 q 286 411 329 430 q 253 404 269 404 q 205 425 227 404 m 338 532 q 259 574 309 574 q 244 574 252 574 q 172 526 197 568 q 157 482 159 504 l 157 477 q 189 404 157 432 q 256 378 217 378 q 267 378 261 378 q 354 466 347 385 q 355 476 355 471 q 338 532 355 506 z "},"j":{"ha":978,"x_min":-158,"x_max":608,"o":"m -46 753 q 224 864 66 864 q 496 753 383 864 q 608 486 608 643 q 496 219 608 330 q 224 109 383 109 q -46 219 66 109 q -158 486 -158 330 q -46 753 -158 643 m 212 572 q 201 619 211 597 q 94 690 168 690 q 81 689 87 690 q 23 669 47 686 q -31 572 -29 635 l -31 566 q 71 448 -31 464 q 94 446 83 446 q 181 488 145 446 q 212 568 212 522 l 212 572 m 473 573 q 455 634 472 609 q 356 690 418 690 q 343 689 350 690 q 260 646 292 684 q 231 568 231 612 q 232 557 231 563 q 296 461 237 493 q 353 446 325 446 q 420 468 388 446 q 473 566 473 505 l 473 573 m 267 315 q 241 307 252 307 q 219 332 223 307 q 218 338 218 335 q 232 361 218 353 q 248 366 239 366 q 265 361 256 366 q 268 386 265 359 q 235 395 250 395 q 194 372 212 395 q 182 339 182 355 q 196 304 182 321 q 239 283 214 283 q 269 290 253 283 q 267 315 269 309 m 67 434 l 68 423 q 66 287 68 391 l 100 287 l 100 434 l 67 434 m 470 390 q 458 392 464 392 q 429 372 441 392 l 429 389 l 399 389 q 398 338 398 364 q 399 287 398 313 l 433 287 l 433 290 q 463 362 433 362 q 469 361 465 362 q 469 376 469 366 l 470 390 m 346 389 l 317 347 l 317 434 l 283 434 l 283 287 l 317 287 q 318 333 318 322 l 317 337 q 331 312 322 329 q 345 287 340 295 q 382 288 373 288 l 385 288 l 349 343 q 366 366 354 350 q 382 389 376 380 l 346 389 m 130 389 l 131 382 q 130 287 131 359 l 163 287 l 163 290 q 163 389 163 309 l 130 389 m 130 432 l 130 406 q 161 408 153 408 l 163 432 l 130 432 m 24 389 q 23 399 23 395 q 35 413 23 413 q 47 410 39 413 q 48 422 47 413 q 50 435 49 431 q 27 437 37 437 q -10 397 -10 437 l -10 389 l -29 389 l -29 365 l -15 365 q -9 364 -12 365 l -9 287 l 24 287 l 24 364 q 49 365 26 364 q 47 387 47 382 l 24 389 z "},"k":{"ha":971,"x_min":-17,"x_max":747,"o":"m 95 749 q -17 483 -17 639 q 95 217 -17 328 q 365 106 207 106 q 635 217 524 106 q 747 483 747 328 q 635 749 747 639 q 365 860 524 860 q 95 749 207 860 m 283 697 q 285 699 283 699 q 288 697 288 699 l 283 697 m 412 462 q 410 463 410 462 l 410 463 q 412 465 410 464 l 412 462 m 488 315 q 477 305 484 309 q 488 315 481 311 m 596 479 q 599 477 599 479 l 599 477 q 596 479 596 477 m 599 474 q 602 472 602 474 q 599 473 599 472 l 599 474 m 566 502 q 568 500 568 502 l 568 500 q 566 501 566 500 l 566 502 m 574 500 q 576 497 576 499 q 574 499 574 497 l 574 500 m 578 497 q 581 495 581 497 l 581 494 q 578 496 578 495 l 578 497 m 513 441 q 515 439 515 441 l 515 439 q 513 441 513 439 m 515 437 q 518 434 518 436 q 515 436 515 434 l 515 437 m 523 427 q 526 425 526 426 l 526 424 q 523 426 523 424 l 523 427 m 465 576 q 467 574 467 575 l 467 573 q 465 576 465 573 m 470 568 q 473 566 473 568 q 470 567 470 566 l 470 568 m 447 586 q 450 584 450 585 l 450 583 q 447 586 447 583 m 321 677 q 323 674 323 676 q 321 676 321 674 l 321 677 m 303 694 q 306 692 306 694 q 303 694 303 692 l 303 694 m 298 697 q 300 695 300 696 l 300 694 q 298 697 298 694 m 602 444 q 599 439 600 444 q 584 421 594 428 l 583 421 q 581 418 581 421 q 570 417 570 418 l 574 416 q 571 414 571 416 l 543 414 l 543 414 q 541 416 543 416 l 541 416 q 526 424 541 417 l 526 425 q 523 427 526 426 q 521 430 523 428 q 518 434 518 432 q 515 437 518 436 l 515 439 q 513 441 515 441 l 513 449 q 511 454 513 454 l 511 462 q 513 467 511 462 l 513 472 l 513 472 q 515 474 515 472 l 515 477 l 516 477 q 518 479 517 477 l 518 482 q 523 487 521 482 q 525 490 524 490 l 526 490 q 530 494 528 490 l 533 494 q 536 497 535 494 l 539 497 q 541 500 541 497 l 543 500 q 548 502 548 501 l 566 502 l 566 501 q 568 500 566 500 l 574 500 l 574 499 q 576 497 574 497 l 578 497 l 578 496 q 581 494 578 495 l 584 494 q 596 482 589 487 l 596 479 q 599 477 596 477 l 599 473 q 602 472 599 472 l 602 444 m 432 302 q 435 300 435 302 q 432 302 432 300 l 432 302 m 268 302 q 270 300 270 302 l 270 300 q 268 302 268 300 l 268 302 m 250 320 q 252 318 252 320 l 252 317 q 250 320 250 318 m 541 416 q 543 414 543 416 l 543 414 q 541 416 541 414 m 477 538 q 475 532 476 532 q 477 538 476 538 m 513 467 q 511 462 511 462 q 513 467 512 467 m 602 444 q 599 439 600 439 q 602 444 600 444 m 326 330 q 323 325 324 325 q 326 330 325 330 m 439 300 q 445 297 445 298 q 439 300 439 299 m 273 300 q 277 297 277 298 q 273 300 273 299 m 495 335 q 492 328 494 328 q 495 335 494 335 m 450 502 q 417 469 435 484 q 450 502 431 488 m 417 315 q 427 305 423 311 q 417 315 420 309 m 495 335 q 492 328 494 335 l 492 325 l 493 325 q 494 324 494 325 q 488 317 494 323 l 488 315 q 477 305 481 311 l 475 305 q 473 302 473 305 l 469 302 q 467 300 468 302 l 463 300 q 460 297 460 300 l 445 297 q 439 300 445 298 l 435 300 q 432 302 435 302 q 434 303 434 302 l 427 305 q 417 315 423 311 q 414 319 416 317 q 412 323 412 321 q 407 328 411 326 l 407 326 q 404 333 406 326 q 397 340 402 338 q 396 338 397 338 l 394 345 q 389 351 393 348 q 387 354 389 352 q 384 358 385 357 q 379 363 383 361 l 379 361 q 376 368 378 361 q 369 376 374 374 q 368 374 369 374 l 366 380 q 361 386 366 384 q 359 390 361 388 q 356 393 357 392 q 351 399 355 396 q 351 397 351 397 l 349 404 q 343 408 348 406 l 345 408 q 338 406 345 408 q 334 401 336 406 l 336 401 q 328 399 336 400 q 326 396 326 399 l 326 330 q 323 325 325 330 l 323 320 l 323 320 q 321 317 321 320 l 321 315 q 308 302 313 311 l 305 302 q 303 300 303 302 l 299 300 q 296 297 296 300 l 277 297 q 273 300 277 298 l 270 300 l 270 300 q 268 302 270 302 l 265 302 q 260 307 264 305 q 258 309 258 308 l 258 310 q 252 315 257 313 l 252 318 q 250 320 252 320 l 250 324 q 248 328 250 327 l 248 669 l 248 669 q 250 671 250 669 l 250 674 l 250 674 q 252 677 252 674 l 252 679 q 255 682 255 679 q 262 689 257 687 q 265 692 264 689 l 269 692 q 270 694 270 692 l 273 694 q 275 697 275 694 l 298 697 q 300 694 298 694 l 303 694 l 303 694 q 306 692 303 692 l 308 692 q 321 679 313 684 l 321 676 q 323 674 321 674 l 323 667 q 326 664 323 665 q 328 638 328 655 q 324 583 328 617 q 321 539 321 557 q 326 507 321 517 q 334 510 326 510 q 349 525 342 515 q 355 530 351 526 q 361 535 358 534 q 376 550 370 541 q 382 555 379 551 q 389 560 386 559 q 401 573 397 565 q 406 575 404 573 q 409 578 408 578 q 412 581 412 578 l 415 581 q 417 583 416 581 l 420 583 q 422 586 422 583 l 447 586 q 450 583 447 583 l 455 583 q 460 578 455 581 l 458 578 q 465 576 458 577 q 467 573 465 573 l 467 575 q 470 568 468 575 l 470 567 q 473 566 470 566 q 474 554 473 554 l 475 557 l 475 556 q 477 553 475 553 l 477 538 q 475 532 476 538 l 475 530 l 474 530 q 473 528 473 530 l 473 525 l 472 525 q 470 522 470 525 q 450 502 461 511 q 417 469 431 488 q 412 465 414 469 q 410 463 410 464 l 410 463 q 412 462 410 462 l 412 464 q 414 456 412 464 q 419 452 415 454 q 422 448 420 450 q 425 444 424 446 q 429 439 425 441 q 430 441 429 441 l 432 434 q 437 429 433 431 q 437 431 437 431 q 439 424 438 431 q 445 418 440 421 q 447 415 445 417 q 450 411 449 413 q 455 406 450 408 l 455 408 q 457 401 456 408 q 463 396 458 398 l 463 398 q 465 391 463 398 q 470 386 465 388 q 472 382 470 384 q 475 378 475 380 q 480 373 475 376 q 481 375 480 375 l 483 368 q 488 363 483 366 l 488 361 q 492 353 490 355 l 492 351 q 495 345 492 347 l 495 335 m 308 692 q 321 679 316 687 q 308 692 313 684 m 584 494 q 596 482 591 490 q 584 494 589 487 m 530 494 q 526 490 528 490 q 530 494 528 494 m 523 487 q 518 482 521 482 q 523 487 520 486 m 338 406 q 334 401 336 401 q 338 406 336 406 m 511 454 q 513 449 513 454 l 513 446 q 511 452 511 447 l 511 454 m 401 573 q 389 560 397 565 q 401 573 394 568 m 321 315 q 308 302 316 307 q 321 315 313 311 m 566 414 q 557 410 566 410 q 548 414 549 410 l 566 414 m 376 550 q 361 535 370 541 q 376 550 367 544 m 349 525 q 334 510 342 515 q 349 525 339 519 m 602 467 q 604 458 604 467 q 602 449 604 450 l 602 467 m 455 583 q 460 578 459 581 q 455 583 455 581 m 432 434 q 437 429 437 431 q 432 434 433 431 m 425 444 q 429 439 429 441 q 425 444 425 441 m 414 456 q 419 452 419 454 q 414 456 415 454 m 543 500 q 547 502 544 502 l 548 502 q 543 500 548 501 m 296 297 q 299 300 296 300 l 300 300 q 296 297 300 297 m 460 297 q 463 300 460 300 l 465 300 q 460 297 464 297 m 439 424 q 445 418 444 422 q 439 424 440 421 m 450 411 q 455 406 454 409 q 450 411 450 408 m 343 408 q 349 404 348 406 q 343 408 344 406 m 457 401 q 463 396 462 399 q 457 401 458 398 m 351 399 q 356 393 355 396 q 351 399 351 395 m 465 391 q 470 386 469 389 q 465 391 465 388 m 361 386 q 366 380 366 384 q 361 386 361 383 m 475 378 q 480 373 479 376 q 475 378 475 376 m 483 368 q 488 363 487 366 q 483 368 483 366 m 379 363 q 384 358 383 361 q 379 363 379 360 m 389 351 q 394 345 393 348 q 389 351 389 348 m 407 328 q 412 323 411 326 q 407 328 407 325 m 252 315 q 258 310 257 313 q 252 315 253 312 m 260 307 q 265 302 264 305 q 260 307 260 304 m 429 586 q 435 581 432 581 q 439 586 437 581 l 429 586 m 492 325 l 492 323 q 488 317 492 319 q 494 324 494 323 q 493 325 494 325 l 492 325 m 488 361 q 492 354 492 359 l 492 353 q 488 361 490 355 m 248 328 q 250 324 250 327 l 250 323 q 248 326 248 323 l 248 328 m 492 351 q 495 347 495 349 l 495 345 q 492 351 492 347 m 475 557 q 477 554 477 557 l 477 553 q 475 556 475 553 l 475 557 m 323 669 q 326 665 326 668 l 326 664 q 323 667 323 665 l 323 669 m 581 418 q 583 421 581 421 l 584 421 q 581 418 583 418 m 571 414 q 574 416 571 416 q 572 414 573 414 l 571 414 m 326 396 q 328 399 326 399 q 326 396 328 396 l 326 396 m 397 340 q 404 333 402 338 q 397 340 399 335 m 321 317 q 323 320 321 320 l 323 320 q 321 317 323 317 m 467 300 q 469 302 468 302 l 470 302 q 468 300 469 300 l 467 300 m 303 300 q 305 302 303 302 l 306 302 q 304 300 305 300 l 303 300 m 473 302 q 475 305 473 305 q 473 302 475 302 l 473 302 m 369 376 q 376 368 374 374 q 369 376 371 370 m 252 679 q 254 682 253 682 l 255 682 q 252 679 255 679 m 250 674 q 252 677 250 677 q 250 674 252 674 l 250 674 m 248 669 q 249 671 248 671 l 250 671 q 248 669 250 669 l 248 669 m 275 697 q 273 694 275 694 q 275 697 273 697 m 268 692 q 269 694 268 694 l 270 694 q 269 692 270 692 l 268 692 m 262 689 q 264 692 262 692 l 265 692 q 262 689 264 689 m 419 583 q 422 586 420 586 q 420 583 422 583 l 419 583 m 409 578 q 411 581 410 581 l 412 581 q 409 578 412 578 m 414 581 q 416 583 414 583 l 417 583 q 415 581 416 581 l 414 581 m 473 528 q 474 530 473 530 l 475 530 q 473 528 475 528 l 473 528 m 470 522 q 472 525 470 525 l 473 525 q 470 522 472 522 m 513 472 q 515 474 513 474 l 515 474 q 513 472 515 472 l 513 472 m 515 477 q 517 479 515 479 l 518 479 q 516 477 517 477 l 515 477 m 533 494 q 535 497 533 497 l 536 497 q 533 494 535 494 m 538 497 q 541 500 538 500 q 539 497 541 497 l 538 497 z "},"l":{"ha":977,"x_min":9,"x_max":770,"o":"m 121 749 q 390 859 232 859 q 659 749 547 859 q 770 484 770 639 q 659 218 770 328 q 390 108 547 108 q 121 218 232 108 q 9 484 9 328 q 121 749 9 639 m 283 594 l 276 593 q 189 595 256 593 q 189 593 189 595 l 189 294 l 281 294 q 283 444 283 351 l 283 594 m 229 743 q 181 690 181 737 l 181 689 q 231 635 182 635 q 242 635 236 635 q 290 682 286 640 l 290 689 q 273 730 290 713 q 237 744 258 744 q 229 743 233 744 m 606 571 q 526 602 578 602 l 515 602 q 431 553 463 600 l 431 595 q 347 593 366 593 l 340 594 l 340 294 l 347 295 q 434 294 368 295 q 435 334 435 309 q 435 375 435 352 q 434 425 434 405 q 435 458 434 446 q 443 494 436 481 q 484 523 458 523 q 513 515 496 523 q 538 393 538 504 l 538 294 q 586 294 562 294 q 633 294 610 294 q 634 292 633 292 q 635 372 635 292 l 635 448 q 606 571 634 537 z "},"m":{"ha":983,"x_min":109,"x_max":871,"o":"m 220 752 q 490 863 332 863 q 760 752 648 863 q 871 486 871 642 q 760 220 871 331 q 490 110 648 110 q 220 220 332 110 q 109 486 109 331 q 220 752 109 642 m 560 715 q 498 648 507 710 q 496 631 496 640 q 551 569 496 582 q 583 565 568 565 q 644 635 642 565 l 644 640 q 576 716 644 716 q 560 715 568 716 m 276 629 q 308 588 276 597 q 332 584 321 584 q 369 627 366 584 l 369 630 q 323 675 369 671 l 317 675 q 276 629 276 675 m 414 687 q 378 641 378 678 l 378 634 q 416 582 380 591 q 444 578 431 578 q 485 628 485 578 l 485 633 q 438 690 483 690 q 414 687 427 690 m 547 550 q 500 524 544 549 q 444 566 491 560 q 429 567 436 567 q 375 543 394 567 q 330 574 365 574 q 312 573 321 574 q 260 524 262 564 l 260 403 l 356 403 q 359 356 359 363 l 359 355 l 468 355 l 468 262 q 666 267 625 267 l 675 266 l 675 311 q 669 469 675 437 q 574 553 649 553 q 547 550 562 553 z "},"n":{"ha":981,"x_min":134,"x_max":901,"o":"m 245 751 q 134 484 134 640 q 245 216 134 327 q 517 104 358 104 q 789 216 677 104 q 901 484 901 327 q 789 751 901 640 q 517 863 677 863 q 245 751 358 863 m 507 463 q 507 452 507 460 q 508 442 508 446 l 508 441 q 507 463 507 448 m 431 562 l 430 562 l 430 567 l 431 567 l 431 562 m 292 509 l 285 509 l 285 512 q 286 524 286 516 l 286 526 q 286 527 286 526 q 289 528 288 528 q 291 524 291 528 q 292 514 291 518 l 292 509 m 374 582 q 373 580 374 580 q 376 585 373 585 q 380 583 378 585 l 380 583 q 377 583 378 583 q 374 582 374 583 m 395 555 l 395 550 l 394 550 l 394 555 l 395 555 m 439 431 q 439 437 439 432 l 439 435 l 439 431 m 695 568 l 693 568 q 692 568 692 568 q 694 570 692 569 q 694 571 694 571 l 694 570 l 695 568 m 526 560 l 526 574 q 527 560 526 572 l 526 560 m 765 529 q 771 525 770 526 q 765 529 766 528 m 387 476 q 387 477 387 476 q 387 481 387 479 l 387 476 m 307 526 l 307 524 q 307 515 307 521 l 306 515 l 307 526 m 502 416 q 500 405 502 407 q 501 409 500 406 l 501 413 l 502 416 m 507 473 q 507 489 507 486 l 507 490 l 507 473 m 456 460 q 455 445 456 456 q 454 429 454 435 q 453 427 453 428 q 454 423 453 425 l 454 422 q 452 420 452 421 q 454 416 452 418 l 454 415 q 452 413 452 414 q 453 410 452 412 q 452 404 453 406 l 452 403 l 451 403 q 447 401 449 401 q 444 403 446 401 l 442 403 l 442 404 q 444 401 444 401 q 441 409 444 402 l 441 411 q 442 414 442 413 q 440 416 442 416 l 440 418 q 441 422 441 420 q 439 425 441 423 l 439 427 q 441 430 441 429 q 439 432 441 431 l 439 435 q 441 437 441 436 q 439 439 441 439 l 439 437 l 438 460 q 456 460 459 460 m 304 502 q 305 506 305 505 l 305 507 l 304 502 m 487 591 l 486 591 l 486 598 l 487 598 l 487 591 m 501 574 q 502 576 502 574 q 501 585 502 579 l 501 574 m 418 578 l 418 578 q 418 570 418 572 l 418 578 m 410 474 l 410 467 l 410 474 l 410 474 m 528 460 q 526 426 528 437 l 526 427 q 527 444 526 433 q 528 460 528 456 m 776 418 q 773 416 774 416 l 776 418 m 370 500 l 371 500 q 370 492 370 494 l 370 500 m 252 475 l 252 473 l 251 475 l 252 475 m 526 581 l 526 595 q 526 581 526 592 l 526 581 m 305 508 l 306 508 l 305 503 l 305 508 m 509 418 q 509 423 509 418 l 509 420 l 509 418 m 362 507 l 362 510 q 361 513 362 512 q 361 532 361 520 q 360 551 360 545 l 360 555 q 362 507 361 541 m 488 609 l 488 601 l 487 601 l 487 609 l 488 609 m 415 471 l 414 471 q 415 483 415 481 l 415 471 m 478 565 l 478 559 l 477 559 l 477 565 l 478 565 m 405 591 q 401 593 404 593 l 400 593 q 396 590 397 593 q 399 597 397 597 q 406 592 402 597 l 405 591 m 724 538 q 730 538 727 538 q 736 538 733 538 l 724 538 m 503 498 q 503 509 503 500 l 503 512 l 503 512 l 503 498 m 521 627 q 518 628 519 628 q 515 627 517 628 q 517 628 516 628 q 521 627 519 628 m 528 471 l 528 463 l 528 471 l 528 471 m 441 592 l 441 592 q 441 585 441 586 l 441 592 m 484 471 l 485 471 q 484 467 484 468 l 484 471 m 252 473 q 248 437 252 472 l 248 434 q 252 461 248 436 q 240 460 252 460 q 239 464 240 463 l 239 471 q 241 481 240 474 q 242 491 241 488 q 243 495 243 491 q 245 498 244 498 q 247 496 246 498 q 249 488 249 492 q 250 483 250 486 l 251 475 l 252 473 m 463 578 q 464 585 464 584 l 464 586 l 463 578 m 430 567 l 430 577 q 431 567 430 575 l 430 567 m 439 549 l 440 549 q 439 536 439 534 l 439 549 m 433 464 l 433 464 l 433 470 l 433 470 l 433 464 m 431 553 l 431 562 q 431 553 431 560 l 431 553 m 485 513 q 486 528 486 523 q 485 530 486 530 l 485 513 m 364 467 q 363 471 364 468 l 364 467 m 478 548 l 477 559 l 478 559 l 478 548 m 456 500 q 455 509 456 502 l 456 509 l 456 500 m 370 488 l 370 488 q 370 480 370 481 l 370 488 m 663 612 q 662 614 663 613 q 661 615 661 614 q 664 612 661 615 l 663 612 m 437 462 q 437 467 437 465 q 437 473 437 471 l 437 462 m 326 477 q 324 465 326 473 q 325 477 324 469 l 326 477 m 371 500 l 370 500 l 370 505 l 371 505 l 371 500 m 373 570 l 372 570 q 373 578 373 577 l 373 570 m 283 506 q 282 496 283 496 q 283 506 282 500 m 508 442 q 510 439 510 441 q 509 437 510 438 q 508 439 508 438 l 508 442 m 431 547 l 431 543 l 431 543 l 431 547 l 431 547 m 465 589 q 465 576 465 588 l 464 576 l 464 586 l 465 589 l 465 589 m 364 473 q 365 467 365 470 q 364 460 365 464 l 364 473 m 281 475 q 281 484 281 481 l 281 475 m 486 536 l 486 527 l 485 527 l 485 536 l 486 536 m 797 486 q 798 482 798 484 l 797 486 m 698 559 q 700 554 699 558 q 698 559 699 555 m 503 511 q 503 512 503 511 q 503 518 503 514 l 503 511 m 502 416 l 501 413 q 500 417 500 416 q 502 419 500 418 l 502 416 m 602 642 q 591 644 596 642 l 595 644 q 598 643 596 644 q 602 642 601 643 m 526 568 l 510 568 l 510 621 q 513 627 511 625 q 515 627 514 627 l 515 627 q 518 628 517 628 q 521 627 519 628 l 522 627 q 524 621 524 625 q 525 614 525 615 l 525 595 q 526 588 526 589 l 526 568 m 528 490 q 527 505 528 493 l 528 505 l 528 490 m 705 534 l 702 541 l 703 541 q 703 534 703 536 l 705 534 m 369 463 q 368 467 368 465 q 369 470 368 469 l 369 463 m 439 481 l 438 481 l 438 488 l 439 488 l 439 481 m 394 420 q 395 418 395 420 l 395 416 q 394 420 395 416 m 370 468 l 369 468 l 369 473 l 370 473 l 370 468 m 486 583 q 487 597 487 593 q 486 601 487 601 l 486 583 m 418 583 q 418 591 418 589 q 418 593 418 593 l 418 583 m 430 576 l 429 576 l 429 585 l 430 585 l 430 576 m 456 491 l 456 502 q 456 491 456 500 l 456 491 m 394 422 q 392 460 393 432 l 394 419 l 394 422 m 498 614 q 498 612 498 613 l 500 612 q 496 614 497 614 l 496 614 l 498 614 m 501 591 l 501 605 q 502 591 501 602 l 501 591 m 691 576 q 684 588 685 587 l 684 589 q 692 576 686 587 l 691 576 m 456 515 l 456 509 l 455 509 l 455 515 l 456 515 m 478 539 l 478 550 q 479 539 478 548 l 478 539 m 457 460 l 456 460 l 456 470 l 457 470 l 457 460 m 395 565 l 395 565 q 395 555 395 557 l 395 565 m 341 464 q 342 463 342 464 q 341 459 342 462 l 340 460 q 326 458 330 458 q 325 459 325 458 q 324 464 324 463 q 326 477 326 473 l 326 488 q 326 488 326 488 l 326 489 q 327 493 326 490 q 328 503 327 496 l 328 507 q 328 509 328 508 q 328 510 328 509 l 329 510 q 337 509 331 510 q 338 506 337 507 q 338 503 338 504 q 339 506 338 506 l 339 494 q 340 484 339 484 q 340 485 340 484 l 340 481 q 341 464 341 481 m 462 511 q 463 522 463 519 q 462 525 463 525 l 462 511 m 372 562 l 373 562 q 372 554 372 555 l 372 562 m 510 591 l 509 591 l 509 598 l 510 598 l 510 591 m 477 587 q 474 591 476 587 l 473 591 q 477 587 477 589 m 753 535 q 758 533 757 534 q 753 535 753 534 m 452 593 q 453 590 453 591 l 453 589 q 452 591 453 591 q 452 593 452 589 l 451 593 l 452 593 m 406 591 q 406 589 406 589 l 406 588 q 406 585 406 587 q 405 588 405 585 l 406 591 m 267 414 q 265 412 266 412 q 264 415 264 412 q 267 414 266 414 l 267 414 m 454 412 q 452 404 454 405 q 453 410 453 406 q 454 412 454 411 m 418 588 l 418 588 l 418 593 q 418 594 418 594 l 418 588 m 432 496 l 432 507 l 433 496 l 432 496 m 292 514 q 291 524 291 518 l 290 526 q 292 514 290 525 l 292 514 m 451 403 q 447 400 449 400 q 444 403 446 400 q 447 401 446 401 q 451 403 449 401 m 422 401 q 418 410 418 402 l 418 410 q 422 401 418 403 m 385 524 l 385 532 q 385 524 385 530 l 385 524 m 454 560 l 454 555 l 454 555 l 454 560 l 454 560 m 370 473 l 369 473 q 370 481 370 480 l 370 473 m 487 601 l 488 601 q 487 594 487 595 l 487 601 m 526 614 l 525 614 l 525 620 l 526 620 l 526 614 m 477 574 q 477 575 477 574 q 477 581 477 577 l 477 574 m 417 551 l 416 551 q 417 562 417 560 l 417 551 m 408 509 l 394 509 l 394 540 q 395 550 394 538 l 395 555 q 395 565 395 557 l 395 570 q 397 570 395 570 q 406 568 399 570 q 407 564 407 566 q 406 563 407 563 l 406 559 q 407 551 407 552 l 407 546 q 408 537 408 538 l 408 533 q 408 524 408 527 q 408 522 408 522 l 408 509 m 431 518 l 431 514 q 432 515 432 514 q 431 518 432 516 m 364 475 q 363 488 363 479 q 362 501 363 496 l 362 505 q 364 475 363 498 m 484 465 q 485 448 484 448 l 485 449 q 484 470 484 460 q 484 484 484 477 l 484 465 m 384 549 l 383 549 l 383 564 q 384 562 384 564 q 383 560 384 562 q 384 556 383 557 l 384 549 m 431 524 l 431 534 q 432 524 431 532 l 431 524 m 454 426 q 455 425 455 426 q 454 423 455 425 q 453 427 453 425 q 454 429 453 428 l 454 426 m 430 568 l 418 568 l 418 570 q 418 578 418 572 l 418 589 q 419 594 418 590 l 419 593 l 422 598 q 424 600 423 600 q 426 598 425 600 q 429 595 429 595 q 429 587 429 588 l 429 576 l 430 569 l 430 568 m 371 509 l 370 509 q 371 518 371 519 l 371 509 m 371 516 l 372 516 q 371 512 371 513 l 371 516 m 525 620 q 524 621 525 621 q 522 627 524 625 q 526 620 525 625 l 525 620 m 359 551 l 359 559 l 360 559 l 359 551 m 480 460 q 478 425 479 435 l 478 426 q 479 444 478 433 q 480 460 479 456 m 509 425 q 509 426 509 425 q 509 431 509 427 l 509 425 m 281 475 l 281 456 q 280 465 280 460 q 281 475 280 470 m 479 533 l 479 527 l 478 527 l 478 533 l 479 533 m 478 565 l 477 565 l 477 570 l 478 570 l 478 565 m 487 413 q 488 410 488 412 q 487 408 488 409 l 487 413 m 478 415 l 477 413 q 476 416 476 415 q 478 418 476 418 l 478 415 m 509 523 l 508 523 l 508 531 l 509 531 l 509 523 m 370 497 l 370 497 q 370 505 370 504 l 370 497 m 395 561 l 395 555 l 394 555 l 394 561 l 395 561 m 796 450 q 795 447 796 448 q 796 450 795 449 m 456 485 l 456 485 l 456 491 l 456 491 l 456 485 m 416 519 q 416 531 416 528 l 416 532 l 416 519 m 295 486 q 292 514 295 486 q 290 526 290 525 l 291 524 q 289 528 291 528 q 286 527 288 528 q 288 528 287 528 q 290 528 289 528 q 295 486 290 527 m 526 614 l 526 608 l 525 608 l 525 614 l 526 614 m 386 497 q 385 503 385 499 q 385 509 385 508 q 384 529 385 515 q 383 549 384 542 l 384 549 l 384 542 q 385 535 385 537 q 385 532 385 533 q 385 530 385 530 l 385 524 q 385 520 385 521 l 385 513 l 386 509 l 386 497 m 347 475 l 347 471 q 347 467 347 468 l 347 475 l 347 475 m 394 547 q 395 555 395 553 q 394 557 395 557 l 394 547 m 264 514 q 265 512 265 513 q 264 509 265 511 l 263 511 l 263 506 l 262 506 l 264 514 m 477 570 l 477 581 q 478 570 477 579 l 477 570 m 528 460 l 508 460 q 507 463 508 463 l 507 486 q 508 500 507 489 l 508 507 l 509 509 l 527 509 l 527 505 q 528 490 528 493 l 528 471 l 528 463 l 528 460 m 479 533 l 478 533 l 478 539 l 479 539 l 479 533 m 510 598 l 509 598 l 509 606 l 510 606 l 510 598 m 526 573 l 526 566 l 526 566 l 526 573 l 526 573 m 372 412 q 373 414 373 412 q 372 417 373 415 l 372 412 m 416 503 l 415 503 q 416 515 416 512 l 416 503 m 454 575 l 454 570 l 453 570 l 453 575 l 454 575 m 535 403 q 537 401 536 402 q 535 402 536 402 l 535 403 m 387 488 l 386 488 l 386 492 l 387 492 l 387 488 m 328 503 q 327 493 327 496 l 326 493 q 327 503 326 498 l 328 503 m 452 593 l 451 593 l 452 593 q 446 599 448 599 q 441 592 443 599 l 441 592 q 446 595 441 595 l 448 595 q 452 593 451 595 m 406 576 l 406 576 l 406 585 q 406 588 406 587 l 406 576 m 454 423 q 455 425 455 425 q 454 426 455 426 l 454 423 m 406 563 q 407 564 407 563 q 406 568 407 566 l 406 563 m 504 498 l 504 490 l 503 490 l 503 498 l 504 498 m 509 523 l 509 509 l 508 507 l 508 523 l 509 523 m 395 408 q 395 414 395 408 l 395 411 l 395 408 m 370 488 l 370 488 l 370 492 l 370 492 l 370 488 m 486 543 l 486 526 l 486 526 l 486 543 l 486 543 m 380 401 q 378 400 378 400 q 375 402 376 400 q 380 401 376 401 m 463 515 l 462 515 l 462 522 l 463 522 l 463 515 m 393 532 q 394 543 394 541 l 393 532 m 339 494 q 340 485 340 491 q 340 484 340 484 q 339 494 339 484 m 509 539 l 509 531 l 508 531 l 508 539 l 509 539 m 416 428 q 414 463 416 439 l 415 463 q 416 446 415 458 q 416 429 416 436 l 416 428 m 503 424 l 502 422 q 500 425 500 424 q 503 427 500 427 l 503 424 m 430 585 l 429 585 l 429 594 q 430 591 429 593 l 430 585 m 504 476 q 503 490 504 474 l 504 490 l 504 476 m 371 509 l 371 512 q 372 516 371 513 q 372 533 372 522 l 372 554 q 373 562 372 555 l 373 568 l 382 568 q 383 564 383 563 l 383 549 q 384 529 384 542 q 385 509 385 515 l 371 509 m 478 420 l 479 422 q 478 422 479 422 l 478 420 m 439 439 q 441 437 441 439 q 439 435 441 436 l 439 437 l 439 439 m 798 479 q 799 467 799 470 l 799 465 q 798 465 798 465 q 798 460 798 463 q 665 460 747 460 l 532 460 l 532 463 l 532 511 q 546 509 533 509 l 785 509 l 784 509 q 783 513 783 509 q 784 512 782 513 q 787 508 785 510 l 790 503 q 791 500 791 503 q 793 496 793 498 q 797 486 796 492 l 798 482 q 798 479 798 481 m 454 545 q 454 555 454 547 l 454 555 l 454 545 m 480 460 q 479 444 479 456 q 478 426 478 433 q 477 424 477 425 q 478 420 477 422 l 478 418 q 476 416 476 418 q 477 413 476 415 q 476 404 476 405 q 475 406 476 406 l 475 402 l 474 402 l 467 403 l 465 405 l 464 406 q 465 410 465 409 q 463 414 465 413 l 463 416 q 465 419 465 418 q 463 422 465 421 l 463 424 q 465 427 465 426 q 463 430 465 429 l 463 433 q 464 435 464 434 q 462 439 464 437 l 462 435 l 461 460 l 462 460 l 479 460 q 480 460 479 460 m 387 463 q 382 404 382 403 q 387 463 382 404 l 387 463 m 433 476 l 433 470 l 433 470 l 433 476 l 433 476 m 251 475 l 250 483 q 252 475 251 480 l 251 475 m 526 416 q 526 416 526 416 l 526 414 q 524 418 524 416 q 526 420 524 419 l 526 416 m 526 414 l 526 416 q 526 416 526 416 q 524 406 526 408 q 525 410 525 408 l 526 414 m 463 429 q 462 435 463 430 l 463 433 l 463 429 m 433 477 q 432 485 433 478 l 433 485 l 433 477 m 372 418 q 369 462 371 431 l 370 462 q 371 441 370 456 q 372 420 372 428 l 372 418 m 416 507 q 416 496 416 498 l 416 496 l 416 507 m 385 520 q 385 524 385 521 l 385 524 l 385 520 m 510 606 l 509 606 l 510 621 l 510 606 m 416 491 l 415 491 l 415 497 l 416 497 l 416 491 m 527 553 l 527 545 l 526 545 l 526 553 l 527 553 m 441 572 l 441 566 l 440 566 l 440 572 l 441 572 m 643 627 q 640 629 641 627 q 643 627 642 629 m 262 497 q 261 493 262 493 l 261 497 l 262 497 m 604 642 q 612 640 608 642 q 604 642 608 641 m 361 513 q 362 510 362 512 l 362 501 q 361 512 361 507 l 361 513 m 432 504 q 431 509 432 505 l 431 514 l 432 514 l 432 504 m 551 640 q 556 641 553 641 q 551 640 554 640 m 324 459 l 324 464 q 325 459 324 463 l 324 459 m 528 491 l 528 484 l 528 484 l 528 491 l 528 491 m 362 501 q 363 488 363 496 q 363 475 363 479 l 363 471 q 362 501 363 478 m 364 460 q 363 449 364 456 l 363 449 q 363 459 363 458 q 364 464 364 463 l 364 460 m 781 516 q 780 517 780 516 l 779 517 q 775 521 779 519 q 773 524 775 523 q 781 516 779 520 m 371 509 l 371 505 l 370 505 l 370 509 l 371 509 m 438 470 l 439 470 q 438 463 438 464 l 438 470 m 393 490 l 393 484 l 392 484 l 392 490 l 393 490 m 460 463 q 460 467 460 465 q 460 471 460 469 l 460 463 m 480 463 q 479 469 480 465 l 480 463 m 382 568 l 373 568 l 373 573 l 374 580 q 377 583 374 583 q 380 583 378 583 q 381 582 381 583 q 382 580 382 581 l 382 574 q 382 569 382 570 l 382 568 m 407 551 q 406 559 407 552 l 407 559 l 407 551 m 351 553 q 349 514 350 538 q 347 475 348 488 l 347 475 q 351 555 349 536 l 351 553 m 432 519 l 432 514 l 431 514 l 431 519 l 432 519 m 393 507 l 393 507 q 393 497 393 496 l 393 507 m 502 583 l 502 576 l 501 576 l 501 583 l 502 583 m 439 515 l 439 515 l 439 521 l 439 521 l 439 515 m 393 518 l 393 518 q 393 528 393 526 l 393 518 m 486 550 l 486 543 l 486 543 l 486 551 l 486 550 m 351 404 q 347 459 351 409 l 347 459 q 349 431 348 450 q 351 404 351 414 m 528 511 l 527 511 l 527 519 l 528 519 l 528 511 m 477 568 l 465 568 l 465 576 q 465 589 465 588 q 467 589 466 589 q 468 591 467 590 l 474 591 q 477 587 476 587 l 477 581 q 477 575 477 577 q 477 574 477 574 l 477 568 m 382 580 q 382 574 382 581 l 382 580 m 509 427 q 511 424 511 426 q 509 420 511 422 l 509 423 l 509 427 m 463 515 l 463 509 q 462 504 462 505 l 462 515 l 463 515 m 433 491 l 432 491 l 432 496 l 433 496 l 433 491 m 755 406 q 748 404 752 404 q 755 406 752 405 m 408 517 l 408 526 q 409 517 408 524 l 408 517 m 461 475 l 460 475 q 461 488 461 486 l 461 475 m 454 566 l 454 576 q 454 566 454 574 l 454 566 m 462 439 q 464 435 464 437 q 463 433 464 434 l 462 435 l 462 439 m 327 429 q 330 403 329 408 q 328 418 329 404 q 324 459 326 444 l 325 459 q 326 444 326 454 q 327 429 327 433 m 441 409 q 444 401 444 402 q 442 404 444 401 q 441 406 441 404 l 441 409 m 508 517 l 508 509 l 507 509 l 507 517 l 508 517 m 304 502 q 303 481 304 489 q 304 502 304 494 m 341 460 q 336 404 338 417 q 338 431 337 412 q 341 459 340 449 q 342 463 342 462 q 341 464 342 464 l 341 460 m 395 405 q 401 401 397 401 l 403 401 q 399 401 401 401 q 395 405 396 401 m 486 536 l 485 536 q 486 553 486 550 l 486 536 m 418 567 l 418 561 l 417 561 l 417 567 l 418 567 m 326 486 l 326 477 l 325 477 q 326 486 325 484 m 672 604 q 680 595 673 603 q 676 600 678 596 q 672 604 673 603 m 409 499 q 408 507 409 501 l 409 507 l 409 499 m 454 527 q 455 530 455 527 q 454 541 455 533 l 454 527 m 326 493 l 327 493 q 326 489 326 490 l 326 493 m 783 513 q 784 509 783 509 l 785 509 l 546 509 q 532 511 533 509 l 532 574 q 532 568 532 575 l 694 568 q 691 578 692 578 l 691 576 l 692 576 q 694 570 694 572 q 692 568 692 569 q 693 568 692 568 l 695 568 l 696 566 q 696 562 696 564 q 698 559 698 560 q 700 554 699 555 q 701 550 701 551 q 702 541 701 547 l 705 534 l 706 534 q 724 538 719 538 l 732 538 l 749 536 q 753 535 750 536 q 758 533 753 534 q 765 529 761 532 q 771 525 766 528 q 773 524 772 525 q 775 521 775 523 q 780 515 778 518 l 783 513 m 513 627 q 510 621 511 625 q 513 627 510 625 m 329 521 l 328 510 q 328 509 328 509 q 328 507 328 508 l 328 503 l 327 503 q 329 523 328 519 l 329 521 m 410 474 l 410 474 l 410 479 l 410 479 l 410 474 m 526 573 l 526 573 l 526 581 l 526 581 l 526 573 m 373 566 l 373 562 l 372 562 l 372 566 l 373 566 m 453 568 q 454 570 454 568 q 453 576 454 572 l 453 568 m 431 509 l 416 509 l 416 526 q 417 540 416 529 l 417 545 q 418 556 417 547 l 418 568 l 430 568 q 431 563 431 565 q 430 562 431 562 l 430 557 q 431 547 431 549 l 431 543 l 431 530 l 431 518 q 432 515 432 516 q 431 514 432 514 l 431 509 m 461 460 l 462 435 l 462 437 q 460 460 461 442 l 461 460 m 318 474 q 317 486 318 477 q 317 497 317 492 q 319 474 317 492 l 318 474 m 790 503 q 793 496 792 501 q 791 500 793 498 q 790 503 791 503 m 463 412 q 464 413 464 412 q 463 418 464 415 l 463 412 m 495 401 q 492 401 493 401 q 487 406 488 401 l 487 407 q 494 401 489 401 l 495 401 m 415 488 q 416 498 416 494 q 415 500 416 500 l 415 488 m 373 409 l 373 404 q 372 411 372 406 l 373 409 m 485 439 q 486 441 486 439 q 485 446 486 442 l 485 439 m 371 534 l 372 534 q 371 529 371 530 l 371 534 m 503 528 l 503 543 q 503 528 503 540 l 503 528 m 410 476 q 411 469 411 473 q 410 460 411 465 l 410 476 m 419 594 q 418 589 418 590 l 419 594 m 337 509 q 329 510 331 510 l 328 510 q 329 519 329 516 l 329 523 q 332 526 329 525 q 336 524 334 526 l 336 515 l 337 509 m 696 562 q 698 559 698 560 q 696 562 698 560 m 528 511 l 528 505 l 527 505 l 527 511 l 528 511 m 503 509 l 486 509 l 486 521 q 486 526 486 522 l 486 576 l 487 576 l 487 568 l 501 568 q 502 563 502 564 l 502 555 l 503 539 l 503 518 q 503 512 503 514 q 503 511 503 511 l 503 509 m 665 612 q 671 606 669 609 q 665 612 668 608 m 486 432 q 487 429 487 431 q 486 425 487 427 q 486 428 486 427 l 486 432 m 526 588 q 525 595 526 589 l 526 595 l 526 588 m 487 598 l 486 598 l 486 600 q 487 608 487 607 l 487 598 m 407 564 l 407 564 q 408 555 407 562 l 407 564 m 509 434 q 511 432 511 433 q 509 429 511 431 l 509 434 m 463 534 l 463 534 l 463 540 l 463 540 l 463 534 m 479 511 q 478 515 479 512 l 479 515 l 479 511 m 329 521 l 329 519 q 328 510 329 516 l 328 510 l 329 521 m 372 534 l 371 534 q 372 542 372 541 l 372 534 m 393 477 l 392 477 l 392 484 l 393 484 l 393 477 m 440 416 q 442 414 442 416 q 441 411 442 413 l 440 413 l 440 416 m 430 569 l 429 576 l 430 576 l 430 569 m 502 585 l 502 585 q 503 570 502 582 l 502 585 m 372 414 q 375 412 375 414 q 373 409 375 411 l 372 411 l 372 414 m 395 570 l 395 570 l 395 574 l 395 574 l 395 570 m 441 568 l 441 585 q 441 592 441 586 q 446 599 443 599 q 452 593 448 599 l 452 591 q 453 587 453 587 l 453 576 q 454 570 454 572 q 453 568 454 568 l 441 568 m 527 509 l 509 509 l 509 553 q 509 568 509 556 l 509 576 l 510 576 l 510 568 l 526 568 l 526 566 q 526 553 526 555 l 526 545 q 527 529 527 532 l 527 509 m 439 515 l 439 509 q 439 504 439 505 l 439 515 l 439 515 m 467 402 l 474 402 q 471 400 473 400 q 467 401 469 400 l 467 402 m 486 519 l 485 519 l 485 527 l 486 527 l 486 519 m 528 474 q 529 468 529 471 q 528 462 529 465 l 528 474 m 462 469 q 461 463 461 465 l 462 469 m 441 578 l 440 578 q 441 589 441 587 l 441 578 m 454 509 l 439 509 l 439 536 q 440 549 439 534 l 440 555 q 441 566 440 557 l 441 568 l 453 568 q 454 561 454 562 l 454 555 q 454 545 454 547 l 454 541 q 455 530 455 533 q 454 527 455 527 l 454 509 m 431 562 l 431 557 l 430 557 l 430 562 l 431 562 m 370 497 l 370 492 l 370 492 l 370 497 l 370 497 m 492 614 l 492 614 q 494 615 493 615 q 496 614 495 615 l 492 614 m 416 429 q 418 427 418 429 q 417 425 418 426 q 416 426 417 426 l 416 429 m 372 546 l 372 546 q 372 555 372 556 l 372 546 m 430 562 q 431 563 431 562 q 430 568 431 565 l 430 562 m 259 473 q 260 480 259 478 l 259 473 m 268 517 q 269 515 268 516 l 269 509 l 264 509 q 265 512 265 511 q 264 514 265 513 q 267 517 264 517 l 268 517 l 268 517 m 326 488 q 326 488 326 488 q 326 491 326 490 l 326 488 m 337 515 q 338 506 338 509 q 337 509 337 507 l 337 515 m 433 476 l 433 476 l 433 482 l 433 482 l 433 476 m 415 471 l 415 463 l 414 463 l 414 471 l 415 471 m 416 426 q 417 425 417 426 l 417 421 q 416 426 417 422 m 431 530 l 431 543 l 431 543 l 431 530 m 340 480 q 342 465 342 471 q 341 460 342 462 l 341 464 q 340 481 341 481 l 340 480 m 456 485 l 456 479 l 456 479 l 456 485 l 456 485 m 456 471 q 456 479 456 473 l 456 479 l 456 471 m 306 513 l 306 508 l 305 508 q 306 513 305 510 m 433 482 l 433 492 q 433 482 433 490 l 433 482 m 454 560 l 454 560 l 454 566 l 454 566 l 454 560 m 454 561 q 453 568 454 562 l 453 570 l 454 570 l 454 561 m 440 416 q 439 421 440 416 l 440 418 l 440 416 m 438 477 l 438 470 l 437 470 l 437 477 l 438 477 m 439 511 q 439 521 439 518 q 439 523 439 523 l 439 511 m 479 515 l 478 515 l 478 527 l 479 527 l 479 515 m 486 519 l 486 509 l 485 502 l 485 519 l 486 519 m 392 469 l 393 469 q 392 463 392 465 l 392 469 m 387 466 q 386 483 387 470 l 387 483 l 387 481 q 387 477 387 479 q 387 476 387 476 l 387 466 m 502 422 l 503 424 q 502 418 502 419 l 502 422 m 268 517 l 267 517 q 264 514 264 517 l 262 506 q 263 505 263 506 l 262 505 q 268 518 265 518 l 268 517 m 439 528 l 439 528 q 439 540 439 537 l 439 528 m 500 404 q 496 401 499 401 q 500 404 499 404 m 452 591 q 453 589 453 591 l 453 587 q 452 591 453 587 m 528 500 l 528 514 q 528 500 528 511 l 528 500 m 438 460 l 437 460 l 437 470 l 438 470 l 438 460 m 418 415 q 420 414 420 415 q 418 410 420 412 l 418 415 m 313 528 q 314 521 314 528 l 314 518 q 313 524 313 519 l 313 528 m 288 405 q 283 429 285 405 q 281 456 281 448 l 281 458 q 285 416 282 446 q 288 405 286 406 q 292 417 291 406 q 294 439 293 424 q 296 462 296 454 q 297 469 297 467 q 292 418 297 464 q 288 405 291 405 m 503 507 l 503 522 q 504 507 503 519 l 503 507 m 528 460 q 527 444 528 456 q 526 427 526 433 q 524 425 524 426 q 526 422 524 423 l 526 420 q 524 418 524 419 q 526 414 524 416 l 525 410 q 524 406 525 408 q 522 403 524 403 q 515 401 518 401 q 510 410 510 401 l 510 412 q 511 416 511 414 q 509 418 511 418 l 509 420 q 511 424 511 422 q 509 427 511 426 l 509 429 q 511 432 511 431 q 509 434 511 433 l 509 437 q 510 439 510 438 q 508 442 510 441 q 507 452 508 446 l 507 463 q 508 460 508 463 l 528 460 m 527 553 l 526 553 l 526 560 l 527 560 l 527 553 m 431 547 l 431 547 l 431 553 l 431 553 l 431 547 m 485 471 l 484 471 l 484 480 l 485 480 l 485 471 m 372 546 l 372 546 q 372 541 372 543 l 372 546 m 410 458 q 406 412 408 421 l 406 410 l 410 458 l 410 458 m 507 463 q 507 462 507 462 l 507 463 q 507 473 507 466 l 507 463 m 509 583 q 509 600 509 596 l 509 600 l 509 583 m 463 529 l 462 529 q 463 541 463 539 l 463 529 m 302 463 q 301 465 301 464 q 302 469 301 467 l 302 463 m 454 412 q 453 410 454 411 q 452 413 452 412 q 454 415 452 414 l 454 412 m 385 530 q 385 532 385 530 q 385 535 385 533 l 385 530 m 526 424 q 526 422 526 423 q 524 425 524 423 q 526 427 524 426 l 526 424 m 473 591 l 468 591 q 467 589 467 590 q 465 589 466 589 q 469 593 467 593 q 473 591 471 593 m 501 574 q 502 575 501 575 l 502 574 q 501 568 502 573 l 487 568 l 487 594 q 488 601 487 595 l 488 609 q 492 614 490 614 l 496 614 l 496 614 q 500 612 497 614 l 500 608 q 500 610 500 608 q 501 602 501 603 l 501 585 q 502 576 502 579 q 501 574 502 574 m 485 490 l 485 480 l 484 480 l 484 490 l 485 490 m 395 574 l 395 574 q 395 585 395 583 l 395 574 m 407 563 l 406 563 l 406 568 l 407 568 l 407 563 m 485 490 l 484 490 q 485 506 485 503 l 485 490 m 341 459 q 338 431 340 449 q 336 404 337 412 q 334 399 336 399 q 330 403 333 399 q 327 429 329 408 q 326 444 327 433 q 325 459 326 454 q 326 458 325 458 q 340 460 330 458 l 341 459 m 338 503 q 338 506 338 504 q 337 515 338 509 l 337 517 q 338 503 338 512 l 338 503 m 454 416 l 454 418 q 454 414 454 415 l 454 416 m 406 408 q 405 404 406 405 l 406 409 l 406 408 m 504 481 q 505 470 505 475 q 504 459 505 465 l 504 481 m 671 606 q 672 604 671 606 q 664 612 667 608 l 665 612 q 671 606 668 608 m 479 509 l 463 509 l 463 516 q 463 521 463 517 l 463 558 q 464 570 463 560 l 464 576 l 465 576 l 465 568 l 477 568 q 477 565 477 566 l 477 559 l 478 548 l 478 543 q 479 532 479 536 q 478 530 479 530 l 478 515 q 479 511 479 512 l 479 509 m 467 403 l 467 401 q 465 405 465 403 l 467 403 m 415 491 l 416 491 q 415 481 415 483 l 415 491 m 416 503 l 416 497 l 415 497 l 415 503 l 416 503 m 409 501 l 409 500 q 410 492 409 499 l 409 501 m 454 575 l 453 575 l 453 581 l 454 581 l 454 575 m 406 568 q 397 570 399 570 q 395 570 395 570 l 395 578 q 396 585 395 578 l 396 590 q 400 593 397 593 l 401 593 q 405 591 404 593 l 405 588 q 406 585 405 585 l 406 576 q 406 570 406 571 l 406 568 m 383 574 l 383 564 q 382 568 383 563 l 382 574 l 383 574 m 735 401 q 741 402 737 401 q 747 403 745 403 q 733 401 741 401 l 735 401 m 422 598 l 419 593 l 419 594 l 418 594 q 422 598 419 597 m 407 563 l 407 559 l 406 559 l 406 563 l 407 563 m 314 509 l 307 509 l 307 515 q 307 524 307 521 l 307 526 q 307 528 307 527 q 309 530 307 530 l 309 530 q 312 532 311 532 q 313 528 313 532 l 313 524 q 314 518 313 519 q 315 515 315 516 q 314 513 315 513 l 314 509 m 464 570 q 463 558 463 560 l 463 557 l 464 570 m 252 461 q 248 434 248 436 l 248 437 q 245 432 247 432 q 241 444 243 432 l 240 460 l 240 460 q 252 461 252 460 m 258 463 q 257 465 257 464 q 258 468 257 467 l 258 463 m 503 519 l 503 512 l 503 512 l 503 519 l 503 519 m 394 550 l 395 550 q 394 540 394 538 l 394 550 m 440 561 l 440 555 l 439 555 l 439 561 l 440 561 m 532 509 q 532 611 532 581 q 532 633 532 633 l 532 509 m 284 509 l 284 512 l 285 512 l 285 509 l 292 509 l 292 514 l 292 514 q 295 486 295 486 q 297 469 296 478 q 296 462 297 467 q 297 457 297 458 q 296 460 296 457 l 281 460 l 281 475 l 281 484 l 281 486 l 282 486 l 282 496 q 283 506 283 496 l 284 509 m 439 422 q 440 424 440 422 q 439 429 440 425 l 439 422 m 258 468 q 259 473 258 471 l 259 459 l 258 463 l 258 468 m 336 515 l 336 522 l 337 522 q 336 520 337 521 q 337 519 336 519 l 336 515 m 416 540 l 417 540 q 416 526 416 529 l 416 540 m 457 460 q 454 427 456 435 l 454 429 q 455 445 454 435 q 456 460 456 456 l 457 460 m 793 442 q 790 436 792 439 q 793 442 791 439 m 461 494 q 462 506 462 504 l 462 507 l 461 494 m 479 507 l 479 519 l 479 507 l 479 507 m 433 464 q 430 414 431 425 l 430 412 l 433 464 m 781 423 q 777 418 779 421 l 776 419 q 781 424 779 421 l 781 423 m 430 411 q 428 414 428 413 q 430 416 428 416 l 430 411 m 574 644 q 563 642 570 643 q 566 643 564 643 q 570 644 569 644 l 574 644 m 783 513 q 787 508 784 513 q 784 512 785 510 q 783 513 784 511 m 394 423 q 397 422 397 422 q 395 418 397 420 q 394 420 395 420 l 394 423 m 541 401 q 638 402 589 402 q 735 401 687 402 l 541 401 m 486 559 l 486 559 q 486 576 486 574 l 486 559 m 503 519 l 503 519 l 503 528 l 503 528 l 503 519 m 347 465 q 347 459 347 463 l 347 459 l 347 465 m 454 418 l 454 416 q 452 420 452 418 q 454 422 452 421 l 454 418 m 406 409 q 404 412 404 412 q 406 414 404 414 l 406 409 m 438 460 l 439 437 l 439 438 q 437 460 438 444 l 438 460 m 418 414 l 417 419 q 418 417 417 418 l 418 414 m 524 621 q 525 620 525 621 l 525 614 q 524 621 525 615 m 395 585 q 396 589 396 588 q 395 590 396 590 l 395 585 m 479 500 q 479 502 479 500 q 479 509 479 504 l 479 500 m 417 556 l 418 556 q 417 545 417 547 l 417 556 m 509 568 q 509 553 509 556 l 509 553 l 509 568 m 532 409 l 533 405 q 531 434 531 408 l 531 575 q 532 631 531 624 l 532 633 q 532 611 532 633 q 532 509 532 581 l 532 409 m 433 491 l 433 485 l 432 485 l 432 491 l 433 491 m 361 512 l 361 512 q 360 531 361 519 q 359 551 359 545 q 361 532 360 545 q 361 513 361 520 l 361 512 m 315 515 q 314 518 315 516 l 314 521 q 315 516 314 522 l 315 515 m 373 570 l 373 566 l 372 566 l 372 570 l 373 570 m 478 530 q 479 532 479 530 q 478 543 479 536 l 478 530 m 486 559 l 486 551 l 486 551 l 486 559 l 486 559 m 485 441 q 487 438 487 439 q 486 435 487 437 l 485 437 l 485 441 m 456 484 q 456 486 456 484 q 456 495 456 489 l 456 484 m 463 422 q 465 419 465 421 q 463 416 465 418 l 463 422 m 395 561 l 394 561 q 395 570 395 568 l 395 561 m 387 470 l 387 478 q 387 470 387 479 l 387 470 m 527 519 l 527 534 q 528 519 527 532 l 527 519 m 315 511 l 315 515 q 315 513 315 515 l 315 516 q 315 511 315 515 m 439 528 l 439 521 l 439 521 l 439 528 l 439 528 m 315 513 l 314 513 q 315 515 315 513 q 314 518 315 516 q 315 515 315 516 l 315 513 m 503 432 q 503 431 503 432 l 503 430 q 501 433 501 432 q 503 436 501 435 l 503 432 m 625 636 q 628 635 627 636 q 625 636 625 635 m 463 420 l 463 427 q 463 424 463 426 l 463 420 m 684 588 q 681 593 682 590 q 684 589 683 592 l 684 588 m 395 416 q 397 414 397 416 q 395 411 397 413 l 395 414 l 395 416 m 456 476 l 456 487 q 457 476 456 485 l 456 476 m 463 534 l 463 521 l 463 521 l 463 534 l 463 534 m 386 509 l 385 513 l 386 513 l 386 509 m 393 518 l 393 512 l 393 512 l 393 518 l 393 518 m 308 404 q 310 403 309 403 q 312 404 311 403 q 310 402 311 402 q 307 404 309 402 q 302 457 304 434 l 302 458 q 305 431 304 450 q 308 404 307 414 m 510 591 l 510 576 l 509 576 l 509 591 l 510 591 m 408 536 l 408 537 q 407 546 408 538 l 408 536 m 387 470 l 387 463 l 387 463 l 387 470 l 387 470 m 432 519 l 431 519 l 431 524 l 432 524 l 432 519 m 418 567 l 417 567 l 418 578 l 418 567 m 385 535 q 384 542 385 537 l 384 554 q 385 535 385 549 m 510 412 l 510 410 q 515 401 510 401 q 522 403 518 401 q 513 400 517 400 q 509 408 509 400 q 509 415 509 411 l 510 412 m 479 501 l 479 495 l 479 495 l 479 501 l 479 501 m 410 458 l 406 410 l 406 414 q 404 412 404 414 q 406 409 404 412 l 405 404 q 403 401 405 402 l 401 401 q 395 405 397 401 l 395 411 q 397 414 397 413 q 395 416 397 416 l 395 418 q 397 422 397 420 q 394 423 397 422 l 394 419 l 392 460 l 393 460 q 408 458 404 458 q 410 459 410 458 l 410 458 m 762 409 q 758 407 760 407 q 762 409 760 408 m 429 404 q 425 401 428 401 q 422 401 424 401 l 424 401 q 429 404 427 401 m 416 535 q 417 545 417 543 q 416 547 417 547 l 416 535 m 440 566 l 441 566 q 440 555 440 557 l 440 566 m 371 509 l 385 509 q 385 503 385 508 q 386 497 385 499 l 386 494 q 387 488 387 490 q 386 486 387 486 l 386 483 q 387 466 387 470 l 387 463 q 386 460 386 462 l 370 460 l 370 480 q 370 488 370 481 l 370 492 q 371 500 370 494 l 371 509 m 262 497 l 261 497 q 262 504 262 502 l 262 497 m 587 401 l 554 401 q 541 401 546 401 l 587 401 m 319 462 q 320 461 320 462 l 318 460 l 303 460 l 303 481 q 305 502 304 489 l 305 503 l 306 508 l 306 515 l 307 515 l 307 509 l 314 509 l 314 513 l 315 513 q 315 515 315 515 l 315 511 q 317 497 316 505 q 317 486 317 492 q 318 474 318 477 l 319 469 l 319 462 m 438 477 l 437 477 q 438 489 438 487 l 438 477 m 410 458 l 410 458 l 410 459 q 410 465 410 465 l 410 458 m 480 460 q 479 460 479 460 l 462 460 l 461 463 q 462 469 461 465 l 462 504 q 463 509 462 505 l 479 509 q 479 502 479 504 q 479 500 479 500 l 479 495 q 479 485 479 487 l 479 469 q 480 463 480 465 l 480 460 m 417 551 l 417 545 l 416 545 l 416 551 l 417 551 m 410 465 q 410 459 410 465 q 408 458 410 458 q 393 460 404 458 l 392 460 l 392 463 q 393 469 392 465 l 393 497 q 393 507 393 496 l 394 509 l 408 509 l 408 511 l 408 511 l 408 507 q 409 499 409 501 l 409 495 q 410 488 410 490 q 409 486 410 486 l 409 482 q 410 475 410 476 l 410 474 l 410 467 l 410 465 m 439 481 l 439 470 l 438 470 l 438 481 l 439 481 m 528 471 l 528 471 l 528 484 l 528 484 l 528 471 m 296 462 q 294 439 296 454 q 292 417 293 424 q 288 405 291 406 q 285 416 286 406 q 281 458 282 446 l 281 460 l 296 460 l 296 457 l 297 457 q 296 462 297 458 m 393 504 q 393 513 393 510 q 393 515 393 515 l 393 504 m 286 527 q 286 526 286 526 q 286 527 286 526 m 478 415 q 477 404 478 408 l 476 404 q 477 413 476 405 l 478 415 m 463 430 q 465 427 465 429 q 463 424 465 426 q 463 427 463 426 l 463 430 m 487 407 q 486 412 487 408 l 486 414 q 487 413 487 414 l 487 407 m 486 412 q 487 413 487 412 q 486 418 487 415 l 486 412 m 282 486 l 281 486 q 282 494 281 492 l 282 486 m 503 430 l 503 431 q 503 432 503 432 l 503 430 m 408 522 q 408 524 408 522 q 408 533 408 527 l 408 522 m 508 500 l 507 500 l 507 509 l 508 509 l 508 500 m 502 563 q 501 568 502 564 q 502 574 502 573 l 502 575 q 501 574 501 575 l 501 576 l 502 576 l 502 563 m 532 568 q 532 574 532 575 l 532 631 q 551 640 534 635 q 556 641 554 640 q 563 642 559 642 q 574 644 570 643 l 591 644 q 602 642 596 642 l 604 642 q 612 640 608 641 q 625 636 621 639 q 628 635 625 635 l 632 633 q 640 629 633 633 q 643 627 641 627 q 661 615 652 623 q 662 614 661 614 q 663 612 663 613 q 672 604 667 608 q 676 600 673 603 q 680 595 678 596 q 681 596 680 596 l 681 593 q 684 588 682 590 q 691 576 685 587 l 691 578 q 694 568 692 578 l 532 568 m 453 581 l 453 589 q 454 581 453 591 l 453 581 m 370 485 q 370 492 370 490 q 370 494 370 494 l 370 485 m 418 588 l 418 578 l 418 578 l 418 588 l 418 588 m 500 610 q 501 608 501 610 l 501 602 q 500 610 501 603 m 429 587 q 429 595 429 588 l 429 595 l 429 587 m 439 425 q 441 422 441 423 q 440 418 441 420 l 439 421 l 439 425 m 509 433 q 508 439 509 432 q 509 437 508 438 l 509 433 m 386 486 q 387 488 387 486 q 386 494 387 490 l 386 486 m 275 467 q 274 460 275 465 l 273 460 q 260 460 270 460 q 259 462 260 461 l 259 473 l 260 480 q 261 493 260 482 q 262 497 262 493 l 262 505 l 263 505 q 262 506 263 506 l 263 506 l 263 511 l 264 509 l 269 509 l 269 513 l 272 491 q 275 469 274 475 l 275 467 m 507 500 l 508 500 q 507 486 507 489 l 507 500 m 309 530 l 309 530 q 307 528 307 530 q 307 526 307 527 l 306 515 l 306 513 q 309 530 309 530 m 463 521 l 463 521 q 463 516 463 517 l 463 521 m 463 414 q 465 410 465 413 q 464 406 465 409 l 464 407 q 463 412 464 408 l 463 414 m 454 547 l 454 547 q 455 536 454 545 l 454 547 m 441 572 l 440 572 l 440 578 l 441 578 l 441 572 m 501 608 q 500 610 501 610 q 500 608 500 608 l 500 612 l 498 612 q 498 614 498 613 q 501 608 501 611 m 371 522 q 372 529 372 527 q 371 530 372 530 l 371 522 m 477 587 l 477 586 q 477 582 477 585 l 477 587 m 393 507 l 393 507 l 393 512 l 393 512 l 393 507 m 441 408 q 440 413 441 409 l 441 411 l 441 408 m 387 488 l 387 483 l 386 483 l 386 488 l 387 488 m 338 503 q 339 498 338 502 l 339 506 q 338 503 338 506 l 338 503 m 410 479 l 410 488 q 410 479 410 486 l 410 479 m 332 526 q 334 527 333 527 q 336 524 335 527 q 332 526 334 526 m 374 580 l 373 573 l 373 580 l 374 580 m 381 582 q 383 575 383 582 l 383 574 l 382 574 l 382 574 q 382 580 382 581 q 381 582 382 581 m 372 420 q 374 418 374 420 q 372 415 374 418 l 372 420 m 439 494 l 438 494 l 439 507 l 439 494 m 461 460 l 460 460 l 460 469 l 461 469 l 461 460 m 749 536 l 732 538 l 736 538 q 730 538 733 538 q 724 538 727 538 q 706 534 719 538 q 729 540 718 540 q 749 536 739 540 m 504 457 q 503 435 504 443 l 503 436 q 503 433 503 433 l 504 457 m 461 475 l 461 469 l 460 469 l 460 475 l 461 475 m 504 498 l 503 498 l 503 507 l 504 507 l 504 498 m 526 595 l 525 595 l 525 608 l 526 608 l 526 595 m 359 559 q 355 562 357 562 l 354 562 q 351 557 351 560 l 351 558 q 354 562 351 562 l 355 562 q 359 559 359 562 l 359 559 m 479 485 q 479 495 479 487 l 479 495 l 479 485 m 386 492 l 386 499 q 387 492 386 498 l 386 492 m 486 421 q 486 428 486 422 q 486 425 486 427 l 486 421 m 672 604 q 663 612 667 608 l 664 612 q 672 604 667 608 m 430 412 q 429 404 430 406 q 430 411 429 405 l 430 412 m 361 509 l 349 509 q 351 555 350 555 l 351 557 q 354 562 351 560 l 355 562 q 359 559 357 562 q 359 551 359 560 q 360 531 359 545 q 361 512 361 519 l 361 509 m 409 512 l 409 507 l 408 507 l 408 512 l 409 512 m 486 422 q 488 420 488 422 q 486 416 488 418 l 486 422 m 324 460 q 325 461 325 460 q 324 465 325 463 l 324 460 m 779 517 q 780 517 779 517 l 780 515 q 775 521 778 518 q 779 517 779 519 m 347 460 q 346 467 346 464 q 347 473 346 470 l 347 460 m 440 561 l 439 561 q 440 573 440 571 l 440 561 m 463 529 l 463 522 l 462 522 l 462 529 l 463 529 m 248 437 q 245 432 248 432 q 241 446 242 433 q 239 460 240 459 l 239 464 q 240 460 240 463 l 240 460 q 241 444 240 460 q 245 432 243 432 q 248 437 247 432 m 477 565 q 477 568 477 566 l 477 565 m 370 468 l 370 462 l 369 462 l 369 468 l 370 468 m 486 526 l 486 526 q 486 521 486 522 l 486 526 m 408 511 l 408 511 l 408 521 l 408 521 l 408 511 m 274 460 q 275 467 275 465 q 270 425 275 460 q 267 414 269 414 l 267 414 q 271 439 269 416 l 274 460 m 504 457 l 503 433 q 503 436 503 433 q 501 433 501 435 q 503 430 501 432 l 503 427 q 500 425 500 427 q 502 422 500 424 l 502 419 q 500 417 500 418 q 501 413 500 416 l 501 409 q 500 405 500 406 q 500 404 500 404 q 495 401 499 404 l 494 401 q 487 407 489 401 l 487 408 q 488 410 488 409 q 487 413 488 412 q 486 414 487 414 l 486 416 q 488 420 488 418 q 486 422 488 422 l 486 425 q 487 429 487 427 q 486 432 487 431 l 486 435 q 487 438 487 437 q 485 441 487 439 l 485 448 q 484 465 484 448 q 485 462 485 464 l 485 460 q 503 459 499 459 l 503 459 l 504 457 m 463 564 q 464 576 464 572 q 463 578 464 578 l 463 564 m 417 540 l 416 540 l 416 545 l 417 545 l 417 540 m 509 562 q 509 575 509 571 q 509 578 509 578 l 509 562 m 799 465 l 799 461 q 795 450 795 451 l 796 450 q 797 455 796 452 q 798 460 798 458 q 798 465 798 463 l 799 465 m 456 515 l 455 515 l 455 521 l 456 521 l 456 515 m 507 496 q 508 509 508 505 q 507 513 508 513 l 507 496 m 417 422 q 419 420 419 422 q 418 417 419 419 q 417 419 417 418 l 417 422 m 799 479 l 799 465 l 798 465 q 799 465 798 465 l 799 467 q 798 479 799 470 l 799 479 m 502 583 l 501 583 l 501 591 l 502 591 l 502 583 m 479 503 l 479 503 q 480 491 479 500 l 479 503 m 372 558 q 373 566 373 564 q 372 568 373 568 l 372 558 m 697 562 q 696 566 696 565 l 696 566 q 697 562 697 564 m 409 486 q 410 488 410 486 q 409 495 410 490 l 409 486 m 781 424 q 776 419 779 421 q 781 424 778 422 m 781 423 q 777 418 779 421 q 781 423 779 421 m 393 490 l 392 490 q 393 499 393 497 l 393 490 m 259 460 l 258 463 q 264 415 258 460 q 259 459 262 425 l 259 460 m 385 513 l 385 521 q 386 513 385 519 l 385 513 m 457 470 l 456 470 l 456 476 l 457 476 l 457 470 m 372 533 q 372 516 372 522 l 371 517 l 371 529 q 372 534 371 530 l 372 541 q 372 546 372 543 l 372 533 m 408 530 l 408 539 q 408 530 408 541 l 408 530 m 243 495 q 245 499 243 499 q 247 498 246 499 q 250 491 250 494 q 249 488 250 490 q 247 496 249 492 q 245 498 246 498 q 243 495 244 498 m 632 633 q 640 629 637 632 q 632 633 633 633 m 409 512 l 408 512 l 408 517 l 409 517 l 409 512 m 526 422 q 526 424 526 423 q 526 418 526 418 l 526 422 m 347 459 q 347 465 347 463 l 347 467 q 347 471 347 468 q 348 490 348 477 q 349 509 349 503 l 361 509 l 361 512 l 361 512 q 362 501 361 507 q 363 471 363 478 q 364 467 364 468 l 364 464 q 363 459 364 463 q 353 460 357 460 q 347 459 349 460 m 433 464 l 430 412 l 430 416 q 428 414 428 416 q 430 411 428 413 q 429 404 429 405 q 424 401 427 401 l 422 401 q 418 410 418 403 q 420 414 420 412 q 418 415 420 415 l 418 417 q 419 420 419 419 q 417 422 419 422 l 417 425 q 418 427 418 426 q 416 429 418 429 q 416 446 416 436 q 415 463 415 458 l 415 463 q 416 460 416 463 l 432 460 q 433 464 432 460 l 433 464 m 302 457 q 302 463 302 458 l 302 469 q 302 475 302 473 l 302 457 m 439 432 q 441 430 441 431 q 439 427 441 429 l 439 432 m 408 525 l 408 521 l 408 521 l 408 525 l 408 525 m 395 405 q 396 406 396 405 q 395 408 396 407 l 395 405 m 463 547 l 463 547 q 463 560 463 562 l 463 547 m 486 431 q 485 437 486 432 l 486 435 l 486 431 m 433 464 q 432 460 432 460 l 416 460 q 415 463 416 463 l 415 481 q 416 491 415 483 l 416 496 q 416 507 416 498 l 416 509 l 431 509 q 432 504 432 505 l 432 500 q 433 492 433 494 q 432 490 433 490 l 432 485 q 433 477 433 478 l 433 464 m 432 490 q 433 492 433 490 q 432 500 433 494 l 432 490 m 382 569 q 382 574 382 570 l 382 569 m 527 529 q 526 545 527 532 l 527 545 l 527 529 m 504 457 q 505 465 505 463 q 504 466 505 466 l 504 457 m 363 449 q 361 414 363 441 q 355 401 359 401 q 353 402 354 401 q 357 401 355 401 q 361 425 359 404 l 363 449 l 363 449 m 504 466 q 505 465 505 466 q 504 457 505 463 l 503 459 l 503 459 q 485 460 499 459 l 485 462 q 484 465 485 464 l 484 467 q 485 471 484 468 l 485 502 l 486 509 l 503 509 q 503 498 503 500 l 503 490 q 504 476 504 474 q 505 469 505 471 q 504 467 505 467 l 504 466 m 508 517 l 507 517 q 508 534 508 530 l 508 517 m 268 517 q 272 491 268 517 l 269 513 l 269 515 q 268 517 268 516 m 382 404 q 380 401 382 402 q 375 402 376 401 q 373 404 374 404 l 373 409 q 375 412 375 411 q 372 414 375 414 l 372 415 q 374 418 374 418 q 372 420 374 420 q 371 441 372 428 q 370 462 370 456 l 370 460 l 386 460 q 387 463 386 462 q 382 404 382 404 m 487 591 l 487 576 l 486 576 l 486 591 l 487 591 m 363 459 q 363 449 363 458 l 361 425 q 357 401 359 404 q 353 402 355 401 l 352 402 l 351 405 l 351 404 q 349 431 351 414 q 347 459 348 450 q 353 460 349 460 q 363 459 357 460 m 783 513 l 784 512 l 783 513 l 780 515 l 780 517 q 779 517 779 517 l 780 517 q 781 516 780 516 q 783 513 783 514 m 395 570 l 395 565 l 395 565 l 395 570 l 395 570 m 383 575 q 384 556 383 570 q 383 560 383 557 q 384 562 384 562 q 383 564 384 564 l 383 575 m 702 541 q 701 550 701 547 q 703 541 701 549 l 702 541 m 396 585 q 395 578 395 578 l 396 585 m 284 509 l 283 506 q 286 526 286 524 l 286 524 l 286 526 l 287 526 q 284 512 287 525 l 284 509 m 479 501 l 479 501 l 479 507 l 479 507 l 479 501 m 392 475 q 393 484 393 481 q 392 486 393 486 l 392 475 m 243 495 q 242 491 243 491 q 243 495 242 492 m 351 553 l 351 555 q 349 509 350 555 q 348 490 349 503 q 347 471 348 477 l 347 475 q 349 514 348 488 q 351 553 350 538 m 392 462 q 391 467 391 465 q 392 472 391 470 l 392 462 m 504 467 q 505 469 505 467 q 504 476 505 471 l 504 467 m 303 460 l 318 460 l 320 461 q 319 462 320 462 q 313 404 313 408 q 312 404 313 404 q 310 403 311 403 q 308 404 309 403 q 305 431 307 414 q 302 458 304 450 l 303 460 m 274 460 l 271 439 q 267 414 269 416 q 264 415 266 414 q 258 463 258 460 l 259 460 l 259 462 q 260 460 260 461 q 273 460 270 460 l 274 460 m 528 491 l 528 491 l 528 500 l 528 500 l 528 491 m 798 460 q 797 455 798 458 q 796 450 796 452 q 795 447 795 449 q 793 442 794 444 q 790 436 791 439 q 787 432 789 433 q 781 424 785 430 q 776 419 778 422 l 773 416 q 762 409 768 412 q 758 407 760 408 q 755 406 757 406 q 748 404 752 405 q 747 403 748 403 q 741 402 745 403 q 735 401 737 401 q 638 402 687 402 q 541 401 589 402 l 537 401 q 535 403 536 402 q 533 405 533 403 l 532 409 l 532 463 l 532 460 l 665 460 q 798 460 747 460 m 418 561 l 418 556 l 417 556 l 417 561 l 418 561 m 408 525 l 408 525 l 408 530 l 408 530 l 408 525 m 509 539 l 508 539 q 509 555 509 552 l 509 539 m 393 477 l 393 469 l 392 469 l 392 477 l 393 477 m 478 422 q 479 422 479 422 l 478 420 q 477 424 477 422 q 478 426 477 425 l 478 422 m 319 474 l 319 469 l 318 474 l 319 474 m 480 471 q 481 467 481 469 q 480 462 481 465 l 480 471 m 406 568 l 406 577 q 407 568 406 578 l 406 568 m 336 524 q 337 519 337 523 q 336 520 336 519 q 337 522 337 521 l 336 522 l 336 524 m 286 524 q 285 512 286 516 l 284 512 q 287 526 287 525 l 286 526 l 286 524 m 319 469 q 313 404 318 437 q 319 462 313 408 l 319 469 m 456 460 q 438 460 459 460 l 438 463 q 439 470 438 464 l 439 504 q 439 509 439 505 l 455 509 q 456 500 456 502 l 456 495 q 456 486 456 489 q 456 484 456 484 l 456 479 q 456 471 456 473 l 456 460 m 457 473 q 458 467 458 470 q 457 462 458 465 l 457 473 m 787 432 q 781 424 785 427 q 787 432 785 430 m 463 547 l 463 540 l 463 540 l 463 547 l 463 547 m 440 555 l 440 549 l 439 549 l 439 555 l 440 555 m 492 614 q 488 609 490 614 l 487 609 q 492 614 488 613 l 492 614 m 429 595 q 426 598 429 595 q 429 595 428 597 l 429 595 m 410 474 l 410 475 q 409 482 410 476 l 410 474 m 526 553 q 526 566 526 555 l 526 566 l 526 553 m 455 521 l 455 532 q 456 521 455 530 l 455 521 m 406 570 q 406 576 406 571 l 406 576 l 406 570 m 431 547 q 430 557 431 549 l 431 557 l 431 547 m 509 418 q 511 416 511 418 q 510 412 511 414 l 509 415 l 509 418 m 439 494 l 439 488 l 438 488 l 438 494 l 439 494 m 439 545 q 440 555 440 552 q 439 557 440 557 l 439 545 z "},"o":{"ha":979,"x_min":106,"x_max":873,"o":"m 218 749 q 490 860 331 860 q 761 749 648 860 q 873 481 873 638 q 761 214 873 326 q 490 103 648 103 q 218 214 331 103 q 106 481 106 326 q 218 749 106 638 m 280 465 q 279 481 279 473 q 298 564 279 526 q 401 290 352 424 q 280 465 288 342 m 569 279 q 499 265 536 265 q 436 275 469 265 q 468 368 448 310 q 500 460 492 434 q 535 370 513 429 q 569 279 558 307 m 639 492 q 621 426 637 479 q 602 361 610 390 q 581 418 600 364 q 523 588 528 570 q 554 600 554 591 l 554 601 q 534 606 553 606 q 522 606 529 606 q 483 605 501 605 q 449 606 465 605 q 438 606 443 606 q 420 599 420 606 l 420 598 q 451 588 420 593 l 450 591 l 486 497 q 437 354 437 353 l 438 359 q 359 588 410 435 q 391 596 391 593 l 391 597 q 367 605 391 605 l 356 605 q 311 604 340 604 q 475 700 370 692 q 494 701 485 701 q 637 645 575 701 l 635 645 q 606 628 616 645 q 600 606 600 618 q 603 589 600 598 q 639 492 639 493 m 721 468 q 614 300 714 358 q 649 400 627 339 q 686 500 677 478 q 696 564 696 530 q 695 581 696 572 l 696 581 l 696 581 q 722 482 722 534 q 721 468 722 475 m 751 494 q 676 659 743 592 q 513 733 610 725 l 481 733 q 318 659 385 725 q 243 494 250 591 l 243 464 q 318 300 252 366 q 481 225 385 233 l 513 225 q 676 300 610 233 q 751 464 743 366 l 751 494 z "},"p":{"ha":982,"x_min":5,"x_max":770,"o":"m 117 743 q 387 853 229 853 q 658 743 546 853 q 770 476 770 632 q 658 209 770 320 q 387 98 546 98 q 117 209 229 98 q 5 476 5 320 q 117 743 5 632 m 393 726 q 220 660 292 726 q 141 497 149 594 q 140 472 140 484 q 300 237 140 315 q 298 258 298 247 q 313 359 298 299 q 330 434 330 431 q 326 453 330 439 q 323 474 323 467 q 368 535 324 535 l 372 535 q 402 502 402 534 q 399 477 402 491 l 380 397 q 407 369 384 374 q 422 367 415 367 q 481 409 458 367 q 503 482 503 448 q 470 558 503 524 q 398 587 444 585 l 390 587 q 327 570 353 587 q 280 495 288 545 q 279 475 279 485 q 300 413 279 440 q 295 395 297 409 q 288 378 292 382 q 231 471 235 407 q 231 482 231 477 q 275 585 231 542 q 399 633 324 633 q 507 594 462 633 q 556 495 552 555 q 557 479 557 487 q 498 354 557 400 q 428 324 461 324 q 380 340 403 324 q 365 352 365 351 q 319 229 347 271 q 401 218 361 218 q 575 294 500 218 q 646 450 639 360 q 646 473 646 462 q 581 646 646 573 q 393 726 507 726 z "},"q":{"ha":960,"x_min":-23,"x_max":728,"o":"m 87 747 q 353 856 197 856 q 618 747 508 856 q 728 486 728 639 q 618 224 728 332 q 353 115 508 115 q 87 224 197 115 q -23 486 -23 332 q 87 747 -23 639 m 446 584 q 365 587 389 587 l 366 686 l 307 686 q 227 576 292 597 l 227 524 q 264 520 255 520 q 267 521 267 520 l 267 496 q 266 448 267 475 q 265 414 265 429 q 267 382 265 395 q 338 295 275 317 q 383 287 361 287 q 456 310 420 287 q 435 368 451 324 q 404 359 417 359 q 366 404 373 359 q 368 524 366 406 l 446 524 l 446 584 z "},"r":{"ha":994,"x_min":37,"x_max":814,"o":"m 151 760 q 425 871 264 871 q 700 760 587 871 q 814 488 814 647 q 700 218 814 330 q 425 105 587 105 q 151 218 264 105 q 37 488 37 330 q 151 760 37 647 m 300 456 q 296 479 296 469 q 336 510 296 507 l 340 510 q 375 486 367 510 q 378 467 378 475 q 350 435 378 442 q 333 432 340 432 q 300 456 309 432 m 491 347 q 425 334 458 334 q 362 346 394 334 q 334 363 346 352 q 328 373 328 368 q 340 381 328 378 q 422 349 378 349 q 492 368 456 349 q 519 378 512 378 q 524 377 522 378 l 524 375 q 491 347 524 360 m 528 433 q 514 431 521 431 q 487 442 499 431 q 474 469 474 453 q 477 486 474 477 q 512 510 484 508 l 515 510 q 552 477 545 510 q 553 465 553 471 q 528 433 553 441 m 611 566 q 587 552 603 564 q 439 602 539 591 q 465 719 462 709 q 505 711 477 717 q 546 702 532 705 q 585 663 552 663 q 597 664 591 663 q 627 699 627 669 q 626 711 627 704 q 589 745 620 745 q 578 745 584 745 q 562 734 571 743 q 548 724 552 724 l 547 724 q 498 733 544 724 q 451 742 456 742 l 450 742 q 439 709 445 739 q 416 600 416 602 q 296 570 355 600 l 264 554 q 255 561 264 555 q 224 570 239 570 q 185 551 203 570 q 167 511 167 531 q 176 481 167 496 l 176 482 q 201 458 177 482 q 201 444 201 451 q 276 325 201 372 q 420 283 342 283 q 515 298 466 283 q 651 452 651 338 l 651 459 q 684 504 684 473 q 680 528 684 515 q 631 569 667 569 q 611 566 622 569 z "},"s":{"ha":963,"x_min":-27,"x_max":728,"o":"m 83 751 q 351 861 194 861 q 618 751 507 861 q 728 488 728 642 q 618 225 728 334 q 351 116 507 116 q 83 225 194 116 q -27 488 -27 334 q 83 751 -27 642 m 572 382 q 474 475 488 414 q 507 492 479 481 q 529 513 529 500 l 529 515 q 477 527 528 527 l 471 527 q 476 577 476 554 q 372 694 476 684 q 347 696 359 696 q 237 619 260 696 q 233 589 233 609 q 234 571 233 581 l 234 560 q 229 524 234 536 q 199 530 211 530 q 179 515 180 530 l 179 514 q 203 493 179 502 q 232 472 229 484 q 233 463 233 467 q 172 397 233 427 q 134 377 134 378 l 134 376 q 192 349 134 357 q 206 319 206 323 l 208 320 q 321 287 228 320 q 346 283 333 283 q 410 303 375 283 q 475 323 446 323 q 502 319 490 323 q 509 334 507 322 q 517 349 512 347 q 572 382 572 364 z "},"t":{"ha":1009,"x_min":50,"x_max":831,"o":"m 165 747 q 441 860 279 860 q 717 747 603 860 q 831 475 831 634 q 717 203 831 315 q 441 90 603 90 q 165 203 279 90 q 50 475 50 315 q 165 747 50 634 m 718 627 q 659 610 690 614 l 661 612 q 704 668 692 634 q 647 646 671 651 l 637 643 q 623 655 637 644 q 564 677 598 675 l 554 677 q 476 637 505 673 q 452 572 452 608 q 455 546 452 559 q 236 657 323 555 q 220 606 220 633 q 226 574 220 591 q 268 515 236 538 q 220 528 243 516 q 305 423 225 445 q 281 418 294 418 q 258 421 271 418 q 357 347 282 353 q 351 342 357 346 q 227 302 294 302 q 201 303 214 302 q 359 256 276 256 q 523 299 452 256 q 624 406 585 337 q 665 558 665 477 l 665 570 q 680 583 665 571 q 718 627 704 604 z "},"u":{"ha":978,"x_min":110,"x_max":869,"o":"m 221 748 q 489 857 332 857 q 758 748 646 857 q 869 484 868 638 q 758 219 868 328 q 489 109 646 109 q 221 219 332 109 q 110 484 110 328 q 221 748 110 638 m 711 380 q 665 428 702 392 q 645 454 646 447 l 645 456 q 653 476 645 464 q 683 517 660 486 q 712 558 702 541 q 726 594 726 583 q 726 599 726 597 q 706 606 722 606 l 703 606 q 645 606 675 606 q 616 604 618 606 q 605 589 610 602 q 579 536 593 560 q 547 490 559 503 q 531 479 538 479 l 530 479 q 518 503 520 480 q 517 517 517 508 q 519 574 517 536 l 519 580 q 515 606 519 600 q 457 620 507 620 q 438 619 448 620 q 391 599 397 617 q 416 585 411 593 q 422 528 422 573 q 420 499 422 512 q 408 479 417 480 l 406 479 q 391 488 399 479 q 380 503 387 493 q 334 586 355 538 q 325 602 328 599 q 292 606 319 606 l 267 606 q 225 599 228 606 q 224 596 224 598 q 233 573 224 590 q 320 421 275 482 q 391 355 354 376 q 468 334 431 334 l 472 334 q 515 340 511 335 q 519 364 517 342 q 524 385 520 377 q 538 399 529 399 l 540 399 q 562 385 549 399 q 580 365 564 384 q 624 334 603 338 q 656 333 627 333 l 670 333 l 684 334 q 726 347 724 334 q 727 350 727 349 q 711 380 727 360 z "},"v":{"ha":987,"x_min":104,"x_max":873,"o":"m 216 756 q 488 867 329 867 q 760 756 648 867 q 873 488 872 645 q 760 220 872 332 q 488 109 648 109 q 216 220 329 109 q 104 488 104 332 q 216 756 104 645 m 651 691 q 560 646 606 688 q 516 576 532 621 l 520 576 q 574 562 565 576 q 580 536 580 552 q 579 522 580 529 q 554 456 576 496 q 511 409 529 410 l 508 409 q 475 433 489 409 q 449 564 474 435 q 378 678 427 678 q 371 677 374 678 q 290 627 344 673 q 255 597 277 616 q 222 570 233 578 l 232 558 q 243 547 239 547 q 248 546 245 546 q 271 551 256 546 q 291 555 282 555 q 300 554 296 555 q 334 482 312 550 q 357 397 343 456 q 382 314 370 345 q 430 254 401 263 q 448 251 438 251 q 465 253 456 251 q 561 313 505 260 q 689 498 636 385 q 732 612 726 579 q 734 632 734 623 q 663 692 734 692 q 651 691 657 692 z "},"w":{"ha":978,"x_min":111,"x_max":871,"o":"m 222 760 q 491 869 334 869 q 760 760 649 869 q 871 494 871 650 q 760 229 871 339 q 491 119 649 119 q 222 229 334 119 q 111 494 111 339 q 222 760 111 650 m 703 459 q 586 328 675 368 q 502 311 546 311 q 479 312 491 311 q 389 345 437 317 l 309 320 q 328 376 311 326 l 335 395 q 322 418 334 395 q 297 496 301 455 q 296 521 296 509 q 383 686 296 622 q 487 723 430 720 q 503 724 495 724 q 662 650 600 724 q 713 521 713 591 q 703 459 713 491 m 751 532 q 678 691 742 627 q 519 762 616 753 l 488 762 q 326 687 387 752 q 256 519 257 613 q 285 404 256 462 q 288 389 288 397 q 286 374 288 382 q 245 258 245 259 l 247 261 q 249 259 248 259 q 316 281 274 268 q 384 302 371 298 q 503 272 445 272 l 510 272 q 631 307 578 275 q 751 502 738 373 l 751 532 m 628 460 q 600 476 623 465 q 569 489 574 489 l 568 489 q 553 473 565 489 q 536 458 541 458 l 536 458 q 507 470 528 458 q 462 510 483 484 q 446 536 446 531 q 457 551 446 537 q 466 568 466 562 q 454 600 466 571 q 439 627 442 625 q 427 630 433 630 q 414 628 421 630 q 383 572 383 620 q 412 503 383 544 q 500 423 452 446 q 563 402 536 406 l 569 402 q 601 410 584 402 q 629 454 629 425 q 628 460 629 457 z "}}}
